<svg width="24" height="20" viewBox="0 0 24 20" fill="none" xmlns="http://www.w3.org/2000/svg">
<path d="M13.2928 0.292884C13.1054 0.480449 13.0001 0.734786 13.0001 0.999976C13.0001 1.26517 13.1054 1.5195 13.2928 1.70707L20.5858 8.99998L1 8.99998C0.734784 8.99998 0.48043 9.10533 0.292893 9.29287C0.105357 9.4804 8.97432e-07 9.73476 8.74245e-07 9.99998C8.51059e-07 10.2652 0.105357 10.5195 0.292893 10.7071C0.480429 10.8946 0.734784 11 1 11L20.5858 11L13.2928 18.2929C13.1053 18.4804 13 18.7348 13 19C13 19.2652 13.1054 19.5196 13.2929 19.7071C13.4805 19.8947 13.7348 20 14 20C14.2653 20 14.5196 19.8946 14.7072 19.7071L23.7072 10.7071C23.7104 10.7038 23.7131 10.7002 23.7163 10.6969C23.7361 10.6767 23.7552 10.6559 23.7732 10.634C23.7832 10.6218 23.792 10.6089 23.8014 10.5963C23.8115 10.5827 23.822 10.5694 23.8315 10.5553C23.8412 10.5408 23.8497 10.5257 23.8586 10.5107C23.8664 10.4977 23.8746 10.4849 23.8818 10.4714C23.8898 10.4564 23.8967 10.4409 23.9039 10.4256C23.9107 10.4113 23.9178 10.3973 23.9238 10.3827C23.9299 10.3679 23.9349 10.3528 23.9403 10.3377C23.9459 10.322 23.952 10.3064 23.9569 10.2903C23.9614 10.2753 23.9647 10.2601 23.9685 10.245C23.9727 10.2285 23.9773 10.2121 23.9806 10.1953C23.9841 10.1779 23.9861 10.1603 23.9887 10.1428C23.9908 10.128 23.9936 10.1136 23.995 10.0987C23.9983 10.0658 24 10.0329 24 9.99998C24 9.96702 23.9983 9.93412 23.995 9.90128C23.9936 9.88639 23.9908 9.87193 23.9887 9.85716C23.9862 9.83964 23.9841 9.82206 23.9806 9.80461C23.9773 9.78782 23.9727 9.77147 23.9685 9.75498C23.9647 9.73985 23.9614 9.72465 23.9569 9.70969C23.952 9.69358 23.9459 9.67796 23.9403 9.66221C23.9349 9.64719 23.9299 9.63206 23.9238 9.61729C23.9178 9.6027 23.9106 9.58866 23.9039 9.57438C23.8967 9.55906 23.8898 9.54356 23.8818 9.52854C23.8746 9.51505 23.8664 9.50229 23.8586 9.48923C23.8497 9.47428 23.8412 9.45914 23.8315 9.44462C23.822 9.43052 23.8115 9.41721 23.8014 9.40366C23.792 9.39109 23.7832 9.37815 23.7732 9.36594C23.7549 9.34367 23.7354 9.32249 23.7153 9.30186C23.7124 9.29898 23.7101 9.29575 23.7072 9.29288L14.7072 0.292884C14.6143 0.200017 14.504 0.12635 14.3827 0.076089C14.2614 0.0258285 14.1313 -3.90097e-05 14 -3.90212e-05C13.8687 -3.90327e-05 13.7386 0.0258284 13.6173 0.076089C13.496 0.126349 13.3857 0.200017 13.2928 0.292884Z" fill="white"/>
</svg>
