<svg width="64" height="64" viewBox="0 0 64 64" fill="none" xmlns="http://www.w3.org/2000/svg">
<rect width="64" height="8" rx="4" fill="#77C043"/>
<g clip-path="url(#clip0_0_1)">
<path d="M31.9992 20.8C32.441 20.8 32.7992 20.4418 32.7992 20V16.8C32.7992 16.3582 32.441 16 31.9992 16C31.5574 16 31.1992 16.3582 31.1992 16.8V20C31.1992 20.4418 31.5573 20.8 31.9992 20.8Z" fill="#FFFFFF"/>
<path d="M22.1061 19.6655L23.7061 22.4359C23.9245 22.82 24.4129 22.9543 24.797 22.7359C25.1811 22.5175 25.3154 22.0291 25.097 21.645C25.0953 21.6419 25.0935 21.6389 25.0917 21.6358L23.4917 18.8654C23.2733 18.4813 22.7849 18.347 22.4008 18.5654C22.0167 18.7838 21.8824 19.2722 22.1008 19.6563C22.1025 19.6594 22.1043 19.6625 22.1061 19.6655Z" fill="#FFFFFF"/>
<path d="M15.6573 26.6875C15.6603 26.6893 15.6634 26.691 15.6665 26.6928L18.4368 28.2928C18.818 28.5162 19.3081 28.3884 19.5315 28.0072C19.7549 27.626 19.6271 27.1359 19.2459 26.9125C19.2429 26.9107 19.2398 26.909 19.2367 26.9072L16.4664 25.3072C16.0852 25.0838 15.5951 25.2116 15.3717 25.5928C15.1483 25.9739 15.2761 26.4641 15.6573 26.6875Z" fill="#FFFFFF"/>
<path d="M17.6007 35.1999C17.6007 34.7581 17.2425 34.3999 16.8007 34.3999H13.6008C13.159 34.3999 12.8008 34.7581 12.8008 35.1999C12.8008 35.6417 13.159 35.9999 13.6008 35.9999H16.8007C17.2425 35.9999 17.6007 35.6417 17.6007 35.1999Z" fill="#FFFFFF"/>
<path d="M18.4462 42.1014C18.4431 42.1032 18.44 42.105 18.4369 42.1068L15.6665 43.7068C15.2824 43.9251 15.148 44.4135 15.3663 44.7976C15.5846 45.1817 16.073 45.3161 16.4571 45.0978C16.4602 45.096 16.4633 45.0942 16.4664 45.0924L19.2368 43.4924C19.6209 43.2741 19.7553 42.7857 19.537 42.4016C19.3187 42.0175 18.8303 41.8831 18.4462 42.1014Z" fill="#FFFFFF"/>
<path d="M48.3439 43.7122C48.3408 43.7104 48.3377 43.7086 48.3346 43.7068L45.5642 42.1069C45.1831 41.8834 44.6929 42.0112 44.4694 42.3923C44.2459 42.7733 44.3737 43.2635 44.7548 43.487C44.7579 43.4888 44.761 43.4906 44.7641 43.4924L47.5345 45.0924C47.9156 45.3159 48.4058 45.1881 48.6293 44.807C48.8528 44.4258 48.725 43.9357 48.3439 43.7122Z" fill="#FFFFFF"/>
<path d="M50.4023 34.3999H47.2023C46.7605 34.3999 46.4023 34.7581 46.4023 35.1999C46.4023 35.6417 46.7605 35.9999 47.2023 35.9999H50.4023C50.8441 35.9999 51.2023 35.6417 51.2023 35.1999C51.2023 34.7581 50.8441 34.3999 50.4023 34.3999Z" fill="#FFFFFF"/>
<path d="M45.1635 28.3998C45.3039 28.3998 45.4419 28.3628 45.5635 28.2926L48.3338 26.6926C48.7179 26.4742 48.8522 25.9858 48.6338 25.6017C48.4154 25.2176 47.9271 25.0833 47.543 25.3017C47.5399 25.3034 47.5369 25.3052 47.5338 25.307L44.7634 26.907C44.3808 27.1279 44.2497 27.6172 44.4706 27.9998C44.6136 28.2473 44.8777 28.3998 45.1635 28.3998Z" fill="#FFFFFF"/>
<path d="M39.2003 22.729C39.2006 22.7292 39.2009 22.7294 39.2012 22.7295C39.5839 22.9502 40.0732 22.8189 40.2939 22.4361C40.2939 22.436 40.294 22.4359 40.294 22.4359L41.894 19.6655C42.1175 19.2844 41.9897 18.7942 41.6086 18.5707C41.2275 18.3472 40.7373 18.475 40.5138 18.8561C40.512 18.8592 40.5102 18.8623 40.5084 18.8654L38.9084 21.6358C38.6872 22.0183 38.8179 22.5077 39.2003 22.729Z" fill="#FFFFFF"/>
<path d="M33.6007 47.9996C34.0425 47.9996 34.4007 47.6414 34.4007 47.1996V38.3997H36.0007C37.7679 38.3997 39.2006 36.967 39.2006 35.1997C39.2006 33.4324 37.7679 31.9998 36.0007 31.9998C34.2334 31.9998 32.8007 33.4324 32.8007 35.1997V36.7997H31.2007V35.1997C31.2007 33.4324 29.768 31.9998 28.0007 31.9998C26.2335 31.9998 24.8008 33.4324 24.8008 35.1997C24.8008 36.967 26.2335 38.3997 28.0007 38.3997H29.6007V47.1996C29.6007 47.6414 29.9589 47.9996 30.4007 47.9996C30.8425 47.9996 31.2007 47.6414 31.2007 47.1996V38.3997H32.8007V47.1996C32.8007 47.6414 33.1588 47.9996 33.6007 47.9996ZM34.4007 35.1997C34.4007 34.316 35.117 33.5997 36.0007 33.5997C36.8843 33.5997 37.6006 34.316 37.6006 35.1997C37.6006 36.0834 36.8843 36.7997 36.0007 36.7997H34.4007V35.1997ZM29.6007 36.7997H28.0007C27.1171 36.7997 26.4008 36.0834 26.4008 35.1997C26.4008 34.316 27.1171 33.5997 28.0007 33.5997C28.8844 33.5997 29.6007 34.316 29.6007 35.1997V36.7997Z" fill="#FFFFFF"/>
<path d="M32.6212 22.4152C25.5602 22.076 19.561 27.525 19.2218 34.586C19.0275 38.6292 20.7572 42.526 23.8861 45.0941C24.45 45.5358 24.7855 46.2076 24.7997 46.9237V48.7997C24.8039 49.8131 25.4442 50.7147 26.3996 51.0525V51.9997C26.4017 52.5919 26.6241 53.1623 27.0236 53.5996C26.1916 54.504 26.1916 55.8952 27.0236 56.7996C26.1342 57.7746 26.2036 59.286 27.1786 60.1754C27.6215 60.5794 28.2001 60.8022 28.7996 60.7996C29.2302 60.8109 29.5885 60.4709 29.5997 60.0403C29.6041 59.8723 29.5541 59.7073 29.4572 59.57C29.4319 59.5211 29.4019 59.4747 29.3676 59.4316C29.3018 59.3714 29.2267 59.3222 29.1452 59.286C29.122 59.274 29.0988 59.2644 29.0748 59.2548C28.9938 59.2253 28.9089 59.2083 28.8228 59.2044C28.8148 59.2044 28.8076 59.1996 28.7996 59.1996C28.3578 59.1996 27.9996 58.8414 27.9996 58.3996C27.9996 57.9578 28.3578 57.5996 28.7996 57.5996H31.9996C32.4414 57.5996 32.7996 57.2414 32.7996 56.7996C32.7996 56.3578 32.4414 55.9996 31.9996 55.9996H28.7996C28.3578 55.9996 27.9996 55.6414 27.9996 55.1996C27.9996 54.7578 28.3578 54.3996 28.7996 54.3996H31.9996C32.4414 54.3996 32.7996 54.0414 32.7996 53.5996C32.7996 53.1578 32.4414 52.7996 31.9996 52.7996H28.7996C28.3578 52.7996 27.9996 52.4415 27.9996 51.9997V51.1997H31.9996C32.4414 51.1997 32.7996 50.8415 32.7996 50.3997C32.7996 49.9579 32.4414 49.5997 31.9996 49.5997H27.1996C26.7578 49.5997 26.3996 49.2415 26.3996 48.7997V46.9237C26.3865 45.7275 25.8356 44.6007 24.8997 43.8557C20.1209 39.9284 19.4308 32.8707 23.3582 28.0919C25.6048 25.3583 29.0109 23.8471 32.5452 24.0159C38.4558 24.3675 43.0987 29.2116 43.1995 35.1318C43.2282 38.537 41.6971 41.7681 39.0435 43.9021C38.1145 44.6673 37.5833 45.813 37.5995 47.0165V48.7997C37.5995 49.2415 37.2413 49.5997 36.7995 49.5997H34.3996C33.9578 49.5997 33.5996 49.9579 33.5996 50.3997C33.5996 50.8415 33.9578 51.1997 34.3996 51.1997H35.9995V51.9997C35.9995 52.4415 35.6413 52.7996 35.1996 52.7996H34.3996C33.9578 52.7996 33.5996 53.1578 33.5996 53.5996C33.5996 54.0414 33.9578 54.3996 34.3996 54.3996H35.1996C35.6413 54.3996 35.9995 54.7578 35.9995 55.1996C35.9995 55.6414 35.6413 55.9996 35.1996 55.9996H34.3996C33.9578 55.9996 33.5996 56.3578 33.5996 56.7996C33.5996 57.2414 33.9578 57.5996 34.3996 57.5996H35.1996C35.6413 57.5996 35.9995 57.9578 35.9995 58.3996C35.9995 58.8414 35.6413 59.1996 35.1996 59.1996H31.1996C30.7578 59.1996 30.3996 59.5578 30.3996 59.9996C30.3996 60.4414 30.7578 60.7996 31.1996 60.7996H34.2628C33.8211 62.0493 32.4499 62.7042 31.2002 62.2626C30.8176 62.1273 30.4756 61.8973 30.206 61.594C29.9122 61.264 29.4064 61.2346 29.0764 61.5284C28.7464 61.8222 28.717 62.3279 29.0108 62.6579C30.4739 64.3066 32.9965 64.4571 34.6452 62.9941C35.3262 62.3898 35.78 61.571 35.9315 60.6732C37.1844 60.2816 37.8826 58.9485 37.4911 57.6956C37.3871 57.3627 37.211 57.0568 36.9755 56.7996C37.8075 55.8952 37.8075 54.504 36.9755 53.5996C37.375 53.1623 37.5974 52.5919 37.5995 51.9997V51.0525C38.555 50.7147 39.1953 49.8131 39.1995 48.7997V47.0165C39.1888 46.2978 39.5002 45.6119 40.0483 45.1469C43.0827 42.7075 44.8333 39.0131 44.7995 35.1198C44.6839 28.3531 39.3769 22.8169 32.6212 22.4152Z" fill="#FFFFFF"/>
</g>
<defs>
<clipPath id="clip0_0_1">
<rect width="48" height="48" fill="white" transform="translate(8 16)"/>
</clipPath>
</defs>
</svg>