<svg width="110" height="49" viewBox="0 0 110 49" fill="none" xmlns="http://www.w3.org/2000/svg">
<path d="M41.9475 8.12959H59.0325L54.961 0.0136719H37.7812L41.9475 8.12959Z" fill="#78B948"/>
<path d="M48.248 20.4115H62.083L57.9528 12.1873H44.0186C44.1946 12.5213 48.248 20.407 48.248 20.407" fill="#78B948"/>
<path d="M33.3079 0L17.0625 32.4998L25.7562 32.5043L33.3666 17.3558L33.3756 17.3377L33.3846 17.3152L33.3936 17.3377L41.0311 32.5269L49.5803 32.5359L33.3079 0Z" fill="#575A5C"/>
<path d="M70.5381 31.051L67.2566 24.5149H50.3477C51.9095 27.5121 53.4035 30.4145 54.5049 32.536H71.2829L71.0663 32.0846L70.5381 31.051Z" fill="#78B948"/>
<path d="M92.2539 20.4297C91.9369 18.7425 91.2013 17.1619 90.1145 15.833C89.0277 14.5041 87.6245 13.4694 86.0338 12.8239C86.079 12.6117 86.1286 12.3996 86.1647 12.1874C86.2906 11.5543 86.3526 10.9101 86.3498 10.2645C86.3498 9.54562 86.2757 8.82864 86.1286 8.12495C85.666 5.92372 84.4922 3.93575 82.7882 2.46749C81.0842 0.999222 78.9446 0.132175 76.6991 0C76.496 0 59.5059 0 59.5059 0L63.5683 8.12495H75.8867C76.289 8.20725 76.6579 8.40675 76.9471 8.69832C77.2362 8.98989 77.4327 9.3605 77.5116 9.76348C77.5328 9.89338 77.5449 10.0246 77.5478 10.1562C77.5482 10.5951 77.4095 11.023 77.1516 11.3782C76.8937 11.7334 76.5299 11.9977 76.1123 12.1333L75.9679 12.1784H71.4089L75.5391 20.4026H81.9984C82.4651 20.4735 82.8943 20.6993 83.2172 21.0436C83.4754 21.326 83.6504 21.6744 83.7227 22.0502C83.7227 22.0502 83.7227 22.0773 83.7227 22.0953C83.7442 22.2023 83.7548 22.3112 83.7543 22.4203C83.7535 22.5081 83.746 22.5956 83.7317 22.6821C83.6851 23.0535 83.5388 23.4053 83.3083 23.7001C83.0779 23.995 82.7718 24.2219 82.4227 24.3568C82.2899 24.4137 82.1504 24.4531 82.0074 24.4741H71.8106L75.8325 32.5359H81.4477C81.687 32.5359 84.7067 32.4772 86.6206 31.5474H86.6522C87.1439 31.2989 87.6162 31.0138 88.065 30.6942C90.1542 29.2215 91.6227 27.026 92.1862 24.5328C92.3178 23.9209 92.3948 23.2986 92.4164 22.6731V22.5783C92.4213 22.5469 92.4213 22.5149 92.4164 22.4835V22.312C92.4172 21.6747 92.3597 21.0386 92.2449 20.4117" fill="#575A5C"/>
<path d="M1.71075 43.0802C1.66561 43.9108 1.62048 44.4841 1.57082 44.8C1.53349 45.3682 1.31159 45.9087 0.938883 46.3393C0.732032 46.4869 0.478551 46.5543 0.225693 46.5288H0.0767356L0 46.4927V48.0455C0.300924 48.0726 0.562728 48.0861 0.785412 48.0861C1.03378 48.0997 1.28226 48.0618 1.51529 47.9748C1.74831 47.8878 1.96085 47.7536 2.13957 47.5806C2.46879 47.2374 2.71845 46.8259 2.87081 46.3754C3.15414 45.442 3.312 44.4751 3.34026 43.5C3.34026 43.1389 3.37637 42.8861 3.38539 42.7327L3.42602 41.8299H5.75066V48.032H7.51106V40.5435H1.80554C1.78297 41.6313 1.76041 42.4754 1.72429 43.0802" fill="#575A5C"/>
<path d="M14.7834 43.9334C14.1545 43.5307 13.4104 43.3467 12.6664 43.4098H11.0233V40.5435H9.25391V48.0545H12.6393C13.3962 48.0893 14.141 47.8559 14.7428 47.3955C14.9762 47.171 15.1627 46.9022 15.2913 46.605C15.4199 46.3077 15.488 45.9878 15.4918 45.6639C15.4956 45.34 15.4349 45.0186 15.3133 44.7184C15.1917 44.4182 15.0115 44.1452 14.7834 43.9153V43.9334ZM13.348 46.4927C13.0612 46.7257 12.6963 46.8403 12.3278 46.8132H11.0233V44.6601H12.3278C12.5233 44.64 12.7209 44.6596 12.9086 44.7178C13.0963 44.776 13.2703 44.8715 13.4202 44.9986C13.5072 45.0992 13.5735 45.216 13.6154 45.3422C13.6572 45.4685 13.6737 45.6018 13.6639 45.7344C13.6695 45.8742 13.644 46.0134 13.5894 46.1422C13.5348 46.271 13.4523 46.386 13.348 46.4792" fill="#575A5C"/>
<path d="M21.4132 44.0055V43.834C21.7454 43.697 22.0319 43.4685 22.2392 43.175C22.4217 42.8996 22.5161 42.5753 22.5101 42.2451C22.5236 41.966 22.4552 41.6891 22.3132 41.4485C22.1713 41.2078 21.9619 41.014 21.7111 40.891C21.0342 40.6304 20.3089 40.5196 19.5851 40.566H16.7549V48.077H19.9462C20.752 48.1267 21.5521 47.9128 22.2257 47.4677C22.4852 47.274 22.6934 47.0197 22.8318 46.7269C22.9703 46.4342 23.035 46.112 23.0201 45.7885C23.0404 45.3583 22.895 44.9367 22.6139 44.6104C22.293 44.287 21.8769 44.075 21.4267 44.0055H21.4132ZM18.5063 41.7757H18.7726H19.6754C20.1674 41.7757 20.4743 41.9291 20.6052 42.1955C20.6743 42.3264 20.7114 42.4718 20.7135 42.6198C20.7157 42.7841 20.6834 42.9471 20.6187 43.0982C20.5409 43.2552 20.4073 43.3775 20.2441 43.4413C19.8108 43.56 19.3606 43.6042 18.9125 43.5722H18.5063V41.7757ZM21.043 46.2895C20.9211 46.4741 20.7499 46.621 20.549 46.7135C20.348 46.806 20.1251 46.8405 19.9056 46.8131H18.7365H18.5063V44.7277H19.8604C20.0798 44.7248 20.2985 44.7521 20.5104 44.809C20.7167 44.8547 20.9004 44.9713 21.0295 45.1385C21.1256 45.3143 21.1781 45.5105 21.1829 45.7107C21.1876 45.911 21.1443 46.1094 21.0566 46.2895" fill="#575A5C"/>
<path d="M23.9648 41.7306H25.1926V46.8719H23.9648V48.0545H28.1853V46.8719H26.9575V41.7306H28.1853V40.5435H23.9648V41.7306Z" fill="#575A5C"/>
<path d="M34.3046 44.0055V43.834C34.6368 43.6971 34.9233 43.4685 35.1306 43.175C35.313 42.8996 35.4075 42.5754 35.4014 42.2451C35.415 41.9661 35.3466 41.6891 35.2046 41.4485C35.0626 41.2078 34.8533 41.014 34.6025 40.891C33.9343 40.626 33.217 40.5074 32.499 40.5434H29.6553V48.0545H32.8466C33.6449 48.0998 34.4365 47.8861 35.1035 47.4451C35.3573 47.2522 35.5609 47.0008 35.6968 46.7124C35.8328 46.424 35.8971 46.1071 35.8844 45.7885C35.9047 45.3583 35.7593 44.9367 35.4782 44.6104C35.1609 44.2896 34.7499 44.0778 34.3046 44.0055ZM31.4021 41.7757H31.6685H32.5712C33.0632 41.7757 33.3702 41.9292 33.5011 42.1955C33.5701 42.3264 33.6073 42.4718 33.6094 42.6198C33.6115 42.7841 33.5793 42.9471 33.5146 43.0982C33.4379 43.256 33.3039 43.3787 33.14 43.4413C32.6996 43.5629 32.2414 43.6072 31.7858 43.5722H31.3931L31.4021 41.7757ZM33.9389 46.2895C33.8173 46.4745 33.6463 46.6217 33.4452 46.7143C33.2441 46.8068 33.021 46.8411 32.8014 46.8132H31.6323H31.4021V44.7277H32.7563C32.9757 44.7248 33.1944 44.7521 33.4063 44.809C33.6125 44.8547 33.7962 44.9713 33.9254 45.1385C34.0214 45.3143 34.074 45.5105 34.0787 45.7107C34.0834 45.911 34.0401 46.1095 33.9525 46.2895" fill="#575A5C"/>
<path d="M37.2002 48.0545H42.4634V46.7455H38.9561V44.6646H42.2106V43.3601H38.9561V41.8525H42.4634V40.5435H37.2002V48.0545Z" fill="#575A5C"/>
<path d="M48.7445 43.3601H45.7112V40.5435H43.9463V48.0545H45.7112V44.6646H48.7445V48.0545H50.5049V40.5435H48.7445V43.3601Z" fill="#575A5C"/>
<path d="M52.2578 48.0545H57.5165V46.7455H54.0137V44.6646H57.2682V43.3601H54.0137V41.8525H57.5165V40.5435H52.2578V48.0545Z" fill="#575A5C"/>
<path d="M64.1332 41.0355C63.5195 40.6749 62.8128 40.5037 62.102 40.5435H59.001V48.0546H60.7659V45.5494H62.0569C62.4843 45.5675 62.9109 45.4967 63.3095 45.3413C63.7081 45.1859 64.0701 44.9493 64.3725 44.6466C64.5935 44.4108 64.7653 44.1332 64.8777 43.8301C64.9901 43.5271 65.0408 43.2046 65.027 42.8817C65.0501 42.522 64.9789 42.1625 64.8206 41.8388C64.6623 41.515 64.4223 41.2381 64.1242 41.0355H64.1332ZM62.8062 43.9515C62.3855 44.2167 61.8879 44.3327 61.3933 44.281H60.7569V41.8029H61.1767C61.6442 41.7766 62.1128 41.83 62.5624 41.9608C62.759 42.0305 62.9272 42.1627 63.0414 42.3372C63.1555 42.5117 63.2093 42.7188 63.1943 42.9268C63.2106 43.1154 63.1846 43.3052 63.1182 43.4825C63.0518 43.6597 62.9468 43.8199 62.8107 43.9515" fill="#575A5C"/>
<path d="M66.2451 48.0545H68.0145V41.8525H71.4947V40.5435H66.2451V48.0545Z" fill="#575A5C"/>
<path d="M75.8739 40.39C75.3636 40.3608 74.853 40.439 74.3748 40.6193C73.8967 40.7997 73.4617 41.0783 73.0978 41.4372C72.4461 42.2478 72.0908 43.2566 72.0908 44.2967C72.0908 45.3368 72.4461 46.3457 73.0978 47.1563C73.8631 47.8371 74.8518 48.2132 75.8761 48.2132C76.9004 48.2132 77.8891 47.8371 78.6544 47.1563C79.3046 46.345 79.6588 45.3364 79.6588 44.2967C79.6588 43.2571 79.3046 42.2485 78.6544 41.4372C78.2906 41.0783 77.8555 40.7997 77.3774 40.6193C76.8992 40.439 76.3886 40.3608 75.8784 40.39H75.8739ZM77.2325 46.3077C77.0631 46.4998 76.8547 46.6536 76.6212 46.759C76.3878 46.8644 76.1345 46.9189 75.8784 46.9189C75.6222 46.9189 75.369 46.8644 75.1355 46.759C74.902 46.6536 74.6936 46.4998 74.5242 46.3077C74.0999 45.7257 73.8938 45.0131 73.9419 44.2945C73.8849 43.5666 74.0951 42.8428 74.5332 42.2587C74.7001 42.064 74.9082 41.9087 75.1424 41.8041C75.3765 41.6995 75.631 41.6482 75.8874 41.6539C76.1453 41.6473 76.4012 41.6995 76.6359 41.8067C76.8705 41.9138 77.0777 42.0731 77.2415 42.2723C77.6702 42.854 77.8782 43.5691 77.8284 44.29C77.8721 45.006 77.6681 45.7153 77.2506 46.2986" fill="#575A5C"/>
<path d="M86.5668 44.2585C86.3636 44.1827 86.1535 44.1268 85.9394 44.0915V43.8658C86.3614 43.7814 86.7456 43.5648 87.0363 43.2474C87.2977 42.9512 87.4393 42.5681 87.4335 42.1731C87.4335 40.9905 86.4269 40.3992 84.4228 40.3992C83.4989 40.4028 82.5826 40.5662 81.7144 40.8822V42.3401H81.7957C82.2832 42.1099 82.5901 41.97 82.7256 41.9203C83.1702 41.7589 83.6384 41.672 84.1113 41.6631C85.1044 41.6631 85.6009 41.9384 85.6009 42.4846C85.6103 42.6217 85.587 42.7592 85.5329 42.8855C85.4787 43.0119 85.3953 43.1236 85.2894 43.2113C84.9522 43.4065 84.5624 43.4917 84.1745 43.4551H82.9196V44.6512H84.2106C84.4355 44.6491 84.6602 44.6627 84.8832 44.6919C85.0497 44.6982 85.2118 44.7477 85.3534 44.8355C85.4951 44.9234 85.6115 45.0465 85.6912 45.1929C85.7596 45.3587 85.7919 45.5372 85.786 45.7165C85.7919 45.9057 85.7458 46.0928 85.6527 46.2576C85.5595 46.4224 85.423 46.5584 85.2578 46.6509C84.8591 46.8647 84.4097 46.9661 83.9578 46.9443C83.4679 46.9274 82.9849 46.8235 82.5315 46.6373C82.1909 46.4964 81.8606 46.332 81.5429 46.1453H81.4707V47.7297C82.3388 48.0426 83.2564 48.1955 84.179 48.1811C85.0964 48.2367 86.0091 48.0133 86.7971 47.5401C87.0732 47.3523 87.2966 47.0968 87.4459 46.7981C87.5953 46.4994 87.6656 46.1675 87.6502 45.8339C87.6604 45.5685 87.6095 45.3044 87.5012 45.062C87.3133 44.6851 86.9913 44.3921 86.5984 44.2405" fill="#575A5C"/>
<path d="M94.524 43.9334C93.8951 43.5307 93.151 43.3467 92.407 43.4098H90.7549V41.8525H94.6639V40.5435H88.999V48.0545H92.3754C93.1316 48.0955 93.878 47.8686 94.4834 47.4136C94.7168 47.189 94.9033 46.9203 95.0319 46.623C95.1605 46.3257 95.2287 46.0058 95.2324 45.682C95.2362 45.3581 95.1755 45.0367 95.0539 44.7365C94.9323 44.4363 94.7521 44.1633 94.524 43.9334ZM93.0931 46.4927C92.8047 46.726 92.4383 46.8406 92.0684 46.8132H90.7549V44.6601H92.082C92.2782 44.6396 92.4765 44.6591 92.665 44.7173C92.8535 44.7754 93.0283 44.8711 93.1789 44.9986C93.3513 45.2034 93.4371 45.4674 93.4181 45.7344C93.4233 45.8737 93.3981 46.0125 93.3443 46.1411C93.2905 46.2697 93.2094 46.385 93.1066 46.4792" fill="#575A5C"/>
<path d="M99.4866 44.308L97.5546 40.5434H95.6543L98.6515 46.2038C98.606 46.2911 98.5421 46.3674 98.4641 46.4274C98.3862 46.4874 98.2961 46.5297 98.2001 46.5514C97.9266 46.6255 97.6437 46.6589 97.3605 46.6507C97.0568 46.6569 96.7536 46.625 96.4578 46.5559V48.059L97.013 48.0906C97.338 48.0906 97.6133 48.0906 97.848 48.0906C98.2781 48.1022 98.7053 48.0173 99.0984 47.8424C99.6224 47.5653 100.027 47.1061 100.236 46.5514L102.913 40.5254H101.107L99.4866 44.308Z" fill="#575A5C"/>
<path d="M103.033 40.5435V41.8525H105.376V48.0545H107.145V41.8525H109.488V40.5435H103.033Z" fill="#575A5C"/>
</svg>
