<svg width="110" height="49" viewBox="0 0 110 49" fill="none" xmlns="http://www.w3.org/2000/svg">
<path d="M1.71075 43.0798C1.66561 43.9103 1.62048 44.4836 1.57082 44.7995C1.53349 45.3678 1.31159 45.9082 0.938883 46.3388C0.732032 46.4864 0.478551 46.5538 0.225693 46.5283H0.0767356L0 46.4922V48.045C0.300924 48.0721 0.562728 48.0856 0.785412 48.0856C1.03378 48.0992 1.28226 48.0613 1.51529 47.9743C1.74831 47.8873 1.96085 47.7531 2.13957 47.5801C2.46879 47.2369 2.71845 46.8254 2.87081 46.3749C3.15414 45.4415 3.312 44.4746 3.34026 43.4995C3.34026 43.1384 3.37637 42.8857 3.38539 42.7322L3.42602 41.8294H5.75066V48.0315H7.51106V40.543H1.80554C1.78297 41.6308 1.76041 42.4749 1.72429 43.0798" fill="#EBEFF2"/>
<path d="M14.7834 43.9329C14.1545 43.5302 13.4104 43.3462 12.6664 43.4093H11.0233V40.543H9.25391V48.054H12.6393C13.3962 48.0888 14.141 47.8554 14.7428 47.395C14.9762 47.1705 15.1627 46.9018 15.2913 46.6045C15.4199 46.3072 15.488 45.9873 15.4918 45.6634C15.4956 45.3395 15.4349 45.0181 15.3133 44.7179C15.1917 44.4177 15.0115 44.1447 14.7834 43.9148V43.9329ZM13.348 46.4922C13.0612 46.7252 12.6963 46.8399 12.3278 46.8127H11.0233V44.6596H12.3278C12.5233 44.6395 12.7209 44.6591 12.9086 44.7173C13.0963 44.7755 13.2703 44.871 13.4202 44.9981C13.5072 45.0987 13.5735 45.2155 13.6154 45.3417C13.6572 45.468 13.6737 45.6013 13.6639 45.7339C13.6695 45.8737 13.644 46.0129 13.5894 46.1417C13.5348 46.2705 13.4523 46.3856 13.348 46.4787" fill="#EBEFF2"/>
<path d="M21.4132 44.0045V43.833C21.7454 43.6961 22.0319 43.4675 22.2392 43.174C22.4217 42.8987 22.5161 42.5744 22.5101 42.2441C22.5236 41.9651 22.4552 41.6881 22.3132 41.4475C22.1713 41.2069 21.9619 41.013 21.7111 40.89C21.0342 40.6294 20.3089 40.5186 19.5851 40.565H16.7549V48.076H19.9462C20.752 48.1257 21.5521 47.9118 22.2257 47.4667C22.4852 47.273 22.6934 47.0187 22.8318 46.726C22.9703 46.4332 23.035 46.111 23.0201 45.7875C23.0404 45.3573 22.895 44.9357 22.6139 44.6094C22.293 44.2861 21.8769 44.0741 21.4267 44.0045H21.4132ZM18.5063 41.7747H18.7726H19.6754C20.1674 41.7747 20.4743 41.9282 20.6052 42.1945C20.6743 42.3254 20.7114 42.4708 20.7135 42.6188C20.7157 42.7831 20.6834 42.9461 20.6187 43.0973C20.5409 43.2542 20.4073 43.3766 20.2441 43.4403C19.8108 43.559 19.3606 43.6033 18.9125 43.5712H18.5063V41.7747ZM21.043 46.2886C20.9211 46.4732 20.7499 46.62 20.549 46.7125C20.348 46.8051 20.1251 46.8396 19.9056 46.8122H18.7365H18.5063V44.7268H19.8604C20.0798 44.7238 20.2985 44.7511 20.5104 44.808C20.7167 44.8537 20.9004 44.9703 21.0295 45.1375C21.1256 45.3133 21.1781 45.5095 21.1829 45.7097C21.1876 45.91 21.1443 46.1085 21.0566 46.2886" fill="#EBEFF2"/>
<path d="M23.9648 41.7301H25.1926V46.8714H23.9648V48.054H28.1853V46.8714H26.9575V41.7301H28.1853V40.543H23.9648V41.7301Z" fill="#EBEFF2"/>
<path d="M34.3055 44.0075V43.836C34.6378 43.699 34.9242 43.4705 35.1316 43.1769C35.314 42.9016 35.4084 42.5773 35.4024 42.2471C35.416 41.968 35.3476 41.6911 35.2056 41.4504C35.0636 41.2098 34.8543 41.016 34.6034 40.8929C33.9352 40.6279 33.2179 40.5094 32.5 40.5454H29.6562V48.0564H32.8475C33.6459 48.1018 34.4375 47.8881 35.1045 47.447C35.3583 47.2541 35.5618 47.0028 35.6978 46.7144C35.8337 46.426 35.8981 46.109 35.8854 45.7905C35.9056 45.3602 35.7602 44.9386 35.4791 44.6123C35.1618 44.2915 34.7509 44.0797 34.3055 44.0075ZM31.4031 41.7776H31.6694H32.5722C33.0642 41.7776 33.3712 41.9311 33.5021 42.1974C33.5711 42.3283 33.6082 42.4737 33.6104 42.6217C33.6125 42.7861 33.5802 42.9491 33.5156 43.1002C33.4388 43.258 33.3049 43.3806 33.1409 43.4433C32.7005 43.5649 32.2424 43.6092 31.7868 43.5742H31.3941L31.4031 41.7776ZM33.9399 46.2915C33.8183 46.4765 33.6472 46.6236 33.4461 46.7162C33.2451 46.8088 33.022 46.843 32.8024 46.8151H31.6333H31.4031V44.7297H32.7573C32.9766 44.7267 33.1954 44.7541 33.4073 44.8109C33.6135 44.8567 33.7972 44.9733 33.9264 45.1405C34.0224 45.3162 34.075 45.5124 34.0797 45.7127C34.0844 45.9129 34.0411 46.1114 33.9534 46.2915" fill="#EBEFF2"/>
<path d="M37.2002 48.054H42.4634V46.745H38.9561V44.6641H42.2106V43.3596H38.9561V41.852H42.4634V40.543H37.2002V48.054Z" fill="#EBEFF2"/>
<path d="M48.7455 43.3596H45.7122V40.543H43.9473V48.054H45.7122V44.6641H48.7455V48.054H50.5059V40.543H48.7455V43.3596Z" fill="#EBEFF2"/>
<path d="M52.2578 48.054H57.5165V46.745H54.0137V44.6641H57.2682V43.3596H54.0137V41.852H57.5165V40.543H52.2578V48.054Z" fill="#EBEFF2"/>
<path d="M64.1332 41.0367C63.5195 40.6761 62.8128 40.5049 62.102 40.5447H59.001V48.0558H60.7659V45.5506H62.0569C62.4843 45.5688 62.9109 45.4979 63.3095 45.3425C63.7081 45.1871 64.0701 44.9505 64.3725 44.6478C64.5935 44.412 64.7653 44.1344 64.8777 43.8313C64.9901 43.5283 65.0408 43.2058 65.027 42.8829C65.0501 42.5232 64.9789 42.1638 64.8206 41.84C64.6623 41.5162 64.4223 41.2394 64.1242 41.0367H64.1332ZM62.8062 43.9527C62.3855 44.2179 61.8879 44.334 61.3933 44.2822H60.7569V41.8041H61.1767C61.6442 41.7778 62.1128 41.8312 62.5624 41.9621C62.759 42.0317 62.9272 42.1639 63.0414 42.3384C63.1555 42.5129 63.2093 42.72 63.1943 42.928C63.2106 43.1166 63.1846 43.3064 63.1182 43.4837C63.0518 43.6609 62.9468 43.8212 62.8107 43.9527" fill="#EBEFF2"/>
<path d="M66.2461 48.054H68.0155V41.852H71.4957V40.543H66.2461V48.054Z" fill="#EBEFF2"/>
<path d="M75.8748 40.3888C75.3646 40.3596 74.854 40.4378 74.3758 40.6181C73.8977 40.7985 73.4626 41.0771 73.0988 41.436C72.4471 42.2466 72.0918 43.2554 72.0918 44.2955C72.0918 45.3356 72.4471 46.3445 73.0988 47.155C73.8641 47.8359 74.8528 48.212 75.8771 48.212C76.9014 48.212 77.8901 47.8359 78.6554 47.155C79.3055 46.3438 79.6598 45.3352 79.6598 44.2955C79.6598 43.2559 79.3055 42.2472 78.6554 41.436C78.2915 41.0771 77.8565 40.7985 77.3784 40.6181C76.9002 40.4378 76.3896 40.3596 75.8793 40.3888H75.8748ZM77.2335 46.3064C77.0641 46.4986 76.8557 46.6524 76.6222 46.7578C76.3887 46.8632 76.1355 46.9177 75.8793 46.9177C75.6232 46.9177 75.37 46.8632 75.1365 46.7578C74.903 46.6524 74.6946 46.4986 74.5252 46.3064C74.1009 45.7245 73.8948 45.0118 73.9429 44.2932C73.8858 43.5653 74.0961 42.8416 74.5342 42.2575C74.7011 42.0628 74.9092 41.9075 75.1433 41.8029C75.3775 41.6983 75.632 41.647 75.8884 41.6526C76.1462 41.646 76.4022 41.6983 76.6369 41.8055C76.8715 41.9126 77.0786 42.0718 77.2425 42.271C77.6712 42.8527 77.8792 43.5679 77.8293 44.2887C77.8731 45.0048 77.6691 45.7141 77.2516 46.2974" fill="#EBEFF2"/>
<path d="M86.5668 44.2578C86.3636 44.182 86.1535 44.1261 85.9394 44.0908V43.8651C86.3614 43.7806 86.7456 43.564 87.0363 43.2467C87.2977 42.9504 87.4393 42.5674 87.4335 42.1724C87.4335 40.9898 86.4269 40.3984 84.4228 40.3984C83.4989 40.4021 82.5826 40.5655 81.7144 40.8814V42.3394H81.7957C82.2832 42.1092 82.5901 41.9693 82.7256 41.9196C83.1702 41.7582 83.6384 41.6712 84.1113 41.6623C85.1044 41.6623 85.6009 41.9377 85.6009 42.4838C85.6103 42.621 85.587 42.7584 85.5329 42.8848C85.4787 43.0112 85.3953 43.1228 85.2894 43.2106C84.9522 43.4058 84.5624 43.491 84.1745 43.4543H82.9196V44.6505H84.2106C84.4355 44.6484 84.6602 44.662 84.8832 44.6911C85.0497 44.6974 85.2118 44.7469 85.3534 44.8348C85.4951 44.9226 85.6115 45.0458 85.6912 45.1922C85.7596 45.358 85.7919 45.5365 85.786 45.7158C85.7919 45.9049 85.7458 46.0921 85.6527 46.2569C85.5595 46.4216 85.423 46.5577 85.2578 46.6501C84.8591 46.8639 84.4097 46.9654 83.9578 46.9435C83.4679 46.9267 82.9849 46.8227 82.5315 46.6366C82.1909 46.4957 81.8606 46.3313 81.5429 46.1446H81.4707V47.7289C82.3388 48.0419 83.2564 48.1948 84.179 48.1803C85.0964 48.236 86.0091 48.0125 86.7971 47.5394C87.0732 47.3515 87.2966 47.0961 87.4459 46.7974C87.5953 46.4987 87.6656 46.1667 87.6502 45.8331C87.6604 45.5678 87.6095 45.3037 87.5012 45.0613C87.3133 44.6844 86.9913 44.3914 86.5984 44.2397" fill="#EBEFF2"/>
<path d="M94.524 43.9329C93.8951 43.5302 93.151 43.3462 92.407 43.4093H90.7549V41.852H94.6639V40.543H88.999V48.054H92.3754C93.1316 48.095 93.878 47.8681 94.4834 47.4131C94.7168 47.1885 94.9033 46.9198 95.0319 46.6225C95.1605 46.3253 95.2287 46.0054 95.2324 45.6815C95.2362 45.3576 95.1755 45.0362 95.0539 44.736C94.9323 44.4358 94.7521 44.1628 94.524 43.9329ZM93.0931 46.4922C92.8047 46.7255 92.4383 46.8401 92.0684 46.8127H90.7549V44.6596H92.082C92.2782 44.6391 92.4765 44.6586 92.665 44.7168C92.8535 44.7749 93.0283 44.8707 93.1789 44.9981C93.3513 45.203 93.4371 45.4669 93.4181 45.7339C93.4233 45.8732 93.3981 46.012 93.3443 46.1406C93.2905 46.2692 93.2094 46.3846 93.1066 46.4787" fill="#EBEFF2"/>
<path d="M99.4866 44.31L97.5546 40.5454H95.6543L98.6515 46.2058C98.606 46.293 98.5421 46.3693 98.4641 46.4293C98.3862 46.4894 98.2961 46.5317 98.2001 46.5533C97.9266 46.6274 97.6437 46.6609 97.3605 46.6527C97.0568 46.6588 96.7536 46.627 96.4578 46.5579V48.061L97.013 48.0926C97.338 48.0926 97.6133 48.0926 97.848 48.0926C98.2781 48.1041 98.7053 48.0193 99.0984 47.8443C99.6224 47.5672 100.027 47.1081 100.236 46.5533L102.913 40.5273H101.107L99.4866 44.31Z" fill="#EBEFF2"/>
<path d="M103.033 40.543V41.852H105.376V48.054H107.145V41.852H109.488V40.543H103.033Z" fill="#EBEFF2"/>
<path d="M92.2539 20.4297C91.9369 18.7425 91.2013 17.1619 90.1145 15.833C89.0277 14.5041 87.6245 13.4694 86.0338 12.8239C86.079 12.6117 86.1286 12.3996 86.1647 12.1874C86.2906 11.5543 86.3526 10.9101 86.3498 10.2645C86.3498 9.54562 86.2757 8.82864 86.1286 8.12495C85.666 5.92372 84.4922 3.93575 82.7882 2.46749C81.0842 0.999222 78.9446 0.132175 76.6991 0C76.496 0 59.5059 0 59.5059 0L63.5683 8.12495H75.8867C76.289 8.20725 76.6579 8.40675 76.9471 8.69832C77.2362 8.98989 77.4327 9.3605 77.5116 9.76348C77.5328 9.89338 77.5449 10.0246 77.5478 10.1562C77.5482 10.5951 77.4095 11.023 77.1516 11.3782C76.8937 11.7334 76.5299 11.9977 76.1123 12.1333L75.9679 12.1784H71.4089L75.5391 20.4026H81.9984C82.4651 20.4735 82.8943 20.6993 83.2172 21.0436C83.4754 21.326 83.6504 21.6744 83.7227 22.0502C83.7227 22.0502 83.7227 22.0773 83.7227 22.0953C83.7442 22.2023 83.7548 22.3112 83.7543 22.4203C83.7535 22.5081 83.746 22.5956 83.7317 22.6821C83.6851 23.0535 83.5388 23.4053 83.3083 23.7001C83.0779 23.995 82.7718 24.2219 82.4227 24.3568C82.2899 24.4137 82.1504 24.4531 82.0074 24.4741H71.8106L75.8325 32.5359H81.4477C81.687 32.5359 84.7067 32.4772 86.6206 31.5474H86.6522C87.1439 31.2989 87.6162 31.0138 88.065 30.6942C90.1542 29.2215 91.6227 27.026 92.1862 24.5328C92.3178 23.9209 92.3948 23.2986 92.4164 22.6731V22.5783C92.4213 22.5469 92.4213 22.5149 92.4164 22.4835V22.312C92.4172 21.6747 92.3597 21.0386 92.2449 20.4117" fill="#EBEFF2"/>
<path d="M41.9475 8.12764H59.0325L54.961 0.0117188H37.7812L41.9475 8.12764Z" fill="#78B948"/>
<path d="M48.249 20.4118H62.084L57.9538 12.1875H44.0195C44.1956 12.5215 48.249 20.4072 48.249 20.4072" fill="#78B948"/>
<path d="M70.5381 31.0517L67.2566 24.5156H50.3477C51.9095 27.5128 53.4035 30.4152 54.5049 32.5368H71.2829L71.0663 32.0854L70.5381 31.0517Z" fill="#78B948"/>
<path d="M33.3079 0L17.0625 32.4998L25.7562 32.5043L33.3666 17.3558L33.3756 17.3377L33.3846 17.3152L33.3936 17.3377L41.0311 32.5269L49.5803 32.5359L33.3079 0Z" fill="#EBEFF2"/>
</svg>