<svg width="24" height="32" viewBox="0 0 24 32" fill="none" xmlns="http://www.w3.org/2000/svg">
<path d="M11.6804 0C5.23987 0 0 5.34272 0 11.9092C0 15.5831 1.8552 20.0414 5.51319 25.1598C7.16214 27.4661 8.97659 29.649 10.9421 31.6913C11.1355 31.886 11.3975 31.9969 11.6717 31.9999C11.9459 32.003 12.2103 31.898 12.408 31.7075C12.519 31.6 15.1636 29.0362 17.8463 25.341C21.5074 20.2971 23.3638 15.7781 23.3638 11.908C23.3614 5.34272 18.1215 0 11.6804 0Z" fill="#77C043"/>
<path d="M13.3242 17.4775V17.9059C13.3242 18.2468 13.0751 18.5304 12.751 18.5787L12.646 18.9679C12.589 19.179 12.3999 19.3269 12.1809 19.3269H11.1396C10.9206 19.3269 10.7315 19.179 10.6745 18.9679L10.5725 18.5787C10.2454 18.5274 9.99635 18.2468 9.99635 17.9029V17.4745C9.99635 17.2452 10.1794 17.0612 10.4074 17.0612H12.9131C13.1411 17.0642 13.3242 17.2483 13.3242 17.4775ZM15.2536 11.7033C15.2536 12.6778 14.8695 13.5617 14.2454 14.2103C13.7713 14.7051 13.4652 15.3356 13.3632 16.0083C13.3181 16.298 13.0691 16.5122 12.775 16.5122H10.5455C10.2544 16.5122 10.0023 16.301 9.96034 16.0114C9.85531 15.3386 9.54624 14.699 9.07213 14.2073C8.45998 13.5677 8.07889 12.6989 8.06988 11.7425C8.04888 9.73332 9.63926 8.10725 11.6377 8.09216C13.6332 8.07708 15.2536 9.70014 15.2536 11.7033ZM12.0668 9.51611C12.0668 9.29287 11.8868 9.10884 11.6617 9.10884C10.2334 9.10884 9.06912 10.2764 9.06912 11.7154C9.06912 11.9386 9.24917 12.1227 9.47422 12.1227C9.69628 12.1227 9.87932 11.9416 9.87932 11.7154C9.87932 10.7259 10.6805 9.92338 11.6617 9.92338C11.8868 9.92338 12.0668 9.74237 12.0668 9.51611ZM11.6617 6.90655C11.8838 6.90655 12.0668 6.72554 12.0668 6.49928V5.07231C12.0668 4.84907 11.8868 4.66504 11.6617 4.66504C11.4367 4.66504 11.2567 4.84605 11.2567 5.07231V6.49928C11.2567 6.72554 11.4397 6.90655 11.6617 6.90655ZM6.8936 11.7003C6.8936 11.4771 6.71356 11.293 6.4885 11.293H5.06916C4.84711 11.293 4.66406 11.474 4.66406 11.7003C4.66406 11.9235 4.84411 12.1076 5.06916 12.1076H6.4885C6.71356 12.1076 6.8936 11.9266 6.8936 11.7003ZM18.2543 11.293H16.835C16.6129 11.293 16.4299 11.474 16.4299 11.7003C16.4299 11.9235 16.6099 12.1076 16.835 12.1076H18.2543C18.4764 12.1076 18.6594 11.9266 18.6594 11.7003C18.6594 11.4771 18.4794 11.293 18.2543 11.293ZM7.7188 15.0912L6.71356 16.1019C6.55452 16.2618 6.55452 16.5182 6.71356 16.6781C6.79158 16.7565 6.8966 16.7957 6.99863 16.7957C7.10065 16.7957 7.20568 16.7565 7.28369 16.6781L8.28894 15.6674C8.44797 15.5075 8.44797 15.2511 8.28894 15.0912C8.1329 14.9313 7.87484 14.9313 7.7188 15.0912ZM15.3196 8.43005C15.4217 8.43005 15.5267 8.39083 15.6047 8.31239L16.6099 7.30175C16.769 7.14186 16.769 6.88543 16.6099 6.72554C16.4509 6.56565 16.1958 6.56565 16.0368 6.72554L15.0316 7.73618C14.8725 7.89607 14.8725 8.1525 15.0316 8.31239C15.1126 8.39083 15.2146 8.43005 15.3196 8.43005ZM7.7188 8.30938C7.79682 8.38781 7.90184 8.42703 8.00387 8.42703C8.10589 8.42703 8.21092 8.38781 8.28894 8.30938C8.44797 8.14948 8.44797 7.89305 8.28894 7.73316L7.28369 6.72252C7.12466 6.56263 6.86959 6.56263 6.71056 6.72252C6.55152 6.88241 6.55152 7.13884 6.71056 7.29874L7.7188 8.30938ZM15.6047 15.0912C15.4457 14.9313 15.1906 14.9313 15.0316 15.0912C14.8725 15.2511 14.8725 15.5075 15.0316 15.6674L16.0368 16.6781C16.1148 16.7565 16.2198 16.7957 16.3219 16.7957C16.4239 16.7957 16.5289 16.7565 16.6069 16.6781C16.766 16.5182 16.766 16.2618 16.6069 16.1019L15.6047 15.0912Z" fill="white"/>
</svg>
