<svg width="24" height="20" viewBox="0 0 24 20" fill="none" xmlns="http://www.w3.org/2000/svg">
<mask id="path-1-inside-1_3148_2529" fill="white">
<path d="M10.7072 0.292884C10.8946 0.480449 10.9999 0.734786 10.9999 0.999976C10.9999 1.26517 10.8946 1.5195 10.7072 1.70707L3.41418 8.99998L23 8.99998C23.2652 8.99998 23.5196 9.10533 23.7071 9.29287C23.8946 9.4804 24 9.73476 24 9.99998C24 10.2652 23.8946 10.5195 23.7071 10.7071C23.5196 10.8946 23.2652 11 23 11L3.41418 11L10.7072 18.2929C10.8947 18.4804 11 18.7348 11 19C11 19.2652 10.8946 19.5196 10.7071 19.7071C10.5195 19.8947 10.2652 20 9.99996 20C9.73473 20 9.48038 19.8946 9.29285 19.7071L0.292845 10.7071C0.28958 10.7038 0.286896 10.7002 0.283691 10.6969C0.263941 10.6767 0.24478 10.6559 0.226805 10.634C0.216765 10.6218 0.208007 10.6089 0.198638 10.5963C0.188513 10.5827 0.177978 10.5694 0.168513 10.5553C0.158778 10.5408 0.150326 10.5257 0.141414 10.5107C0.133632 10.4977 0.125423 10.4849 0.11819 10.4714C0.110164 10.4564 0.103328 10.4409 0.0960952 10.4256C0.0893452 10.4113 0.0822402 10.3973 0.0761677 10.3827C0.0700639 10.3679 0.0651205 10.3528 0.0597492 10.3377C0.054073 10.322 0.0480305 10.3064 0.0431467 10.2903C0.0386305 10.2753 0.035304 10.2601 0.031489 10.245C0.027339 10.2285 0.0227002 10.2121 0.019374 10.1953C0.0159252 10.1779 0.0138504 10.1603 0.0113479 10.1428C0.00924161 10.128 0.00643427 10.1136 0.00497302 10.0987C0.00173927 10.0658 -8.71367e-07 10.0329 -8.74249e-07 9.99998C-8.7713e-07 9.96702 0.00173926 9.93412 0.00497301 9.90128C0.006438 9.88639 0.00924534 9.87193 0.0113478 9.85716C0.0138478 9.83964 0.0159252 9.82206 0.019374 9.80461C0.0227002 9.78782 0.027339 9.77147 0.031489 9.75498C0.035304 9.73985 0.0386304 9.72465 0.0431467 9.70969C0.0480304 9.69358 0.0540729 9.67796 0.0597492 9.66221C0.0651242 9.64719 0.0700639 9.63206 0.0761676 9.61729C0.0822401 9.6027 0.0893501 9.58866 0.0960951 9.57438C0.103328 9.55906 0.110164 9.54356 0.11819 9.52854C0.125423 9.51505 0.133632 9.50229 0.141414 9.48923C0.150325 9.47428 0.158778 9.45914 0.168513 9.44462C0.177974 9.43052 0.188503 9.41721 0.198638 9.40366C0.208013 9.39109 0.216763 9.37815 0.226805 9.36594C0.245085 9.34367 0.264586 9.32249 0.284728 9.30186C0.287566 9.29898 0.289947 9.29575 0.292845 9.29288L9.29284 0.292884C9.38571 0.200017 9.49595 0.12635 9.61729 0.076089C9.73862 0.0258285 9.86867 -3.90097e-05 10 -3.90212e-05C10.1313 -3.90327e-05 10.2614 0.0258284 10.3827 0.076089C10.504 0.126349 10.6143 0.200017 10.7072 0.292884Z"/>
</mask>
<path d="M10.7072 0.292884C10.8946 0.480449 10.9999 0.734786 10.9999 0.999976C10.9999 1.26517 10.8946 1.5195 10.7072 1.70707L3.41418 8.99998L23 8.99998C23.2652 8.99998 23.5196 9.10533 23.7071 9.29287C23.8946 9.4804 24 9.73476 24 9.99998C24 10.2652 23.8946 10.5195 23.7071 10.7071C23.5196 10.8946 23.2652 11 23 11L3.41418 11L10.7072 18.2929C10.8947 18.4804 11 18.7348 11 19C11 19.2652 10.8946 19.5196 10.7071 19.7071C10.5195 19.8947 10.2652 20 9.99996 20C9.73473 20 9.48038 19.8946 9.29285 19.7071L0.292845 10.7071C0.28958 10.7038 0.286896 10.7002 0.283691 10.6969C0.263941 10.6767 0.24478 10.6559 0.226805 10.634C0.216765 10.6218 0.208007 10.6089 0.198638 10.5963C0.188513 10.5827 0.177978 10.5694 0.168513 10.5553C0.158778 10.5408 0.150326 10.5257 0.141414 10.5107C0.133632 10.4977 0.125423 10.4849 0.11819 10.4714C0.110164 10.4564 0.103328 10.4409 0.0960952 10.4256C0.0893452 10.4113 0.0822402 10.3973 0.0761677 10.3827C0.0700639 10.3679 0.0651205 10.3528 0.0597492 10.3377C0.054073 10.322 0.0480305 10.3064 0.0431467 10.2903C0.0386305 10.2753 0.035304 10.2601 0.031489 10.245C0.027339 10.2285 0.0227002 10.2121 0.019374 10.1953C0.0159252 10.1779 0.0138504 10.1603 0.0113479 10.1428C0.00924161 10.128 0.00643427 10.1136 0.00497302 10.0987C0.00173927 10.0658 -8.71367e-07 10.0329 -8.74249e-07 9.99998C-8.7713e-07 9.96702 0.00173926 9.93412 0.00497301 9.90128C0.006438 9.88639 0.00924534 9.87193 0.0113478 9.85716C0.0138478 9.83964 0.0159252 9.82206 0.019374 9.80461C0.0227002 9.78782 0.027339 9.77147 0.031489 9.75498C0.035304 9.73985 0.0386304 9.72465 0.0431467 9.70969C0.0480304 9.69358 0.0540729 9.67796 0.0597492 9.66221C0.0651242 9.64719 0.0700639 9.63206 0.0761676 9.61729C0.0822401 9.6027 0.0893501 9.58866 0.0960951 9.57438C0.103328 9.55906 0.110164 9.54356 0.11819 9.52854C0.125423 9.51505 0.133632 9.50229 0.141414 9.48923C0.150325 9.47428 0.158778 9.45914 0.168513 9.44462C0.177974 9.43052 0.188503 9.41721 0.198638 9.40366C0.208013 9.39109 0.216763 9.37815 0.226805 9.36594C0.245085 9.34367 0.264586 9.32249 0.284728 9.30186C0.287566 9.29898 0.289947 9.29575 0.292845 9.29288L9.29284 0.292884C9.38571 0.200017 9.49595 0.12635 9.61729 0.076089C9.73862 0.0258285 9.86867 -3.90097e-05 10 -3.90212e-05C10.1313 -3.90327e-05 10.2614 0.0258284 10.3827 0.076089C10.504 0.126349 10.6143 0.200017 10.7072 0.292884Z" fill="#77C043"/>
<path d="M10.9999 0.999976L11.1249 0.999976L10.9999 0.999976ZM10.7072 1.70707L10.7956 1.79543L10.7955 1.79546L10.7072 1.70707ZM3.41418 8.99998L3.41418 9.12498L3.11241 9.12498L3.3258 8.91159L3.41418 8.99998ZM3.41418 11L3.3258 11.0884L3.11241 10.875L3.41418 10.875L3.41418 11ZM10.7072 18.2929L10.7955 18.2045L10.7955 18.2045L10.7072 18.2929ZM9.29285 19.7071L9.38124 19.6187L9.38124 19.6187L9.29285 19.7071ZM0.292845 10.7071L0.380826 10.6183L0.381234 10.6187L0.292845 10.7071ZM0.283691 10.6969L0.373206 10.6097L0.373311 10.6098L0.283691 10.6969ZM0.226805 10.634L0.130273 10.7134L0.130263 10.7134L0.226805 10.634ZM0.198638 10.5963L0.298771 10.5215L0.29887 10.5216L0.198638 10.5963ZM0.168513 10.5553L0.0647308 10.625L0.0646747 10.6249L0.168513 10.5553ZM0.141414 10.5107L0.0340349 10.5747L0.0340314 10.5747L0.141414 10.5107ZM0.11819 10.4714L0.00802704 10.5305L0.00795402 10.5303L0.11819 10.4714ZM0.0960952 10.4256L0.20911 10.3722L0.20913 10.3722L0.0960952 10.4256ZM0.0761677 10.3827L-0.0392331 10.4307L-0.0393564 10.4304L0.0761677 10.3827ZM0.0597492 10.3377L0.177346 10.2954L0.177445 10.2956L0.0597492 10.3377ZM0.0431467 10.2903L-0.0764774 10.3265L-0.076515 10.3264L0.0431467 10.2903ZM0.031489 10.245L-0.0897203 10.2755L-0.0897262 10.2755L0.031489 10.245ZM0.019374 10.1953L-0.103243 10.2196L-0.103256 10.2196L0.019374 10.1953ZM0.0113479 10.1428L-0.112396 10.1605L-0.1124 10.1604L0.0113479 10.1428ZM0.00497302 10.0987L0.129371 10.0864L0.129375 10.0865L0.00497302 10.0987ZM0.00497301 9.90128L0.129373 9.91352L0.129371 9.91353L0.00497301 9.90128ZM0.0113478 9.85716L-0.112404 9.83954L-0.112398 9.8395L0.0113478 9.85716ZM0.019374 9.80461L-0.103256 9.78038L-0.103242 9.78031L0.019374 9.80461ZM0.031489 9.75498L-0.0897284 9.72446L-0.0897203 9.72443L0.031489 9.75498ZM0.0431467 9.70969L-0.0765151 9.67355L-0.076479 9.67344L0.0431467 9.70969ZM0.0597492 9.66221L0.177436 9.70434L0.177343 9.7046L0.0597492 9.66221ZM0.0761676 9.61729L-0.0393569 9.56955L-0.0392328 9.56925L0.0761676 9.61729ZM0.0960951 9.57438L0.20913 9.62775L0.209127 9.62775L0.0960951 9.57438ZM0.11819 9.52854L0.00795384 9.46961L0.00802703 9.46947L0.11819 9.52854ZM0.141414 9.48923L0.248794 9.55322L0.248789 9.55323L0.141414 9.48923ZM0.168513 9.44462L0.0646746 9.37503L0.064718 9.37496L0.168513 9.44462ZM0.198638 9.40366L0.298846 9.47839L0.298735 9.47853L0.198638 9.40366ZM0.226805 9.36594L0.323437 9.44524L0.323338 9.44536L0.226805 9.36594ZM0.284728 9.30186L0.195285 9.21453L0.19578 9.21403L0.284728 9.30186ZM0.292845 9.29288L0.381235 9.38127L0.380773 9.38173L0.292845 9.29288ZM9.29284 0.292884L9.38124 0.381271L9.38123 0.381272L9.29284 0.292884ZM10.7956 0.204518C11.0065 0.415523 11.1249 0.701644 11.1249 0.999976L10.8749 0.999976C10.8749 0.767926 10.7828 0.545375 10.6187 0.381249L10.7956 0.204518ZM11.1249 0.999976C11.1249 1.29831 11.0065 1.58443 10.7956 1.79543L10.6187 1.6187C10.7828 1.45458 10.8749 1.23203 10.8749 0.999976L11.1249 0.999976ZM10.7955 1.79546L3.50257 9.08837L3.3258 8.91159L10.6188 1.61868L10.7955 1.79546ZM3.41418 8.87498L23 8.87498L23 9.12498L3.41418 9.12498L3.41418 8.87498ZM23 8.87498C23.2984 8.87498 23.5845 8.9935 23.7955 9.20448L23.6187 9.38126C23.4546 9.21716 23.2321 9.12498 23 9.12498L23 8.87498ZM23.7955 9.20448C24.0065 9.41546 24.125 9.70161 24.125 9.99998L23.875 9.99998C23.875 9.76791 23.7828 9.54535 23.6187 9.38126L23.7955 9.20448ZM24.125 9.99998C24.125 10.2983 24.0065 10.5845 23.7955 10.7955L23.6187 10.6187C23.7828 10.4546 23.875 10.232 23.875 9.99998L24.125 9.99998ZM23.7955 10.7955C23.5845 11.0064 23.2984 11.125 23 11.125L23 10.875C23.2321 10.875 23.4546 10.7828 23.6187 10.6187L23.7955 10.7955ZM23 11.125L3.41418 11.125L3.41418 10.875L23 10.875L23 11.125ZM3.50257 10.9116L10.7955 18.2045L10.6188 18.3813L3.3258 11.0884L3.50257 10.9116ZM10.7955 18.2045C11.0065 18.4155 11.125 18.7017 11.125 19L10.875 19C10.875 18.7679 10.7829 18.5454 10.6188 18.3813L10.7955 18.2045ZM11.125 19C11.125 19.2984 11.0065 19.5845 10.7955 19.7955L10.6187 19.6187C10.7828 19.4546 10.875 19.2321 10.875 19L11.125 19ZM10.7955 19.7955C10.5845 20.0065 10.2983 20.125 9.99995 20.125L9.99996 19.875C10.232 19.875 10.4546 19.7828 10.6187 19.6187L10.7955 19.7955ZM9.99995 20.125C9.70158 20.125 9.41543 20.0064 9.20445 19.7955L9.38124 19.6187C9.54533 19.7828 9.76789 19.875 9.99996 19.875L9.99995 20.125ZM9.20446 19.7955L0.204457 10.7955L0.381234 10.6187L9.38124 19.6187L9.20446 19.7955ZM0.204866 10.7959C0.199326 10.7904 0.194926 10.7852 0.193574 10.7836C0.191319 10.781 0.192512 10.7825 0.19407 10.7841L0.373311 10.6098C0.378074 10.6147 0.382212 10.6196 0.382917 10.6204C0.384525 10.6223 0.383099 10.6205 0.380825 10.6183L0.204866 10.7959ZM0.194175 10.7842C0.172833 10.7623 0.151139 10.7388 0.130273 10.7134L0.323338 10.5546C0.338422 10.5729 0.355048 10.5911 0.373206 10.6097L0.194175 10.7842ZM0.130263 10.7134C0.117935 10.6984 0.103055 10.6772 0.0984066 10.671L0.29887 10.5216C0.312959 10.5405 0.315595 10.5452 0.323348 10.5546L0.130263 10.7134ZM0.0985052 10.6711C0.0911748 10.6613 0.0765386 10.6426 0.0647309 10.625L0.272295 10.4857C0.279417 10.4963 0.285851 10.5042 0.298771 10.5215L0.0985052 10.6711ZM0.0646747 10.6249C0.0524809 10.6067 0.0405629 10.5857 0.0340349 10.5747L0.248794 10.4467C0.260088 10.4657 0.265075 10.4749 0.272351 10.4857L0.0646747 10.6249ZM0.0340314 10.5747C0.0292277 10.5666 0.0169807 10.5472 0.00802713 10.5305L0.228354 10.4123C0.233865 10.4226 0.238036 10.4287 0.248797 10.4467L0.0340314 10.5747ZM0.00795402 10.5303C-0.00203014 10.5117 -0.0115344 10.4904 -0.0169397 10.4789L0.20913 10.3722C0.21819 10.3914 0.222358 10.4011 0.228427 10.4125L0.00795402 10.5303ZM-0.0169191 10.479C-0.021747 10.4688 -0.0316577 10.4489 -0.0392327 10.4307L0.191568 10.3346C0.196138 10.3456 0.200437 10.3538 0.20911 10.3722L-0.0169191 10.479ZM-0.0393564 10.4304C-0.0469946 10.4119 -0.0541398 10.3905 -0.0579468 10.3798L0.177445 10.2956C0.184381 10.315 0.187123 10.3239 0.191692 10.3349L-0.0393564 10.4304ZM-0.0578468 10.3801C-0.062221 10.368 -0.0703486 10.3467 -0.0764774 10.3265L0.162771 10.254C0.166409 10.266 0.170367 10.276 0.177345 10.2954L-0.0578468 10.3801ZM-0.076515 10.3264C-0.0821322 10.3078 -0.0871965 10.2855 -0.0897203 10.2755L0.152698 10.2144C0.157805 10.2347 0.159393 10.2428 0.162808 10.2541L-0.076515 10.3264ZM-0.0897262 10.2755C-0.0926743 10.2638 -0.0990907 10.2406 -0.103243 10.2196L0.141991 10.1711C0.144491 10.1837 0.147352 10.1932 0.152704 10.2144L-0.0897262 10.2755ZM-0.103256 10.2196C-0.107562 10.1978 -0.110466 10.174 -0.112396 10.1605L0.135091 10.1251C0.138167 10.1466 0.139413 10.158 0.142004 10.1711L-0.103256 10.2196ZM-0.1124 10.1604C-0.113238 10.1546 -0.117682 10.1287 -0.119429 10.1109L0.129375 10.0865C0.130551 10.0984 0.131722 10.1015 0.135096 10.1251L-0.1124 10.1604ZM-0.119425 10.1109C-0.123028 10.0743 -0.125001 10.0373 -0.125001 9.99998L0.124999 9.99998C0.124999 10.0285 0.126507 10.0573 0.129371 10.0864L-0.119425 10.1109ZM-0.125001 9.99998C-0.125001 9.96262 -0.123028 9.92562 -0.119425 9.88903L0.129371 9.91353C0.126507 9.94262 0.124999 9.97142 0.124999 9.99998L-0.125001 9.99998ZM-0.119427 9.88905C-0.117682 9.87131 -0.113231 9.84535 -0.112404 9.83954L0.1351 9.87478C0.131722 9.8985 0.130558 9.90147 0.129373 9.91352L-0.119427 9.88905ZM-0.112398 9.8395C-0.110464 9.82595 -0.107564 9.80219 -0.103256 9.78038L0.142004 9.82883C0.139415 9.84194 0.13816 9.85334 0.135094 9.87482L-0.112398 9.8395ZM-0.103242 9.78031C-0.0990916 9.75937 -0.0926727 9.73616 -0.0897284 9.72446L0.152706 9.7855C0.147351 9.80677 0.144492 9.81628 0.14199 9.82891L-0.103242 9.78031ZM-0.0897203 9.72443C-0.0871959 9.71442 -0.0821324 9.69215 -0.0765151 9.67355L0.162808 9.74583C0.159393 9.75714 0.157804 9.76527 0.152698 9.78553L-0.0897203 9.72443ZM-0.076479 9.67344C-0.0703483 9.65321 -0.0622227 9.63197 -0.0578447 9.61982L0.177343 9.7046C0.170369 9.72394 0.166409 9.73395 0.162772 9.74595L-0.076479 9.67344ZM-0.0579375 9.62008C-0.0541539 9.60951 -0.0469862 9.58801 -0.0393565 9.56955L0.191692 9.66503C0.187114 9.6761 0.184402 9.68488 0.177436 9.70434L-0.0579375 9.62008ZM-0.0392328 9.56925C-0.0316702 9.55108 -0.0217106 9.53111 -0.0169363 9.521L0.209127 9.62775C0.200411 9.64621 0.19615 9.65432 0.191568 9.66533L-0.0392328 9.56925ZM-0.0169398 9.52101C-0.011538 9.50957 -0.0020302 9.48829 0.00795393 9.46961L0.228427 9.58747C0.222358 9.59882 0.218193 9.60855 0.20913 9.62775L-0.0169398 9.52101ZM0.00802703 9.46947C0.0169886 9.45276 0.0292142 9.43333 0.0340394 9.42524L0.248789 9.55323C0.238049 9.57125 0.233857 9.57735 0.228354 9.58761L0.00802703 9.46947ZM0.0340348 9.42525C0.0405628 9.41429 0.0524808 9.39322 0.0646746 9.37503L0.272351 9.51421C0.265075 9.52506 0.260088 9.53427 0.248794 9.55322L0.0340348 9.42525ZM0.064718 9.37496C0.076554 9.35733 0.0911231 9.33871 0.0985406 9.32879L0.298735 9.47853C0.285883 9.49572 0.279394 9.50371 0.272308 9.51427L0.064718 9.37496ZM0.0984303 9.32894C0.102991 9.32283 0.117973 9.30148 0.130272 9.28653L0.323338 9.44536C0.315552 9.45482 0.313035 9.45936 0.298846 9.47839L0.0984303 9.32894ZM0.130173 9.28665C0.151409 9.26077 0.173508 9.23684 0.195286 9.21453L0.374169 9.38918C0.355664 9.40813 0.338761 9.42656 0.323437 9.44524L0.130173 9.28665ZM0.19578 9.21403C0.19445 9.21538 0.193564 9.21637 0.193322 9.21664C0.193193 9.21679 0.193119 9.21688 0.194011 9.21584C0.195052 9.21463 0.199422 9.20948 0.204918 9.20404L0.380773 9.38173C0.38337 9.37916 0.3851 9.37706 0.383517 9.3789C0.383096 9.37939 0.381715 9.381 0.38025 9.38265C0.378673 9.38442 0.376424 9.3869 0.373675 9.38968L0.19578 9.21403ZM0.204457 9.2045L9.20446 0.204496L9.38123 0.381272L0.381234 9.38127L0.204457 9.2045ZM9.20445 0.204497C9.30892 0.100022 9.43295 0.0171462 9.56945 -0.0393952L9.66513 0.191573C9.55896 0.235551 9.46249 0.30001 9.38124 0.381271L9.20445 0.204497ZM9.56945 -0.0393952C9.70595 -0.0959367 9.85225 -0.125039 10 -0.125039L10 0.124961C9.88508 0.124961 9.77129 0.147596 9.66513 0.191573L9.56945 -0.0393952ZM10 -0.125039C10.1477 -0.125039 10.294 -0.0959367 10.4305 -0.0393953L10.3349 0.191573C10.2287 0.147595 10.1149 0.124961 10 0.124961L10 -0.125039ZM10.4305 -0.0393953C10.567 0.0171461 10.6911 0.100022 10.7955 0.204497L10.6188 0.38127C10.5375 0.30001 10.441 0.235551 10.3349 0.191573L10.4305 -0.0393953Z" fill="#77C043" mask="url(#path-1-inside-1_3148_2529)"/>
</svg>
