<svg width="30" height="30" viewBox="0 0 30 30" fill="none" xmlns="http://www.w3.org/2000/svg">
<path d="M20.565 16.065C20.7016 15.9223 20.8086 15.7541 20.88 15.57C21.03 15.2048 21.03 14.7952 20.88 14.43C20.8086 14.2459 20.7016 14.0777 20.565 13.935L16.065 9.43501C15.7825 9.15255 15.3995 8.99387 15 8.99387C14.6006 8.99387 14.2175 9.15255 13.935 9.43501C13.6525 9.71746 13.4939 10.1006 13.4939 10.5C13.4939 10.8995 13.6525 11.2825 13.935 11.565L15.885 13.5H10.5C10.1022 13.5 9.72065 13.658 9.43935 13.9393C9.15804 14.2206 9 14.6022 9 15C9 15.3978 9.15804 15.7794 9.43935 16.0607C9.72065 16.342 10.1022 16.5 10.5 16.5H15.885L13.935 18.435C13.7944 18.5744 13.6828 18.7404 13.6067 18.9231C13.5305 19.1059 13.4913 19.302 13.4913 19.5C13.4913 19.698 13.5305 19.8941 13.6067 20.0769C13.6828 20.2597 13.7944 20.4256 13.935 20.565C14.0744 20.7056 14.2404 20.8172 14.4231 20.8933C14.6059 20.9695 14.802 21.0087 15 21.0087C15.198 21.0087 15.3941 20.9695 15.5769 20.8933C15.7597 20.8172 15.9256 20.7056 16.065 20.565L20.565 16.065ZM30 15C30 12.0333 29.1203 9.13319 27.472 6.66645C25.8238 4.19972 23.4811 2.27713 20.7403 1.14181C17.9994 0.00649926 14.9834 -0.290551 12.0737 0.288228C9.16394 0.867006 6.49119 2.29562 4.3934 4.3934C2.29562 6.49119 0.867006 9.16394 0.288228 12.0737C-0.290551 14.9834 0.00649926 17.9994 1.14181 20.7403C2.27713 23.4811 4.19972 25.8238 6.66645 27.472C9.13319 29.1203 12.0333 30 15 30C18.9783 30 22.7936 28.4196 25.6066 25.6066C28.4196 22.7936 30 18.9783 30 15ZM3.00001 15C3.00001 12.6266 3.70379 10.3066 5.02237 8.33316C6.34095 6.35977 8.21509 4.8217 10.4078 3.91345C12.6005 3.0052 15.0133 2.76756 17.3411 3.23058C19.6689 3.69361 21.8071 4.83649 23.4853 6.51472C25.1635 8.19295 26.3064 10.3312 26.7694 12.6589C27.2324 14.9867 26.9948 17.3995 26.0866 19.5922C25.1783 21.7849 23.6402 23.6591 21.6668 24.9776C19.6935 26.2962 17.3734 27 15 27C11.8174 27 8.76516 25.7357 6.51472 23.4853C4.26429 21.2348 3.00001 18.1826 3.00001 15Z" fill="#3E4042"/>
</svg>
