<svg width="30" height="30" viewBox="0 0 30 30" fill="none" xmlns="http://www.w3.org/2000/svg">
<path d="M9.435 13.935C9.29844 14.0776 9.19139 14.2459 9.12 14.43C8.96997 14.7952 8.96997 15.2048 9.12 15.57C9.19139 15.7541 9.29844 15.9223 9.435 16.065L13.935 20.565C14.2175 20.8474 14.6005 21.0061 15 21.0061C15.3994 21.0061 15.7825 20.8474 16.065 20.565C16.3475 20.2825 16.5061 19.8994 16.5061 19.5C16.5061 19.1005 16.3475 18.7174 16.065 18.435L14.115 16.5L19.5 16.5C19.8978 16.5 20.2794 16.342 20.5607 16.0607C20.842 15.7793 21 15.3978 21 15C21 14.6022 20.842 14.2206 20.5607 13.9393C20.2794 13.658 19.8978 13.5 19.5 13.5L14.115 13.5L16.065 11.565C16.2056 11.4256 16.3172 11.2596 16.3933 11.0769C16.4695 10.8941 16.5087 10.698 16.5087 10.5C16.5087 10.302 16.4695 10.1059 16.3933 9.92313C16.3172 9.74034 16.2056 9.57444 16.065 9.43499C15.9256 9.2944 15.7597 9.18281 15.5769 9.10666C15.3941 9.0305 15.198 8.9913 15 8.9913C14.802 8.9913 14.6059 9.0305 14.4231 9.10666C14.2403 9.18281 14.0744 9.2944 13.935 9.43499L9.435 13.935ZM1.31134e-06 15C1.05198e-06 17.9667 0.879737 20.8668 2.52796 23.3335C4.17618 25.8003 6.51885 27.7229 9.25974 28.8582C12.0006 29.9935 15.0166 30.2905 17.9263 29.7118C20.8361 29.133 23.5088 27.7044 25.6066 25.6066C27.7044 23.5088 29.133 20.8361 29.7118 17.9263C30.2906 15.0166 29.9935 12.0006 28.8582 9.25974C27.7229 6.51885 25.8003 4.17618 23.3336 2.52796C20.8668 0.879735 17.9667 -1.05198e-06 15 -1.31134e-06C11.0218 -1.65913e-06 7.20644 1.58035 4.3934 4.39339C1.58035 7.20644 1.65913e-06 11.0217 1.31134e-06 15ZM27 15C27 17.3734 26.2962 19.6934 24.9776 21.6668C23.6591 23.6402 21.7849 25.1783 19.5922 26.0865C17.3995 26.9948 14.9867 27.2324 12.6589 26.7694C10.3311 26.3064 8.19295 25.1635 6.51472 23.4853C4.83649 21.807 3.6936 19.6688 3.23057 17.3411C2.76755 15.0133 3.00519 12.6005 3.91344 10.4078C4.8217 8.21508 6.35977 6.34094 8.33316 5.02236C10.3065 3.70379 12.6266 3 15 3C18.1826 3 21.2348 4.26428 23.4853 6.51471C25.7357 8.76515 27 11.8174 27 15Z" fill="#3E4042"/>
</svg>
