<svg width="24" height="32" viewBox="0 0 24 32" fill="none" xmlns="http://www.w3.org/2000/svg">
<path fill-rule="evenodd" clip-rule="evenodd" d="M4 0C1.79086 0 0 1.79086 0 4V28C0 30.2091 1.79086 32 4 32H20C22.2091 32 24 30.2091 24 28V4C24 1.79086 22.2091 0 20 0H4ZM6 4C4.89543 4 4 4.89543 4 6C4 7.10457 4.89543 8 6 8H18C19.1046 8 20 7.10457 20 6C20 4.89543 19.1046 4 18 4H6ZM18 18C19.1046 18 20 18.8954 20 20V26C20 27.1046 19.1046 28 18 28C16.8954 28 16 27.1046 16 26V20C16 18.8954 16.8954 18 18 18ZM12 24C10.8954 24 10 24.8954 10 26C10 27.1046 10.8954 28 12 28H12.02C13.1246 28 14.02 27.1046 14.02 26C14.02 24.8954 13.1246 24 12.02 24H12ZM4 26C4 24.8954 4.89543 24 6 24H6.02C7.12457 24 8.02 24.8954 8.02 26C8.02 27.1046 7.12457 28 6.02 28H6C4.89543 28 4 27.1046 4 26ZM6 18C4.89543 18 4 18.8954 4 20C4 21.1046 4.89543 22 6 22H6.02C7.12457 22 8.02 21.1046 8.02 20C8.02 18.8954 7.12457 18 6.02 18H6ZM10 20C10 18.8954 10.8954 18 12 18H12.02C13.1246 18 14.02 18.8954 14.02 20C14.02 21.1046 13.1246 22 12.02 22H12C10.8954 22 10 21.1046 10 20ZM18 12C16.8954 12 16 12.8954 16 14C16 15.1046 16.8954 16 18 16H18.02C19.1246 16 20.02 15.1046 20.02 14C20.02 12.8954 19.1246 12 18.02 12H18ZM10 14C10 12.8954 10.8954 12 12 12H12.02C13.1246 12 14.02 12.8954 14.02 14C14.02 15.1046 13.1246 16 12.02 16H12C10.8954 16 10 15.1046 10 14ZM6 12C4.89543 12 4 12.8954 4 14C4 15.1046 4.89543 16 6 16H6.02C7.12457 16 8.02 15.1046 8.02 14C8.02 12.8954 7.12457 12 6.02 12H6Z" fill="white"/>
</svg>
