                <svg width="56" height="49" viewBox="0 0 56 49" fill="none" xmlns="http://www.w3.org/2000/svg">
                <path d="M43.6156 39.1641C42.1434 39.1641 40.9453 40.3621 40.9453 41.8343C40.9453 43.3065 42.1434 44.5046 43.6156 44.5046C45.0878 44.5046 46.2858 43.3065 46.2858 41.8343C46.2858 40.3621 45.0878 39.1641 43.6156 39.1641ZM43.6156 42.7244C43.1243 42.7244 42.7255 42.3257 42.7255 41.8343C42.7255 41.343 43.1243 40.9442 43.6156 40.9442C44.1069 40.9442 44.5057 41.343 44.5057 41.8343C44.5057 42.3257 44.1069 42.7244 43.6156 42.7244Z" fill="#77C043"/>
                <path d="M15.1312 39.1641C13.659 39.1641 12.4609 40.3621 12.4609 41.8343C12.4609 43.3065 13.659 44.5046 15.1312 44.5046C16.6034 44.5046 17.8015 43.3065 17.8015 41.8343C17.8015 40.3621 16.6034 39.1641 15.1312 39.1641ZM15.1312 42.7244C14.6399 42.7244 14.2411 42.3257 14.2411 41.8343C14.2411 41.343 14.6399 40.9442 15.1312 40.9442C15.6225 40.9442 16.0213 41.343 16.0213 41.8343C16.0213 42.3257 15.6225 42.7244 15.1312 42.7244Z" fill="#77C043"/>
                <path d="M52.7253 27.5928L51.538 26.9991L50.3283 19.7413C49.9696 17.5855 48.1227 16.0216 45.9384 16.0216H36.4937C35.0455 16.0216 33.7691 16.7275 32.9565 17.8018H30.263V8.90089H24.9225V0H12.4613V8.90089H7.12072V17.8018H1.78018V26.7027C0.79841 26.7027 0 27.5011 0 28.4829V30.263C0 31.2448 0.79841 32.0432 1.78018 32.0432V40.054C1.78018 41.5262 2.97824 42.7243 4.45045 42.7243H8.9721C9.40647 45.7381 11.9993 48.0648 15.1315 48.0648C18.2637 48.0648 20.8566 45.7381 21.2909 42.7243H37.455C37.8893 45.7381 40.4822 48.0648 43.6144 48.0648C46.7466 48.0648 49.3394 45.7381 49.7738 42.7243H52.5153C53.9875 42.7243 55.1855 41.5262 55.1855 40.054V31.5733C55.1855 29.8767 54.2429 28.3529 52.7253 27.5928ZM53.4054 35.9436L51.6252 35.0535V33.8234H53.4054V35.9436ZM17.8018 19.582H19.582V21.3621H17.8018V19.582ZM21.3621 23.1423V19.582H23.1423V26.7027H14.2414V19.582H16.0216V23.1423H21.3621ZM32.0432 26.7027H24.9225V19.582H26.7027V23.1423H32.0432V26.7027ZM32.0432 20.4721V21.3621H28.4829V19.582H32.1331C32.0744 19.8695 32.0432 20.1676 32.0432 20.4721ZM28.4829 17.8018H24.9225H23.1423H19.582V10.6811H21.3621V14.2414H26.7027V10.6811H28.4829V17.8018ZM23.1423 10.6811H24.9225V12.4613H23.1423V10.6811ZM17.8018 1.78018H19.582V3.56036H17.8018V1.78018ZM14.2414 1.78018H16.0216V5.34054H21.3621V1.78018H23.1423V8.90089H19.582H17.8018H14.2414V1.78018ZM12.4613 10.6811H14.2414V12.4613H12.4613V10.6811ZM8.90089 10.6811H10.6811V14.2414H16.0216V10.6811H17.8018V17.8018H14.2414H12.4613H8.90089V10.6811ZM7.12072 19.582H8.90089V21.3621H7.12072V19.582ZM3.56036 19.582H5.34054V23.1423H10.6811V19.582H12.4613V26.7027H3.56036V19.582ZM1.78018 28.4829H32.0432V30.263H1.78018V28.4829ZM3.56036 35.6036H6.8706L6.42556 37.3838H3.56036V35.6036ZM3.56036 40.054V39.1639H7.81588L9.15101 33.8234H3.56036V32.0432H32.0432V40.9441H21.2909C20.8566 37.9303 18.2637 35.6036 15.1315 35.6036C11.9993 35.6036 9.40647 37.9303 8.9721 40.9441H4.45045C3.95912 40.9441 3.56036 40.5454 3.56036 40.054ZM15.1315 46.2847C12.6775 46.2847 10.6811 44.2882 10.6811 41.8342C10.6811 39.3802 12.6775 37.3838 15.1315 37.3838C17.5855 37.3838 19.582 39.3802 19.582 41.8342C19.582 44.2882 17.5855 46.2847 15.1315 46.2847ZM42.7243 26.7027H46.2847V28.4829H45.3946H44.5045C43.5227 28.4829 42.7243 27.6845 42.7243 26.7027ZM42.7243 24.9225C41.7425 24.9225 40.9441 25.7209 40.9441 26.7027C40.9441 27.3542 41.1328 27.9568 41.439 28.4829H37.3838V21.3621H45.4355L46.1022 24.9225H42.7243ZM37.3838 30.263H44.5045H45.3946H46.2847V36.2133C45.4738 35.827 44.5703 35.6036 43.6144 35.6036C40.4822 35.6036 37.8893 37.9303 37.455 40.9441H37.3838V30.263ZM43.6144 46.2847C41.1604 46.2847 39.1639 44.2882 39.1639 41.8342C39.1639 39.3802 41.1604 37.3838 43.6144 37.3838C46.0684 37.3838 48.0648 39.3802 48.0648 41.8342C48.0648 44.2882 46.0684 46.2847 43.6144 46.2847ZM52.5153 40.9441H49.7738C49.5815 39.6072 48.9674 38.4056 48.0648 37.4826V25.8126L47.1863 21.0364C47.0297 20.1943 46.2936 19.582 45.4364 19.582H37.3838C36.402 19.582 35.6036 20.3804 35.6036 21.3621V40.9441H33.8234V20.4721C33.8234 18.9998 35.0215 17.8018 36.4937 17.8018H45.9384C47.2495 17.8018 48.3568 18.7408 48.5722 20.0332L49.9313 28.1865L51.9287 29.1851C52.8393 29.6409 53.4054 30.5559 53.4054 31.5733V32.0432H49.845V36.1537L53.4054 37.9338V40.054C53.4054 40.5454 53.0066 40.9441 52.5153 40.9441Z" fill="#77C043"/>
</svg>