<svg width="48" height="48" viewBox="0 0 48 48" fill="none" xmlns="http://www.w3.org/2000/svg">
<circle cx="24" cy="24" r="24" fill="#77C043"/>
<path d="M21 23H19V25H21V23Z" fill="white"/>
<path d="M23 23H25V25H23V23Z" fill="white"/>
<path d="M29 23H27V25H29V23Z" fill="white"/>
<path d="M15 19V35L19.8 31.4C20.1458 31.1396 20.5671 30.9992 21 31H31C32.1046 31 33 30.1046 33 29V19C33 17.8954 32.1046 17 31 17H17C15.8954 17 15 17.8954 15 19ZM17 31V19H31V29H20.334C19.9011 28.9988 19.4796 29.1393 19.134 29.4L17 31Z" fill="white"/>
</svg>
