<svg width="21" height="24" viewBox="0 0 21 24" fill="none" xmlns="http://www.w3.org/2000/svg">
<path fill-rule="evenodd" clip-rule="evenodd" d="M1.84615 0C1.35652 0 0.886946 0.194505 0.540726 0.540726C0.194504 0.886947 0 1.35652 0 1.84615V22.1538C0 22.6435 0.194504 23.1131 0.540726 23.4593C0.886948 23.8055 1.35653 24 1.84615 24H18.4624C18.7049 24 18.9449 23.9523 19.1689 23.8595C19.3929 23.7667 19.5964 23.6307 19.7679 23.4593C19.9393 23.2878 20.0753 23.0843 20.1681 22.8603C20.2608 22.6363 20.3086 22.3963 20.3086 22.1538V7.38461C20.3086 7.1398 20.2113 6.90501 20.0382 6.7319L13.5767 0.270363C13.4036 0.0972524 13.1688 0 12.924 0H12.46H1.84615ZM11.5369 1.84615L1.84615 1.84615L1.84615 22.1538L18.4624 22.1538V8.76923H12.46C11.9502 8.76923 11.5369 8.35595 11.5369 7.84615V1.84615ZM17.6185 6.92308H13.3831V2.6876L17.6185 6.92308ZM6.26926 14.5782C6.62974 14.2177 7.2142 14.2177 7.57469 14.5782L9.23256 16.2361V11.5383C9.23256 11.0285 9.64584 10.6152 10.1556 10.6152C10.6654 10.6152 11.0787 11.0285 11.0787 11.5383V16.2303L12.7308 14.5782C13.0913 14.2177 13.6757 14.2177 14.0362 14.5782C14.3967 14.9387 14.3967 15.5231 14.0362 15.8836L10.848 19.0718C10.6982 19.2416 10.4869 19.3558 10.249 19.3797C9.98183 19.4076 9.70479 19.3191 9.50003 19.1144L6.26926 15.8836C5.90878 15.5231 5.90878 14.9387 6.26926 14.5782Z" fill="#858A8F"/>
</svg>
