<svg width="128" height="51" viewBox="0 0 128 51" fill="none" xmlns="http://www.w3.org/2000/svg">
<g clip-path="url(#clip0_2748_15636)">
<path d="M3.14258 33.3361C2.99972 34.1909 3.14258 36.0428 3.57115 37.04C4.28544 38.7495 5.71401 39.6043 7.57115 39.6043C9.71401 39.6043 11.2854 38.892 12.2854 38.1797L12.714 40.7439C11.4283 41.5987 9.28544 42.311 6.85686 42.311C2.14258 42.311 0.142578 38.7495 0.142578 34.4758C0.142578 28.4925 4.14258 21.9395 9.85686 21.9395C13.2854 21.9395 15.1426 24.2188 15.1426 26.9255C14.8569 32.054 9.71401 33.4786 3.14258 33.3361ZM9.28544 24.5037C6.42829 24.5037 4.28544 27.6378 3.42829 30.7719C8.14258 30.7719 11.9997 30.0596 11.9997 27.0679C11.9997 25.3584 10.8569 24.5037 9.28544 24.5037ZM29.9997 32.9087C29.4283 36.3277 29.1426 39.7467 29.2854 42.026H26.4283C26.4283 40.8864 26.5711 39.0344 26.8569 36.8976H26.714C24.714 40.8864 22.2854 42.4534 19.8569 42.4534C16.714 42.4534 14.714 39.7467 14.714 35.9003C14.714 29.0624 19.2854 21.9395 26.9997 21.9395C28.714 21.9395 30.5712 22.2244 31.714 22.6517L29.9997 32.9087ZM26.2854 24.5037C21.714 24.5037 17.9997 29.7747 17.8569 35.1881C17.8569 37.3249 18.5711 39.4618 20.8569 39.4618C23.4283 39.4618 26.4283 35.7579 27.2854 30.6294L28.2854 24.6462C27.9997 24.6462 27.2854 24.5037 26.2854 24.5037ZM42.9997 25.3584C42.4283 24.9311 41.2854 24.5037 39.8569 24.5037C37.9997 24.5037 36.714 25.7858 36.714 27.4953C36.714 28.9199 37.5711 29.7747 39.1426 30.7719C41.1426 32.054 42.4283 33.7635 42.4283 35.9003C42.4283 40.0316 39.4283 42.311 35.5711 42.311C33.714 42.311 31.9997 41.5987 31.1426 41.0288L31.9997 38.6071C32.8569 39.1769 34.4283 39.8892 35.8569 39.8892C37.8569 39.8892 39.2854 38.4646 39.2854 36.7551C39.2854 35.1881 38.714 34.3333 36.8569 33.1936C34.8569 31.9115 33.714 30.202 33.714 28.2076C33.714 24.7886 36.4283 22.0819 40.1426 22.0819C41.714 22.0819 43.1426 22.5093 43.8569 23.0791L42.9997 25.3584ZM53.4283 37.1825C51.5712 41.4562 49.714 44.8752 47.2854 47.4395C45.2854 49.7188 43.1426 50.5735 42.1426 50.8584L41.4283 48.0093C42.1426 47.7244 43.4283 47.1545 44.714 46.1573C45.8569 45.1601 47.1426 43.5931 48.1426 41.5987C48.2854 41.3138 48.2854 41.0288 48.2854 40.7439L44.714 22.3668H47.8569L49.5712 32.9087C49.9997 35.1881 50.1426 36.6126 50.4283 38.0372H50.5712C50.9997 36.7551 51.5712 35.473 52.4283 33.1936L56.9997 22.2244H59.9997L53.4283 37.1825Z" fill="#FAFAFA"/>
<path d="M52.9994 46.156C52.9994 46.156 60.9994 33.0498 62.428 26.9241C63.8566 20.7984 63.9994 17.5219 58.428 16.952C52.7137 16.3822 46.2852 16.952 46.2852 16.952C46.2852 16.952 55.2852 11.2537 67.1423 11.6811C79.1423 11.966 85.9994 16.952 85.9994 16.952C85.9994 16.952 83.428 17.9493 79.2852 18.2342C75.1423 18.6615 73.5709 19.5163 73.8566 24.2174C74.1423 28.9185 75.8566 32.1951 75.8566 32.1951C75.8566 32.1951 69.1423 27.7789 64.9994 32.1951C60.8566 36.6113 59.9994 38.6057 57.5709 41.4548C55.2852 44.304 52.9994 46.156 52.9994 46.156Z" fill="#FAFAFA"/>
<path d="M66.7132 0C69.5703 0 71.856 2.27933 71.856 5.12849C71.856 7.97765 69.5703 10.257 66.7132 10.257C63.856 10.257 61.5703 7.97765 61.5703 5.12849C61.5703 2.27933 63.9989 0 66.7132 0Z" fill="#FAFAFA"/>
<path d="M84.1434 42.3108C82.2863 42.3108 81.0006 41.8835 80.2863 41.4561H80.1434L78.7148 49.8611H75.7148L79.2863 29.2047C79.7148 26.7829 80.0006 24.2187 80.2863 22.2242H83.0006L82.4291 25.9282H82.572C84.1434 23.3639 86.572 21.7969 88.8577 21.7969C92.7148 21.7969 94.2863 25.2159 94.2863 28.9198C94.4291 35.9002 90.0006 42.3108 84.1434 42.3108ZM87.8577 24.646C85.4291 24.646 82.4291 27.6377 81.572 33.1935L80.7148 38.6069C81.4291 39.3192 82.7148 39.7466 84.1434 39.7466C88.0006 39.7466 91.2863 34.3332 91.2863 29.2047C91.2863 27.0678 90.4291 24.646 87.8577 24.646ZM110.001 32.9086C109.429 36.3276 109.143 39.7466 109.286 42.0259H106.429C106.429 40.8863 106.572 39.0343 106.858 36.8974H106.715C104.715 40.8863 102.429 42.4533 99.8577 42.4533C96.7148 42.4533 94.7148 39.7466 94.7148 35.9002C94.7148 29.0622 99.2863 21.9393 107.001 21.9393C108.715 21.9393 110.572 22.2242 111.715 22.6516L110.001 32.9086ZM106.286 24.5036C101.715 24.5036 98.0006 29.7745 98.0006 35.1879C98.0006 37.3248 98.7148 39.4617 101.001 39.4617C103.572 39.4617 106.572 35.7578 107.429 30.6293L108.429 24.646C108.001 24.646 107.286 24.5036 106.286 24.5036ZM121.429 37.1823C119.572 41.4561 117.715 44.8751 115.286 47.4393C113.286 49.7187 111.143 50.5734 110.143 50.8583L109.429 48.0092C110.143 47.7242 111.429 47.1544 112.715 46.1572C113.858 45.16 115.143 43.593 116.143 41.5985C116.286 41.3136 116.286 41.0287 116.286 40.7438L112.715 22.3667H115.858L117.572 32.9086C118.001 35.1879 118.143 36.6125 118.429 38.0371H118.572C119.001 36.755 119.572 35.4728 120.429 33.1935L124.858 22.2242H128.001L121.429 37.1823Z" fill="#FAFAFA"/>
</g>
<defs>
<clipPath id="clip0_2748_15636">
<rect width="128" height="51" fill="white"/>
</clipPath>
</defs>
</svg>
