<svg width="16" height="16" viewBox="0 0 16 16" fill="none" xmlns="http://www.w3.org/2000/svg">
<path fill-rule="evenodd" clip-rule="evenodd" d="M8 16C12.4183 16 16 12.4183 16 8C16 3.58172 12.4183 0 8 0C3.58172 0 0 3.58172 0 8C0 11.9433 2.85304 15.2203 6.6075 15.8792V10.4466H4.57227V8.18865H6.6075V6.4677C6.6075 4.51027 7.8036 3.42859 9.63528 3.42859C10.512 3.42859 11.4294 3.58115 11.4294 3.58115V5.50349H10.4181C9.42236 5.50349 9.11239 6.10613 9.11239 6.72401V8.18865H11.3355L10.9801 10.4466H9.11239V15.9054C8.72679 15.9645 8.3328 15.9963 7.93176 15.9997C7.95449 15.9999 7.97723 16 8 16Z" fill="#858A8F"/>
</svg>
