<svg width="82" height="56" viewBox="0 0 82 56" fill="none" xmlns="http://www.w3.org/2000/svg">
<path d="M0.105469 23.4097V3.26652C0.105469 2.21983 0.340535 1.43481 0.810669 0.911971C1.27981 0.388117 1.88711 0.126953 2.63206 0.126953C3.39988 0.126953 4.02159 0.38608 4.49769 0.903317C4.97329 1.42055 5.21084 2.20812 5.21084 3.26652V23.4102C5.21084 24.4686 4.97279 25.2587 4.49769 25.7821C4.02159 26.3054 3.39988 26.5671 2.63206 26.5671C1.89903 26.5671 1.29372 26.3024 0.81862 25.7734C0.34302 25.2445 0.105469 24.4564 0.105469 23.4097Z" fill="white"/>
<path d="M21.3027 14.7758H15.9901V22.2406H21.4747C24.9242 22.2406 26.6496 20.9786 26.6496 18.456C26.6496 17.1655 26.2029 16.2298 25.3088 15.6479C24.4143 15.067 23.0789 14.7758 21.3027 14.7758ZM15.9901 4.45145V11.0615H20.6666C21.9384 11.0615 22.9214 10.9393 23.6146 10.6949C24.3084 10.4511 24.8382 9.98577 25.2049 9.29952C25.4912 8.8113 25.6348 8.26505 25.6348 7.66024C25.6348 6.3697 25.1816 5.51239 24.2761 5.08781C23.3706 4.66374 21.9896 4.45145 20.1329 4.45145H15.9901ZM21.6809 26.1301H13.9794C12.8672 26.1301 12.0735 25.877 11.5984 25.3715C11.1223 24.866 10.8848 24.0611 10.8848 22.9564V3.73617C10.8848 2.60854 11.1283 1.79755 11.6153 1.30323C12.1028 0.8089 12.89 0.5625 13.9794 0.5625H22.1451C23.3488 0.5625 24.3914 0.637845 25.274 0.789045C26.1566 0.940755 26.9473 1.23094 27.6466 1.66112C28.2424 2.02155 28.7697 2.47821 29.2279 3.03006C29.6861 3.58243 30.036 4.19334 30.2765 4.86177C30.5171 5.53021 30.6373 6.23683 30.6373 6.98061C30.6373 9.53879 29.377 11.4102 26.8554 12.5969C30.1677 13.6665 31.8236 15.7477 31.8236 18.8404C31.8236 20.2704 31.4623 21.5584 30.7407 22.7029C30.0186 23.8488 29.0445 24.6944 27.818 25.2407C27.0502 25.5665 26.1676 25.7961 25.1702 25.9295C24.1737 26.0629 23.0103 26.1301 21.6809 26.1301Z" fill="white"/>
<path d="M54.5789 13.2768C54.5789 11.4054 54.2812 9.78288 53.6849 8.41139C53.0885 7.03939 52.2377 6.00186 51.1319 5.2983C50.0257 4.59473 48.7564 4.24295 47.3237 4.24295C46.3034 4.24295 45.3611 4.43743 44.4959 4.82739C43.6302 5.21735 42.8852 5.78346 42.2605 6.52775C41.6358 7.27204 41.1429 8.22252 40.7821 9.37917C40.4213 10.5363 40.2409 11.8355 40.2409 13.2768C40.2409 14.7307 40.4213 16.0442 40.7821 17.2187C41.1434 18.3931 41.6532 19.367 42.3122 20.1398C42.9712 20.9131 43.7276 21.4915 44.5814 21.8753C45.4352 22.2592 46.3725 22.4506 47.3922 22.4506C48.6988 22.4506 49.8995 22.1192 50.9938 21.4568C52.0886 20.794 52.9593 19.7707 53.6073 18.387C54.2549 17.0038 54.5789 15.2999 54.5789 13.2768ZM47.3237 0.126953C49.9367 0.126953 52.1801 0.665062 54.0541 1.74026C55.9282 2.81597 57.3466 4.34528 58.3092 6.32717C59.2718 8.30957 59.7534 10.6376 59.7534 13.3119C59.7534 15.2887 59.4895 17.0848 58.9627 18.7011C58.4354 20.3175 57.6442 21.7185 56.5902 22.9042C55.5356 24.0899 54.2405 24.9971 52.7049 25.6253C51.1687 26.253 49.4094 26.5671 47.427 26.5671C45.4556 26.5671 43.6903 26.2443 42.1318 25.5993C40.5728 24.9543 39.2723 24.0445 38.2296 22.8696C37.1865 21.6956 36.3988 20.2829 35.866 18.6319C35.3328 16.9809 35.0664 15.196 35.0664 13.2773C35.0664 11.3127 35.3437 9.51052 35.8998 7.87073C36.4559 6.23146 37.261 4.83604 38.3156 3.68448C39.3697 2.53343 40.6538 1.6527 42.1666 1.04281C43.6789 0.431899 45.3984 0.126953 47.3237 0.126953Z" fill="white"/>
<path d="M63.1923 21.16L68.831 12.8059L64.0864 5.3767C63.6391 4.65583 63.3042 4.03677 63.0805 3.51953C62.8569 3.0023 62.7451 2.50492 62.7451 2.0279C62.7451 1.53968 62.9603 1.10084 63.3901 0.711389C63.8195 0.321935 64.3438 0.126953 64.9631 0.126953C65.6732 0.126953 66.2268 0.339244 66.6224 0.763826C67.0175 1.1879 67.5647 1.97546 68.2639 3.12703L72.0459 9.33539L76.0862 3.12703C76.4187 2.60368 76.702 2.15619 76.937 1.78404C77.1721 1.4119 77.3987 1.1039 77.6164 0.859535C77.8341 0.615171 78.0776 0.432408 78.3469 0.310226C78.6163 0.188044 78.9284 0.126953 79.2837 0.126953C79.9253 0.126953 80.4496 0.321935 80.8571 0.711389C81.2637 1.10135 81.4669 1.5631 81.4669 2.09815C81.4669 2.87706 81.0256 3.93546 80.143 5.27284L75.1748 12.8069L80.5217 21.1611C81.0033 21.8931 81.3521 22.501 81.5703 22.9836C81.7875 23.4662 81.8968 23.9229 81.8968 24.3531C81.8968 24.7598 81.7994 25.132 81.6046 25.469C81.4098 25.8065 81.1344 26.0743 80.7796 26.2713C80.4243 26.4688 80.0232 26.5676 79.576 26.5676C79.0949 26.5676 78.6879 26.4658 78.3554 26.2627C78.0229 26.0595 77.7541 25.8065 77.5473 25.5041C77.3411 25.2022 76.9564 24.6147 76.3958 23.7427L71.9604 16.6617L67.2496 23.9519C66.8823 24.5338 66.6224 24.9406 66.4674 25.1727C66.3123 25.4054 66.126 25.6324 65.9088 25.8528C65.6906 26.0743 65.4327 26.2479 65.135 26.3762C64.8368 26.504 64.4875 26.5676 64.0864 26.5676C63.4677 26.5676 62.9543 26.3762 62.5478 25.9923C62.1408 25.6085 61.9375 25.05 61.9375 24.3179C61.9375 23.4566 62.3559 22.4043 63.1923 21.16Z" fill="white"/>
<path d="M4.77351 46.2795C4.77351 48.179 5.2009 49.6375 6.05618 50.6572C6.91147 51.6764 8.03462 52.186 9.42365 52.186C10.6064 52.186 11.6257 51.6647 12.481 50.6221C13.3363 49.5795 13.7642 48.0858 13.7642 46.1401C13.7642 44.8816 13.5863 43.7982 13.2304 42.8895C12.8741 41.9808 12.3692 41.2792 11.7147 40.7839C11.0602 40.2891 10.2963 40.0416 9.42365 40.0416C8.52811 40.0416 7.72998 40.2896 7.02975 40.7839C6.32902 41.2798 5.77738 41.9955 5.37583 42.9338C4.97378 43.8715 4.77351 44.987 4.77351 46.2795ZM4.54937 32.1085V39.3951C5.43348 38.4635 6.33498 37.7502 7.25338 37.2544C8.17228 36.7595 9.30885 36.5121 10.6641 36.5121C12.2261 36.5121 13.5952 36.8878 14.772 37.6392C15.9489 38.3907 16.8623 39.4801 17.5108 40.9071C18.1594 42.3341 18.4839 44.0258 18.4839 45.9832C18.4839 47.428 18.3035 48.7527 17.9417 49.9587C17.5794 51.1643 17.0546 52.2099 16.3653 53.0952C15.676 53.9806 14.8406 54.6653 13.8591 55.1484C12.8771 55.632 11.7947 55.8739 10.6124 55.8739C9.88881 55.8739 9.20846 55.7868 8.57135 55.6117C7.93423 55.4371 7.39154 55.207 6.94377 54.9214C6.49551 54.6363 6.11383 54.342 5.79826 54.0391C5.48268 53.7362 5.06622 53.2821 4.54937 52.6758V53.1477C4.54937 54.0447 4.33667 54.7233 3.91226 55.1835C3.48735 55.6438 2.94764 55.8739 2.29313 55.8739C1.62669 55.8739 1.09593 55.6438 0.699845 55.1835C0.30376 54.7233 0.105469 54.0447 0.105469 53.1477V32.3182C0.105469 31.3515 0.297299 30.6204 0.682451 30.1256C1.06711 29.6302 1.60433 29.3828 2.29313 29.3828C3.01622 29.3828 3.57332 29.6185 3.96394 30.091C4.35357 30.5619 4.54937 31.2349 4.54937 32.1085Z" fill="white"/>
<path d="M33.8315 46.2805C33.1427 46.5371 32.1408 46.8079 30.8263 47.0935C29.5113 47.3786 28.6009 47.5889 28.0959 47.7223C27.5905 47.8567 27.1085 48.1183 26.6488 48.5088C26.1896 48.8993 25.96 49.4435 25.96 50.1425C25.96 50.8649 26.2298 51.4789 26.7695 51.9854C27.3092 52.4919 28.0154 52.7455 28.8886 52.7455C29.8184 52.7455 30.6772 52.5388 31.4634 52.1254C32.2501 51.712 32.8266 51.179 33.1943 50.5263C33.6193 49.8039 33.8315 48.6162 33.8315 46.9617V46.2805ZM34.1416 53.1828C33.0045 54.0798 31.9052 54.7528 30.8427 55.2008C29.7807 55.6493 28.5894 55.8738 27.269 55.8738C26.0633 55.8738 25.0038 55.632 24.0909 55.1484C23.1779 54.6653 22.4747 54.0095 21.9807 53.1828C21.4867 52.356 21.2402 51.4585 21.2402 50.4917C21.2402 49.1874 21.6473 48.0746 22.4633 47.1541C23.2788 46.2342 24.398 45.6167 25.8218 45.3021C26.12 45.2328 26.861 45.075 28.0442 44.8306C29.2265 44.5858 30.2404 44.3613 31.0842 44.1576C31.9281 43.954 32.844 43.7061 33.8315 43.4154C33.7743 42.1569 33.5243 41.2344 33.0825 40.6454C32.6402 40.0574 31.7243 39.7631 30.3348 39.7631C29.1406 39.7631 28.242 39.9322 27.6392 40.2697C27.0369 40.6077 26.5195 41.1143 26.0892 41.7898C25.6583 42.4654 25.3542 42.9114 25.1762 43.1267C24.9978 43.3421 24.6162 43.45 24.0307 43.45C23.5024 43.45 23.0462 43.2784 22.6616 42.9343C22.2769 42.5911 22.0846 42.1513 22.0846 41.6152C22.0846 40.7767 22.3773 39.9612 22.9627 39.169C23.5487 38.3769 24.4616 37.7247 25.7015 37.2121C26.942 36.6999 28.4861 36.4434 30.3353 36.4434C32.4022 36.4434 34.0273 36.6913 35.2101 37.1856C36.3923 37.6815 37.2282 38.4644 37.7163 39.5361C38.2043 40.6077 38.4478 42.0291 38.4478 43.7997C38.4478 44.9182 38.4448 45.8677 38.4394 46.6481C38.4334 47.429 38.4249 48.2965 38.4135 49.2521C38.4135 50.1491 38.5601 51.0843 38.8528 52.0567C39.1456 53.0295 39.2922 53.6557 39.2922 53.9352C39.2922 54.4245 39.065 54.8699 38.6113 55.2716C38.1576 55.6738 37.6437 55.8749 37.0697 55.8749C36.5872 55.8749 36.1111 55.6447 35.6399 55.1845C35.1688 54.7233 34.6693 54.0564 34.1416 53.1828Z" fill="white"/>
<path d="M47.4911 39.1152V39.692C48.3176 38.5852 49.2221 37.7727 50.2041 37.2545C51.1856 36.7362 52.3142 36.4766 53.5885 36.4766C54.8289 36.4766 55.9366 36.751 56.9132 37.2982C57.8892 37.846 58.6183 38.6203 59.1009 39.6222C59.411 40.2051 59.6117 40.8339 59.7037 41.5094C59.7951 42.185 59.8413 43.0469 59.8413 44.0956V52.9726C59.8413 53.9277 59.6262 54.6501 59.1953 55.1393C58.7649 55.6291 58.2048 55.8729 57.516 55.8729C56.8153 55.8729 56.2473 55.6225 55.8109 55.122C55.3741 54.6211 55.1564 53.9048 55.1564 52.9726V45.0211C55.1564 43.4486 54.9412 42.2461 54.5103 41.4127C54.08 40.5798 53.2212 40.1634 51.9355 40.1634C51.0972 40.1634 50.3338 40.4169 49.6445 40.9235C48.9552 41.4295 48.4503 42.1259 48.1288 43.0113C47.8992 43.7219 47.7844 45.0502 47.7844 46.9949V52.9711C47.7844 53.9379 47.5632 54.6633 47.1209 55.1465C46.6791 55.6301 46.1076 55.8719 45.4074 55.8719C44.7295 55.8719 44.1729 55.6214 43.7365 55.121C43.2997 54.6201 43.082 53.9038 43.082 52.9716V39.1854C43.082 38.2767 43.2768 37.5981 43.6675 37.1496C44.0581 36.7011 44.5923 36.4766 45.2692 36.4766C45.6827 36.4766 46.0559 36.5758 46.3894 36.7739C46.7223 36.9719 46.9887 37.2692 47.1905 37.6648C47.3903 38.0614 47.4911 38.5445 47.4911 39.1152Z" fill="white"/>
<path d="M76.2391 53.6888L72.0879 46.7693L69.5384 49.2155V53.0072C69.5384 53.9276 69.2999 54.6352 68.8238 55.1301C68.3472 55.6254 67.7986 55.8728 67.1788 55.8728C66.4557 55.8728 65.8872 55.628 65.4737 55.1392C65.0603 54.6495 64.8535 53.9276 64.8535 52.972V32.6328C64.8535 31.5729 65.0543 30.7665 65.4563 30.2131C65.8579 29.6598 66.4324 29.3828 67.1788 29.3828C67.9019 29.3828 68.4764 29.6338 68.9013 30.1342C69.3257 30.6352 69.5384 31.3749 69.5384 32.3534V43.9209L74.8267 38.2939C75.4812 37.595 75.9807 37.1174 76.3251 36.8614C76.6695 36.6048 77.0884 36.4765 77.5824 36.4765C78.1678 36.4765 78.6558 36.6659 79.0465 37.0446C79.4366 37.4234 79.6324 37.8979 79.6324 38.4686C79.6324 39.1675 78.9953 40.0992 77.7206 41.2645L75.2233 43.588L80.0459 51.2768C80.4022 51.8475 80.6576 52.2812 80.8127 52.578C80.9678 52.8753 81.0453 53.1579 81.0453 53.4256C81.0453 54.1827 80.8415 54.7798 80.434 55.2166C80.0265 55.6534 79.4898 55.8718 78.8238 55.8718C78.2493 55.8718 77.807 55.7145 77.4974 55.3999C77.1863 55.0868 76.7669 54.5161 76.2391 53.6888Z" fill="white"/>
</svg>
