<svg width="20" height="20" viewBox="0 0 20 20" fill="none" xmlns="http://www.w3.org/2000/svg">
<path d="M10 2.88083C9.655 2.88083 9.375 2.60083 9.375 2.25583V0.625C9.375 0.28 9.655 0 10 0C10.345 0 10.625 0.28 10.625 0.625V2.25583C10.625 2.60083 10.345 2.88083 10 2.88083Z" fill="white"/>
<path d="M15.4754 5.14908C15.3154 5.14908 15.1554 5.08824 15.0337 4.96574C14.7895 4.72158 14.7895 4.32574 15.0337 4.08158L16.187 2.92824C16.4312 2.68408 16.827 2.68408 17.0712 2.92824C17.3154 3.17241 17.3154 3.56824 17.0712 3.81241L15.9179 4.96574C15.7954 5.08741 15.6354 5.14908 15.4754 5.14908Z" fill="white"/>
<path d="M19.375 10.625H17.7441C17.3991 10.625 17.1191 10.345 17.1191 10C17.1191 9.655 17.3991 9.375 17.7441 9.375H19.375C19.72 9.375 20 9.655 20 10C20 10.345 19.72 10.625 19.375 10.625Z" fill="white"/>
<path d="M16.6287 17.2541C16.4687 17.2541 16.3087 17.1932 16.187 17.0707L15.0337 15.9174C14.7895 15.6732 14.7895 15.2774 15.0337 15.0332C15.2779 14.7891 15.6737 14.7891 15.9179 15.0332L17.0712 16.1866C17.3154 16.4307 17.3154 16.8266 17.0712 17.0707C16.9487 17.1932 16.7887 17.2541 16.6287 17.2541Z" fill="white"/>
<path d="M3.37089 17.2541C3.21089 17.2541 3.05089 17.1932 2.92922 17.0707C2.68505 16.8266 2.68505 16.4307 2.92922 16.1866L4.08255 15.0332C4.32672 14.7891 4.72255 14.7891 4.96672 15.0332C5.21089 15.2774 5.21089 15.6732 4.96672 15.9174L3.81339 17.0707C3.69089 17.1932 3.53089 17.2541 3.37089 17.2541Z" fill="white"/>
<path d="M2.25583 10.625H0.625C0.28 10.625 0 10.345 0 10C0 9.655 0.28 9.375 0.625 9.375H2.25583C2.60083 9.375 2.88083 9.655 2.88083 10C2.88083 10.345 2.60083 10.625 2.25583 10.625Z" fill="white"/>
<path d="M4.52422 5.14908C4.36422 5.14908 4.20422 5.08824 4.08255 4.96574L2.92922 3.81241C2.68505 3.56824 2.68505 3.17241 2.92922 2.92824C3.17339 2.68408 3.56922 2.68408 3.81339 2.92824L4.96672 4.08158C5.21089 4.32574 5.21089 4.72158 4.96672 4.96574C4.84339 5.08741 4.68422 5.14908 4.52422 5.14908Z" fill="white"/>
<path d="M12.5 17.5V18.5417C12.5 19.3417 11.8417 20 11.0417 20H8.95833C8.25833 20 7.5 19.4667 7.5 18.3V17.5H12.5Z" fill="white"/>
<path d="M13.6754 5.46683C12.3088 4.35849 10.5088 3.92516 8.75042 4.30016C6.54209 4.75849 4.75042 6.55849 4.29209 8.76683C3.82542 11.0335 4.67542 13.2835 6.49209 14.6585C6.98375 15.0252 7.32542 15.5918 7.44209 16.2502V16.2585C7.45875 16.2502 7.48375 16.2502 7.50042 16.2502H12.5004C12.5171 16.2502 12.5254 16.2502 12.5421 16.2585V16.2502C12.6588 15.6168 13.0338 15.0335 13.6088 14.5835C15.0171 13.4668 15.8338 11.8002 15.8338 10.0002C15.8338 8.23349 15.0504 6.58349 13.6754 5.46683ZM13.1254 10.4168C12.7838 10.4168 12.5004 10.1335 12.5004 9.79183C12.5004 8.52516 11.4754 7.50016 10.2088 7.50016C9.86709 7.50016 9.58375 7.21683 9.58375 6.87516C9.58375 6.53349 9.86709 6.25016 10.2088 6.25016C12.1588 6.25016 13.7504 7.84183 13.7504 9.79183C13.7504 10.1335 13.4671 10.4168 13.1254 10.4168Z" fill="white"/>
</svg>
