<svg width="76" height="61" viewBox="0 0 76 61" fill="none" xmlns="http://www.w3.org/2000/svg">
<path d="M75.1919 20.4297C74.8749 18.7425 74.1393 17.1619 73.0525 15.833C71.9657 14.5041 70.5625 13.4694 68.9718 12.8239C69.0169 12.6117 69.0666 12.3996 69.1027 12.1874C69.2286 11.5543 69.2906 10.9101 69.2878 10.2645C69.2878 9.54562 69.2137 8.82864 69.0666 8.12495C68.604 5.92372 67.4302 3.93575 65.7262 2.46749C64.0222 0.999222 61.8826 0.132175 59.6371 0C59.434 0 42.4438 0 42.4438 0L46.5063 8.12495H58.8246C59.2269 8.20725 59.5959 8.40675 59.8851 8.69832C60.1742 8.98989 60.3707 9.3605 60.4496 9.76348C60.4708 9.89338 60.4829 10.0246 60.4857 10.1562C60.4862 10.5951 60.3475 11.023 60.0896 11.3782C59.8317 11.7334 59.4679 11.9977 59.0503 12.1333L58.9059 12.1784H54.3469L58.4771 20.4026H64.9364C65.4031 20.4735 65.8323 20.6993 66.1551 21.0436C66.4134 21.326 66.5884 21.6744 66.6607 22.0502C66.6607 22.0502 66.6607 22.0773 66.6607 22.0953C66.6822 22.2023 66.6928 22.3112 66.6923 22.4203C66.6915 22.5081 66.684 22.5956 66.6697 22.6821C66.6231 23.0535 66.4768 23.4053 66.2463 23.7001C66.0159 23.995 65.7098 24.2219 65.3607 24.3568C65.2279 24.4137 65.0883 24.4531 64.9454 24.4741H54.7486L58.7705 32.5359H64.3857C64.625 32.5359 67.6447 32.4772 69.5586 31.5474H69.5902C70.0819 31.2989 70.5542 31.0138 71.003 30.6942C73.0922 29.2215 74.5606 27.026 75.1242 24.5328C75.2558 23.9209 75.3328 23.2986 75.3544 22.6731V22.5783C75.3593 22.5469 75.3593 22.5149 75.3544 22.4835V22.312C75.3551 21.6747 75.2977 21.0386 75.1829 20.4117" fill="#6C6C6C"/>
<path d="M24.885 8.12764H41.97L37.8985 0.0117188H20.7188L24.885 8.12764Z" fill="#6C6C6C"/>
<path d="M31.1865 20.4118H45.0215L40.8913 12.1875H26.957C27.1331 12.5215 31.1865 20.4072 31.1865 20.4072" fill="#6C6C6C"/>
<path d="M53.4761 31.0517L50.1946 24.5156H33.2856C34.8474 27.5128 36.3415 30.4152 37.4429 32.5368H54.2209L54.0043 32.0854L53.4761 31.0517Z" fill="#6C6C6C"/>
<path d="M16.2454 0L0 32.4998L8.69369 32.5043L16.3041 17.3558L16.3131 17.3377L16.3221 17.3152L16.3311 17.3377L23.9686 32.5269L32.5178 32.5359L16.2454 0Z" fill="#6C6C6C"/>
<path d="M14.3101 49V40.6H21.0901V42.148H16.2421V43.876H18.5701C19.5861 43.876 20.3581 44.088 20.8861 44.512C21.4221 44.936 21.6901 45.552 21.6901 46.36C21.6901 47.192 21.3941 47.84 20.8021 48.304C20.2101 48.768 19.3741 49 18.2941 49H14.3101ZM16.2421 47.56H18.1861C18.6821 47.56 19.0621 47.464 19.3261 47.272C19.5901 47.072 19.7221 46.784 19.7221 46.408C19.7221 45.672 19.2101 45.304 18.1861 45.304H16.2421V47.56ZM23.1695 49V40.6H25.1015V49H23.1695ZM26.433 48.256L27.033 46.864C27.393 47.08 27.777 47.248 28.185 47.368C28.601 47.48 29.005 47.544 29.397 47.56C29.797 47.568 30.157 47.528 30.477 47.44C30.805 47.352 31.065 47.22 31.257 47.044C31.457 46.868 31.557 46.644 31.557 46.372C31.557 46.052 31.425 45.816 31.161 45.664C30.897 45.504 30.545 45.424 30.105 45.424H28.053V43.96H29.961C30.353 43.96 30.657 43.88 30.873 43.72C31.097 43.56 31.209 43.34 31.209 43.06C31.209 42.82 31.129 42.628 30.969 42.484C30.809 42.332 30.589 42.22 30.309 42.148C30.037 42.076 29.729 42.044 29.385 42.052C29.041 42.06 28.685 42.116 28.317 42.22C27.949 42.324 27.597 42.468 27.261 42.652L26.673 41.152C27.217 40.872 27.789 40.68 28.389 40.576C28.997 40.464 29.581 40.436 30.141 40.492C30.709 40.54 31.221 40.668 31.677 40.876C32.133 41.076 32.497 41.34 32.769 41.668C33.041 41.996 33.177 42.384 33.177 42.832C33.177 43.232 33.073 43.588 32.865 43.9C32.657 44.212 32.365 44.452 31.989 44.62C31.621 44.788 31.197 44.872 30.717 44.872L30.765 44.44C31.325 44.44 31.809 44.536 32.217 44.728C32.633 44.912 32.953 45.172 33.177 45.508C33.409 45.836 33.525 46.216 33.525 46.648C33.525 47.048 33.417 47.408 33.201 47.728C32.993 48.04 32.705 48.304 32.337 48.52C31.969 48.736 31.549 48.896 31.077 49C30.605 49.104 30.101 49.148 29.565 49.132C29.037 49.116 28.505 49.04 27.969 48.904C27.433 48.76 26.921 48.544 26.433 48.256ZM40.824 40.6H42.768V49H40.824V40.6ZM37.008 49H35.064V40.6H37.008V49ZM40.968 45.556H36.864V43.912H40.968V45.556ZM46.6606 43.984H50.7046V45.496H46.6606V43.984ZM46.8046 47.44H51.3766V49H44.8726V40.6H51.2206V42.16H46.8046V47.44ZM56.9188 49.144C56.2708 49.144 55.6668 49.04 55.1068 48.832C54.5548 48.616 54.0748 48.312 53.6668 47.92C53.2588 47.528 52.9388 47.068 52.7068 46.54C52.4828 46.012 52.3708 45.432 52.3708 44.8C52.3708 44.168 52.4828 43.588 52.7068 43.06C52.9388 42.532 53.2588 42.072 53.6668 41.68C54.0828 41.288 54.5668 40.988 55.1188 40.78C55.6708 40.564 56.2748 40.456 56.9308 40.456C57.6588 40.456 58.3148 40.584 58.8988 40.84C59.4908 41.088 59.9868 41.456 60.3868 41.944L59.1388 43.096C58.8508 42.768 58.5308 42.524 58.1788 42.364C57.8268 42.196 57.4428 42.112 57.0268 42.112C56.6348 42.112 56.2748 42.176 55.9468 42.304C55.6188 42.432 55.3348 42.616 55.0948 42.856C54.8548 43.096 54.6668 43.38 54.5308 43.708C54.4028 44.036 54.3388 44.4 54.3388 44.8C54.3388 45.2 54.4028 45.564 54.5308 45.892C54.6668 46.22 54.8548 46.504 55.0948 46.744C55.3348 46.984 55.6188 47.168 55.9468 47.296C56.2748 47.424 56.6348 47.488 57.0268 47.488C57.4428 47.488 57.8268 47.408 58.1788 47.248C58.5308 47.08 58.8508 46.828 59.1388 46.492L60.3868 47.644C59.9868 48.132 59.4908 48.504 58.8988 48.76C58.3148 49.016 57.6548 49.144 56.9188 49.144Z" fill="#6C6C6C"/>
</svg>
