<svg width="21" height="14" viewBox="0 0 21 14" fill="none" xmlns="http://www.w3.org/2000/svg">
<path d="M0 0.995417C0 0.445664 0.470101 0 1.05 0H19.95C20.5299 0 21 0.445664 21 0.995417C21 1.54517 20.5299 1.99083 19.95 1.99083H1.05C0.470101 1.99083 0 1.54517 0 0.995417Z" fill="#858A8F"/>
<path d="M0 7C0 6.45025 0.470101 6.00458 1.05 6.00458H19.95C20.5299 6.00458 21 6.45025 21 7C21 7.54975 20.5299 7.99542 19.95 7.99542H1.05C0.470101 7.99542 0 7.54975 0 7Z" fill="#858A8F"/>
<path d="M1.05 12.0092C0.470101 12.0092 0 12.4548 0 13.0046C0 13.5543 0.470101 14 1.05 14H19.95C20.5299 14 21 13.5543 21 13.0046C21 12.4548 20.5299 12.0092 19.95 12.0092H1.05Z" fill="#858A8F"/>
</svg>
