<svg width="20" height="17" viewBox="0 0 20 17" fill="none" xmlns="http://www.w3.org/2000/svg">
<path d="M13.3333 3.4C13.3333 5.27777 11.841 6.8 10 6.8C8.15905 6.8 6.66667 5.27777 6.66667 3.4C6.66667 1.52223 8.15905 0 10 0C11.841 0 13.3333 1.52223 13.3333 3.4Z" fill="#77C043"/>
<path d="M18.8889 5.66667C18.8889 6.91851 17.894 7.93333 16.6667 7.93333C15.4394 7.93333 14.4444 6.91851 14.4444 5.66667C14.4444 4.41482 15.4394 3.4 16.6667 3.4C17.894 3.4 18.8889 4.41482 18.8889 5.66667Z" fill="#77C043"/>
<path d="M14.4444 13.6C14.4444 11.0963 12.4546 9.06667 10 9.06667C7.5454 9.06667 5.55556 11.0963 5.55556 13.6V17H14.4444V13.6Z" fill="#77C043"/>
<path d="M5.55556 5.66667C5.55556 6.91851 4.56063 7.93333 3.33333 7.93333C2.10603 7.93333 1.11111 6.91851 1.11111 5.66667C1.11111 4.41482 2.10603 3.4 3.33333 3.4C4.56063 3.4 5.55556 4.41482 5.55556 5.66667Z" fill="#77C043"/>
<path d="M16.6667 17V13.6C16.6667 12.4053 16.3646 11.2826 15.8342 10.3069C16.1003 10.2371 16.3792 10.2 16.6667 10.2C18.5076 10.2 20 11.7222 20 13.6V17H16.6667Z" fill="#77C043"/>
<path d="M4.16585 10.3069C3.63539 11.2826 3.33333 12.4053 3.33333 13.6V17H0V13.6C0 11.7222 1.49238 10.2 3.33333 10.2C3.62079 10.2 3.89974 10.2371 4.16585 10.3069Z" fill="#77C043"/>
</svg>
