<svg width="13" height="13" viewBox="0 0 13 13" fill="none" xmlns="http://www.w3.org/2000/svg">
<path d="M12.4084 0H7.68109C7.35474 0 7.09017 0.26457 7.09017 0.590916C7.09017 0.917262 7.35474 1.18183 7.68109 1.18183H10.9818L4.89964 7.264C4.66887 7.49478 4.66887 7.86889 4.89964 8.09966C5.01499 8.21504 5.16622 8.27272 5.31745 8.27272C5.46867 8.27272 5.61993 8.21506 5.7353 8.09964L11.8175 2.01749V5.31819C11.8175 5.64454 12.082 5.90911 12.4084 5.90911C12.7347 5.90911 12.9993 5.64454 12.9993 5.31819V0.590916C12.9993 0.26457 12.7347 0 12.4084 0Z" fill="#858A8F"/>
<path d="M10.0454 5.90873C9.7191 5.90873 9.45453 6.1733 9.45453 6.49964V11.8178H1.18181V3.54509H6.5C6.82634 3.54509 7.09092 3.28052 7.09092 2.95417C7.09092 2.62783 6.82634 2.36328 6.5 2.36328H0.590916C0.26457 2.36328 0 2.62785 0 2.9542V12.4088C0 12.7351 0.26457 12.9996 0.590916 12.9996H10.0455C10.3718 12.9996 10.6364 12.7351 10.6364 12.4087V6.49964C10.6364 6.1733 10.3718 5.90873 10.0454 5.90873Z" fill="#858A8F"/>
</svg>