<svg width="23" height="26" viewBox="0 0 23 26" fill="none" xmlns="http://www.w3.org/2000/svg">
<path d="M20.001 25H2C1.73478 25 1.48043 24.8946 1.29289 24.7071C1.10536 24.5196 1 24.2652 1 24V2C1 1.73478 1.10536 1.48043 1.29289 1.29289C1.48043 1.10536 1.73478 1 2 1H14.001L21.001 8V24C21.001 24.1313 20.9751 24.2614 20.9249 24.3827C20.8746 24.504 20.8009 24.6143 20.7081 24.7071C20.6152 24.8 20.505 24.8736 20.3837 24.9239C20.2623 24.9741 20.1323 25 20.001 25Z" stroke="#3E4042" stroke-width="2" stroke-linecap="round" stroke-linejoin="round"/>
<path d="M13.5 1V8.5H21.001" stroke="#3E4042" stroke-width="2" stroke-linecap="round" stroke-linejoin="round"/>
<path d="M7.5 16.5L11 20L14.5 16.5" stroke="#3E4042" stroke-width="2" stroke-linecap="round" stroke-linejoin="round"/>
<path d="M11 12.5V20" stroke="#3E4042" stroke-width="2" stroke-linecap="round" stroke-linejoin="round"/>
</svg>