<svg width="224" height="29" viewBox="0 0 224 29" fill="none" xmlns="http://www.w3.org/2000/svg">
<path d="M0 4.12825H4.56109V6.74631C5.87873 4.83312 8.00724 3.62478 10.3385 3.72548C12.467 3.72548 14.4941 4.63173 15.8118 6.24284C17.3321 7.85395 18.0416 10.1699 18.0416 13.0901C18.0416 16.1109 17.3321 18.4269 15.8118 20.1387C14.3928 21.7498 12.467 22.656 10.3385 22.656C9.42624 22.656 8.41267 22.4546 7.60181 22.0519C6.58824 21.5484 5.67602 20.8435 4.96652 20.038V29.1005H0V4.12825ZM4.86516 12.788C4.86516 14.8019 5.27059 16.3123 6.08145 17.3192C6.79095 18.2255 7.90588 18.8296 9.12217 18.7289C10.2371 18.7289 11.2507 18.2255 11.9602 17.4199C12.6697 16.5137 13.0751 15.104 13.0751 13.0901C13.0751 11.1769 12.6697 9.76714 11.8588 8.86089C11.1493 7.95464 10.1358 7.45117 8.91946 7.45117C7.80453 7.45117 6.68959 7.95464 5.98009 8.7602C5.27059 9.66645 4.86516 11.0762 4.86516 12.788ZM19.9674 12.8887C19.9674 11.2776 20.3728 9.66645 21.1837 8.25673C21.9946 6.84701 23.1095 5.63866 24.6299 4.83311C26.1502 4.02755 27.8733 3.62478 29.5964 3.62478C32.1303 3.52408 34.6643 4.53103 36.4887 6.24284C38.3131 8.05534 39.2253 10.472 39.2253 12.9894C39.3267 18.1248 35.3738 22.3539 30.2045 22.4546H29.6977C27.9747 22.4546 26.3529 22.0519 24.8326 21.347C23.3122 20.6421 22.0959 19.5345 21.2851 18.0241C20.2715 16.5137 19.8661 14.7012 19.9674 12.8887ZM25.0353 13.0901C25.0353 14.9026 25.4407 16.2116 26.3529 17.2185C27.9747 19.031 30.7113 19.1317 32.4344 17.5206L32.7385 17.2185C33.6507 16.3123 34.0561 14.9026 34.0561 13.0901C34.0561 11.2776 33.6507 9.96853 32.7385 8.96159C31.1167 7.14909 28.3801 7.04839 26.657 8.6595L26.3529 8.96159C25.4407 9.96853 25.0353 11.2776 25.0353 13.0901ZM63.9566 4.12825V7.95464H60.6118V15.2046C60.6118 16.1109 60.6118 16.9165 60.7131 17.8227C60.8145 18.0241 60.9158 18.3262 61.1186 18.4269C61.3213 18.6282 61.6254 18.6283 61.9294 18.6283C62.6389 18.6283 63.2471 18.4269 63.8552 18.1248L64.2606 21.8505C63.0443 22.354 61.7267 22.5553 60.4091 22.5553C59.5982 22.5553 58.7873 22.4546 57.9765 22.1526C57.3683 21.9512 56.8615 21.5484 56.4561 21.0449C56.0507 20.4408 55.848 19.8366 55.7466 19.2324C55.6453 18.1248 55.5439 17.0171 55.5439 15.9095V8.05534H53.314V4.22895H55.5439V1.81227L60.5104 0.201172V4.32964H63.9566V4.12825ZM66.5919 4.12825H71.1529V6.64561C72.7747 4.73242 74.7004 3.72548 76.9303 3.72548C78.0452 3.72548 79.0588 3.92686 80.0724 4.43034C80.9846 4.93381 81.6941 5.63868 82.2009 6.54493C82.9104 5.63868 83.8226 4.93381 84.8362 4.43034C85.7484 3.92686 86.8633 3.72548 87.8769 3.72548C89.0932 3.72548 90.3095 3.92687 91.3231 4.53104C92.2353 5.03451 93.0462 5.94075 93.4516 6.9477C93.7557 7.75325 93.9584 8.96158 93.9584 10.6734V22.2533H88.9919V11.8817C88.9919 10.0692 88.7891 8.96159 88.4851 8.45811C87.9783 7.75325 87.1674 7.35047 86.3566 7.45117C84.8362 7.45117 83.5186 8.45811 83.1131 9.86783C82.8091 11.0762 82.6063 12.3852 82.7077 13.5935V22.2533H77.7412V12.3852C77.7412 10.6734 77.6398 9.46506 77.4371 8.96159C77.3357 8.45811 77.0317 8.05533 76.6263 7.85394C76.2208 7.55186 75.6127 7.45117 75.1059 7.45117C74.3964 7.45117 73.6869 7.65256 73.0787 8.05534C72.4706 8.45812 71.9638 9.06228 71.7611 9.76715C71.457 10.9755 71.3557 12.2845 71.3557 13.4928V22.2533H66.3891L66.5919 4.12825ZM95.7828 12.8887C95.7828 11.2776 96.1882 9.66645 96.9991 8.25673C97.81 6.84701 98.9249 5.63866 100.445 4.83311C101.966 4.02755 103.689 3.62478 105.412 3.62478C108.25 3.62478 110.48 4.53103 112.304 6.24284C114.129 8.05534 115.041 10.472 115.041 12.9894C115.142 18.1248 111.189 22.3539 106.02 22.4546H105.513C103.79 22.4546 102.168 22.0519 100.648 21.347C99.1276 20.6421 97.9113 19.5345 97.1005 18.0241C96.1882 16.5137 95.7828 14.7012 95.7828 12.8887ZM100.851 13.0901C100.851 14.9026 101.256 16.2116 102.168 17.2185C103.79 19.031 106.527 19.1317 108.25 17.5206L108.554 17.2185C109.466 16.3123 109.871 14.9026 109.871 13.0901C109.871 11.2776 109.466 9.96853 108.554 8.96159C106.932 7.14909 104.195 7.04839 102.472 8.6595L102.168 8.96159C101.256 9.96853 100.851 11.2776 100.851 13.0901ZM133.792 22.1526H128.927V12.8887C128.927 10.9755 128.825 9.66645 128.623 9.06229C128.42 8.55882 128.116 8.05534 127.609 7.75326C127.102 7.45117 126.494 7.24978 125.886 7.24978C125.075 7.24978 124.264 7.45117 123.555 7.95464C122.947 8.35742 122.44 9.06228 122.136 9.76715C121.933 10.472 121.73 11.8817 121.73 13.8956V22.0519H116.764V4.02756H121.325V6.64561C122.744 4.73242 125.075 3.52408 127.406 3.62478C128.42 3.62478 129.434 3.82617 130.346 4.22895C131.157 4.53103 131.866 5.0345 132.373 5.63867C132.88 6.24283 133.184 6.94769 133.285 7.65256C133.488 8.76019 133.589 9.76714 133.589 10.8748L133.792 22.1526ZM148.387 16.413L153.253 17.2185C152.746 18.8296 151.631 20.2394 150.313 21.2463C148.793 22.2533 146.968 22.656 145.245 22.656C142.002 22.656 139.671 21.6491 138.049 19.5345C136.833 17.9234 136.224 15.8088 136.224 13.2915C136.224 10.2706 137.035 7.95464 138.657 6.24284C140.177 4.53103 142.407 3.62478 144.738 3.72548C147.475 3.72548 149.705 4.63172 151.225 6.34352C152.847 8.15602 153.557 10.8748 153.557 14.4998H141.292C141.292 15.7081 141.698 16.9165 142.509 17.8227C143.218 18.6283 144.232 19.031 145.347 19.031C146.056 19.031 146.766 18.8296 147.272 18.4269C147.779 17.8227 148.185 17.1178 148.387 16.413ZM148.691 11.5796C148.691 10.1699 148.286 9.16298 147.576 8.45811C146.157 7.04839 143.928 7.04839 142.509 8.35741L142.407 8.45811C141.698 9.36436 141.292 10.472 141.394 11.5796H148.691ZM50.0706 8.35741C47.8407 8.35741 46.1176 9.76714 46.1176 12.8887V22.2533H41.1511V4.22895H45.4081V7.35047H45.5095C46.4217 5.0345 48.3475 3.82616 50.0706 3.82616C50.476 3.82616 50.7801 3.82617 51.1855 3.92686V8.45811C50.8815 8.35742 50.476 8.25672 50.0706 8.35741Z" fill="#FAFAFA"/>
<path d="M156.496 21.9505V18.5269H160.044V22.0512H156.496V21.9505ZM175.146 15.4054L178.288 15.8082C178.085 17.7214 177.173 19.4332 175.653 20.6415C174.234 21.8498 172.409 22.454 170.585 22.3533C168.051 22.3533 166.024 21.5477 164.503 19.9366C162.983 18.3255 162.172 16.0095 162.172 12.9887C162.172 11.2769 162.476 9.4644 163.186 7.85329C163.794 6.44357 164.807 5.33594 166.226 4.53039C167.544 3.82553 169.064 3.42274 170.686 3.42274C172.409 3.32205 174.234 3.82552 175.653 4.93316C176.97 5.9401 177.883 7.45052 178.085 9.16232L175.045 9.56511C174.842 8.55817 174.335 7.55121 173.524 6.84635C172.815 6.24218 171.801 5.9401 170.889 5.9401C169.47 5.83941 168.051 6.54428 167.037 7.55122C166.024 8.65886 165.517 10.3707 165.517 12.7873C165.517 15.204 166.024 17.0165 166.936 18.0234C167.848 19.1311 169.267 19.7353 170.686 19.6346C171.801 19.6346 172.916 19.2318 173.727 18.5269C174.436 18.0234 174.943 16.9158 175.146 15.4054ZM179.707 12.9887C179.707 9.6658 180.619 7.14844 182.545 5.53733C184.167 4.2283 186.295 3.52344 188.322 3.52344C190.654 3.42275 192.883 4.32899 194.607 5.9401C196.228 7.55122 197.039 9.76649 197.039 12.6866C197.039 15.0026 196.634 16.8151 195.924 18.1241C195.215 19.4332 194.1 20.5408 192.782 21.2457C191.363 21.9505 189.843 22.3533 188.322 22.3533C185.687 22.3533 183.66 21.5477 182.038 19.9366C180.518 18.3255 179.707 16.0095 179.707 12.9887ZM182.95 12.9887C182.95 15.3047 183.457 17.0165 184.471 18.2248C186.397 20.3394 189.741 20.5408 191.87 18.6276L192.275 18.2248C193.289 17.0165 193.796 15.3047 193.796 12.9887C193.796 10.7734 193.289 9.06163 192.275 7.95399C190.35 5.83941 187.005 5.63803 184.876 7.55122C184.775 7.65192 184.572 7.7526 184.471 7.95399C183.457 8.96094 182.95 10.6727 182.95 12.9887ZM198.864 21.9505V3.92622H201.702V6.44358C202.31 5.53733 203.121 4.83246 204.033 4.32899C205.046 3.82551 206.161 3.52344 207.276 3.52344C208.492 3.52344 209.607 3.72482 210.621 4.32899C211.533 4.83246 212.141 5.73871 212.445 6.64496C213.966 4.53038 215.79 3.52344 218.223 3.52344C220.047 3.52344 221.466 4.02692 222.48 5.03386C223.493 6.0408 224 7.55122 224 9.56511V21.9505H220.858V10.5721C220.858 9.6658 220.757 8.75955 220.554 7.95399C220.351 7.45052 219.946 6.94705 219.439 6.64496C218.831 6.34288 218.223 6.14149 217.513 6.14149C216.297 6.14149 215.081 6.54427 214.27 7.45052C213.459 8.25608 212.952 9.6658 212.952 11.4783V21.9505H209.81V10.27C209.81 8.86025 209.506 7.8533 208.999 7.24914C208.492 6.54427 207.682 6.24219 206.465 6.24219C205.553 6.24219 204.742 6.44358 204.033 6.94705C203.323 7.45052 202.715 8.05469 202.411 8.96094C202.006 10.1693 201.803 11.4783 201.904 12.6866V22.0512L198.864 21.9505Z" fill="#FAFAFA"/>
</svg>