                <svg width="55" height="49" viewBox="0 0 55 49" fill="none" xmlns="http://www.w3.org/2000/svg">
                <path d="M54.9996 33.1201C54.7845 34.2441 54.6784 35.4027 54.3357 36.4849C52.199 43.2693 47.6218 47.3666 40.667 48.7367C38.3368 49.1958 36.0052 49.0246 33.7037 48.4359C33.5029 48.3707 33.2892 48.3559 33.0813 48.3928C31.1813 48.9296 29.2354 48.9857 27.2823 48.9843C19.9308 48.9766 12.5789 48.9699 5.22641 48.9641C3.75946 48.9641 2.85893 48.056 2.84602 46.578C2.84602 46.0958 2.84602 45.6123 2.84602 45.0567L2.2839 45.0294C0.935969 44.9617 0.0612458 44.0594 0.0454721 42.7123C0.0454721 42.3885 0.0454721 42.0661 0.0454721 41.7423C0.0684156 40.4096 0.993328 39.4885 2.32405 39.4727H2.90625C2.67968 37.2276 2.82164 35.6632 5.44438 35.4588V33.2021C4.73743 33.2021 4.01041 33.2021 3.28195 33.2021C2.8514 33.2166 2.42037 33.2041 1.99137 33.1647C0.835591 33.0208 0.0669817 32.1314 0.0411702 30.9628C0.0325663 30.6217 0.0411702 30.2806 0.0411702 29.9395C0.0583778 28.5752 0.974686 27.6541 2.33553 27.6296C2.5119 27.6296 2.68828 27.6296 2.81877 27.6296C2.85462 26.8438 2.77002 26.0681 2.96217 25.3672C3.13688 24.8053 3.13987 24.2038 2.97078 23.6402C2.78149 22.9782 2.82738 22.2111 2.92202 21.5131C3.06542 20.4711 3.94301 19.799 4.99554 19.7587C5.13894 19.7587 5.28234 19.7587 5.43864 19.7587V17.4013H3.34934C2.97364 17.4013 2.59794 17.4013 2.22224 17.4013C1.14533 17.3754 0.214681 16.6371 0.0956611 15.5678C-0.00328297 14.6553 -0.126605 13.6968 0.403965 12.8333C0.428869 12.763 0.438676 12.6882 0.432745 12.6138C0.426814 12.5394 0.405278 12.467 0.36955 12.4016C-0.126605 11.4085 -0.0606419 10.3694 0.196039 9.35626C0.409701 8.51145 1.25718 7.94585 2.13334 7.90268C2.37998 7.89117 2.62806 7.90268 2.8747 7.90268V5.55824C2.65387 5.55824 2.42587 5.56544 2.19786 5.55824C1.63634 5.55002 1.09956 5.32502 0.699003 4.92998C0.298449 4.53494 0.0649142 4.00022 0.0469061 3.43688C0.0282644 3.00513 0.0282644 2.57337 0.0469061 2.14161C0.0623149 1.56862 0.302508 1.02491 0.715248 0.628731C1.12799 0.232548 1.67989 0.0159374 2.25092 0.0260091C3.97169 0.00873886 5.69246 0.017374 7.40318 0.0260091C8.01119 0.0260091 8.33957 0.313846 8.34387 0.814684C8.34817 1.31552 8.00832 1.62926 7.41609 1.63502C5.80574 1.64797 4.19539 1.63502 2.58647 1.63502C1.79062 1.63502 1.65726 1.77894 1.65439 2.57769C1.65439 3.94348 1.65439 3.94348 3.0267 3.94348H33.1401C34.0851 3.94348 34.1812 3.84417 34.1826 2.89431C34.1826 2.67987 34.1912 2.46255 34.1826 2.24811C34.1597 1.86961 33.9589 1.65517 33.5732 1.63934C33.3939 1.6307 33.2147 1.63934 33.0369 1.63934C25.9703 1.63934 18.9036 1.63934 11.837 1.63934C11.601 1.64687 11.3648 1.62805 11.1329 1.58321C10.9437 1.55374 10.7737 1.45036 10.6601 1.29561C10.5464 1.14085 10.4984 0.947285 10.5264 0.757116C10.525 0.661773 10.5426 0.567116 10.578 0.478645C10.6135 0.390173 10.6661 0.309653 10.7328 0.241762C10.7995 0.17387 10.879 0.119963 10.9666 0.0831716C11.0543 0.0463803 11.1484 0.0274389 11.2434 0.0274483C11.4226 0.0144956 11.6019 0.0216915 11.7811 0.0216915C18.918 0.0216915 26.0563 0.0504753 33.1946 0.000103741C34.9541 -0.0128489 35.9192 1.18887 35.793 2.61798C35.7542 3.02671 35.793 3.44264 35.793 3.94923C35.9751 3.94923 36.1973 3.93916 36.4196 3.94923C37.6987 4.02263 38.5706 4.93508 38.5906 6.22027C38.5906 6.54409 38.5906 6.8679 38.5906 7.19028C38.5763 8.58917 37.6643 9.49298 36.2604 9.51745C36.1027 9.51745 35.945 9.51745 35.7614 9.51745C35.7614 10.237 35.9048 10.9566 35.7241 11.574C35.4976 12.3325 35.4058 12.9931 35.7442 13.7328C35.8747 14.0207 35.7944 14.4006 35.8073 14.6856C36.4999 14.6856 37.171 14.6856 37.8407 14.6856C41.5762 14.6611 44.9446 15.7808 47.9688 17.9655C48.4908 18.344 48.617 18.7844 48.3359 19.1974C48.0391 19.6292 47.573 19.668 47.0253 19.2723C44.0139 17.0919 40.6455 16.1176 36.9387 16.319C36.7781 16.3277 36.6175 16.3406 36.4583 16.3593C36.3784 16.3837 36.301 16.416 36.2275 16.4558C37.3431 17.0127 38.2551 17.7064 39.5471 17.8374C46.1032 18.5052 51.3057 23.8633 51.9137 30.4432C52.6178 37.9874 47.3981 44.7228 39.9429 45.7792C38.7785 45.9433 37.7274 46.1994 36.7795 46.8845C36.6196 46.9897 36.454 47.0858 36.2834 47.1723L36.3006 47.3278C37.2026 47.3278 38.1074 47.3781 39.0065 47.3191C46.4804 46.8356 52.6292 40.8126 53.3089 33.3302C53.6932 29.1264 52.5389 25.3859 49.9534 22.0744C49.9205 22.0326 49.8846 21.9923 49.8516 21.9491C49.5118 21.4886 49.539 21.005 49.9219 20.7114C50.3048 20.4178 50.7292 20.4869 51.0949 20.9288C52.3855 22.4903 53.4136 24.2173 54.013 26.153C54.4088 27.4296 54.6153 28.7651 54.9049 30.0748C54.9394 30.2288 54.9709 30.3842 55.0039 30.5382L54.9996 33.1201ZM44.0799 31.7658C44.0899 23.1638 37.118 16.3047 28.3521 16.2903C20.1311 16.2773 13.1434 23.3322 13.1319 31.6521C13.1204 40.4225 19.982 47.3494 28.679 47.3494C37.1653 47.3494 44.0713 40.3621 44.0799 31.7658ZM40.69 19.6767C43.9537 23.1019 45.6831 27.1187 45.6788 31.8263C45.6745 36.5339 43.948 40.5478 40.6842 43.9745C45.3389 43.0563 50.4697 38.4739 50.3679 31.6349C50.266 24.7959 45.0263 20.4984 40.69 19.6767ZM20.7162 7.90412H35.8489C35.9923 7.90412 36.1357 7.90412 36.2791 7.90412C36.7322 7.90412 36.9817 7.68392 36.9832 7.21475V6.67505C36.9832 5.66043 36.8871 5.56256 35.889 5.56256H5.84159C4.47788 5.56256 4.45063 5.58991 4.45637 6.93411C4.45637 7.74437 4.61698 7.90556 5.42717 7.90556L20.7162 7.90412ZM17.8597 11.8518H32.9809C33.1602 11.8518 33.3394 11.8518 33.5173 11.8518C33.9474 11.8245 34.1683 11.5985 34.1697 11.1624C34.1697 10.9638 34.1697 10.7667 34.1697 10.5695C34.1697 9.63258 34.0622 9.52752 33.1186 9.52752H2.38858C1.90533 9.51888 1.65582 9.75203 1.65582 10.2471C1.65582 10.4256 1.65582 10.6055 1.65582 10.7854C1.65582 11.7511 1.76624 11.8619 2.7356 11.8619L17.8597 11.8518ZM34.1754 15.2555C34.1754 14.7575 34.1754 14.4553 34.1754 14.1516C34.1754 13.7199 33.9417 13.4925 33.5115 13.4781C33.3151 13.4781 33.1172 13.4781 32.9207 13.4781H3.03961C1.64722 13.4781 1.64722 13.4781 1.65439 14.8885C1.65439 15.6397 1.81356 15.7952 2.56926 15.7952C9.09671 15.7952 15.6237 15.7952 22.1502 15.7952C22.3987 15.7964 22.6458 15.7565 22.8815 15.6772C25.9863 14.573 29.3404 14.3798 32.5508 15.1202C33.044 15.231 33.5732 15.2051 34.1754 15.2555ZM21.1191 47.3494C20.0895 46.66 19.1245 45.9893 18.1322 45.3633C17.8424 45.1738 17.5081 45.0641 17.1628 45.0452C13.3728 45.0236 9.58139 45.0323 5.7914 45.0323C4.46497 45.0323 4.45063 45.0452 4.45637 46.3894C4.45637 47.2083 4.59977 47.3494 5.43004 47.3494H21.1191ZM15.9568 43.4161C15.3832 42.6461 14.8813 41.9524 14.3508 41.2803C14.2296 41.1637 14.0684 41.0983 13.9005 41.0975C13.2753 41.0774 12.6501 41.0889 12.0249 41.0889C8.84528 41.0889 5.66617 41.0889 2.48753 41.0889C1.84367 41.0889 1.66729 41.2717 1.66012 41.9179C1.66012 42.0618 1.66012 42.2057 1.66012 42.3496C1.66012 43.3081 1.76911 43.4146 2.74851 43.4161H15.9583H15.9568ZM19.2779 17.4013H8.40123C7.03752 17.4013 7.02318 17.4157 7.02748 18.7786C7.02748 19.5802 7.19669 19.7486 8.00689 19.7486C10.4203 19.7486 12.8351 19.717 15.2484 19.7659C16.0845 19.7832 16.7369 19.622 17.3334 18.983C17.8697 18.4087 18.5566 17.9741 19.2736 17.4013H19.2779ZM11.6865 29.2429H2.99659C1.65152 29.2429 1.65152 29.2429 1.65439 30.5871C1.65439 31.4305 1.80926 31.5845 2.65817 31.5845H10.9609C11.1358 31.5845 11.3093 31.5701 11.4972 31.5615C11.5574 30.7814 11.6148 30.0388 11.6865 29.2429ZM15.0161 21.3648H14.3651C11.5574 21.3648 8.74968 21.3807 5.94197 21.3648C4.3775 21.3519 4.43773 21.4138 4.45924 22.9479C4.45924 23.4819 4.6729 23.6805 5.22641 23.6819C7.89073 23.6877 10.5551 23.6853 13.2194 23.6747C13.3101 23.6711 13.3992 23.6486 13.4809 23.6087C13.5625 23.5688 13.6351 23.5124 13.694 23.443C14.1357 22.7867 14.5429 22.1146 15.0161 21.3648ZM13.2739 39.4727C13 38.7891 12.7218 38.1774 12.511 37.537C12.3991 37.1973 12.2242 37.1167 11.8973 37.1196C9.88109 37.134 7.86349 37.1268 5.84732 37.1268C4.47214 37.1268 4.44777 37.1513 4.45637 38.5401C4.45637 39.3014 4.63275 39.4727 5.4114 39.4727H13.2739ZM12.0148 27.6325L12.7619 25.2924H6.04234C5.75555 25.2924 5.46876 25.2924 5.18196 25.2924C4.79622 25.2924 4.45637 25.4622 4.48075 25.868C4.51516 26.4437 4.14233 27.1504 4.85932 27.5821C4.94129 27.6183 5.03118 27.6327 5.1203 27.6239C7.40892 27.6325 9.69611 27.6325 12.0148 27.6325ZM11.8829 35.512L11.5531 33.218C10.208 33.218 8.88018 33.1273 7.57239 33.2511C6.70197 33.3331 7.10779 34.1822 7.03752 34.7104C6.9816 35.1249 7.12499 35.4991 7.61111 35.5048C9.02357 35.5178 10.4317 35.5048 11.8829 35.5048V35.512Z" fill="#FAFAFA"/>
                <path d="M42.708 31.8522C42.6807 40.26 35.3603 46.7896 26.9859 45.8541C24.8652 45.612 22.8287 44.8821 21.0349 43.7212C20.7051 43.5125 20.4498 43.2362 20.5646 42.8462C20.6377 42.603 20.8614 42.2705 21.0665 42.2331C21.3926 42.1927 21.7228 42.2648 22.0028 42.4375C24.0046 43.6819 26.3147 44.3362 28.6694 44.3257C35.4736 44.2969 41.0675 38.7503 41.0532 31.9271C41.0431 27.005 38.852 23.2185 34.5673 20.8684C30.2826 18.5182 25.9262 18.7081 21.7963 21.3519C15.7608 25.2104 14.3282 33.6757 18.676 39.3633C18.795 39.5202 18.9212 39.6728 19.0417 39.8282C19.4059 40.2988 19.4016 40.755 19.0331 41.0688C18.6645 41.3825 18.1842 41.3149 17.7812 40.8299C16.7721 39.6146 15.9754 38.2365 15.4252 36.7541C12.2991 28.378 17.7095 19.1629 26.5285 17.8446C34.3407 16.6731 41.5637 22.1809 42.5703 30.0878C42.642 30.6707 42.6621 31.2636 42.708 31.8522Z" fill="#FAFAFA"/>
                <path d="M22.6914 31.171V30.1564H34.3267V31.171H22.6914ZM22.6914 33.6738V32.6577H34.3267V33.6781L22.6914 33.6738ZM28.7141 38.4605C27.6415 38.4605 26.7381 38.3031 26.0039 37.9884C25.3343 37.7266 24.7539 37.277 24.3319 36.6932C23.9527 36.1489 23.7521 35.4993 23.7583 34.8352C23.751 34.5348 23.8031 34.2359 23.9117 33.9558C24.0082 33.7172 24.1391 33.4942 24.3003 33.2938H27.2457C26.9516 33.4173 26.6644 33.5567 26.3853 33.7112C26.1482 33.8366 25.9415 34.013 25.7802 34.2278C25.6318 34.4377 25.5553 34.6902 25.5622 34.9474C25.5582 35.3099 25.6725 35.6638 25.8877 35.9549C26.1468 36.2814 26.4959 36.5242 26.8915 36.6529C27.4592 36.8402 28.0552 36.9259 28.6524 36.9062C29.4647 36.9091 30.2723 36.7838 31.0457 36.5349C31.7192 36.3332 32.3508 36.0109 32.9099 35.5836L33.4347 36.9968C32.7754 37.4789 32.0387 37.8439 31.2565 38.0762C30.4311 38.3317 29.5721 38.4612 28.7084 38.4605H28.7141ZM29.4727 30.699C29.8206 30.5426 30.1399 30.3915 30.4306 30.2456C30.6965 30.1189 30.939 29.9476 31.1475 29.739C31.2403 29.644 31.3134 29.5315 31.3626 29.408C31.4119 29.2845 31.4362 29.1524 31.4343 29.0194C31.438 28.6557 31.327 28.3001 31.1174 28.0034C30.8632 27.6713 30.5178 27.4212 30.1237 27.2838C29.5645 27.0846 28.973 26.9923 28.38 27.0118C27.7838 27.0159 27.19 27.0888 26.6105 27.2291C25.9937 27.3755 25.3984 27.6014 24.8395 27.9012L24.3692 26.4505C24.9676 26.1163 25.6088 25.8659 26.2749 25.7064C26.946 25.5405 27.6344 25.4554 28.3255 25.4531C29.3866 25.4531 30.2781 25.6134 30.9998 25.9338C31.6616 26.2054 32.2344 26.6576 32.6532 27.2392C33.033 27.7832 33.2335 28.4329 33.2268 29.0971C33.2335 29.4084 33.185 29.7183 33.0834 30.0125C32.9923 30.2627 32.8648 30.4979 32.7048 30.7105L29.4727 30.699Z" fill="#FAFAFA"/>
                </svg>