<svg width="226" height="39" viewBox="0 0 226 39" fill="none" xmlns="http://www.w3.org/2000/svg">
<path d="M42.842 32.8215H37.2715V13.127H57.3251V32.8215H51.7558V16.9529H42.842V32.8215Z" fill="#FAFAFA"/>
<path d="M60.0254 18.5276V38.0268H65.1588V31.3586C66.8791 33.2163 69.6816 33.3567 70.3571 33.3567C75.2529 33.3567 78.2573 30.2325 78.2573 25.7027C78.2573 20.9764 75.2858 17.9941 70.4589 17.9941C69.2421 17.9941 66.8791 18.1911 64.9208 20.2455H64.8198L64.8531 18.5276H60.0254ZM64.9208 25.6461C64.9208 21.6518 67.3864 20.8643 68.9396 20.8643C70.4589 20.8643 72.9232 21.6518 72.9232 25.6461C72.9232 28.1231 71.8771 30.4873 68.9396 30.4873C65.9349 30.4873 64.9208 28.1231 64.9208 25.6461Z" fill="#FAFAFA"/>
<path d="M90.9826 31.1059C89.0928 32.8771 87.272 33.3564 85.2443 33.3564C79.7074 33.3564 79.5039 29.1919 79.5039 27.4761V18.5273H84.6361V26.7998C84.6361 29.6425 85.6177 30.487 87.5067 30.487C90.7462 30.487 90.9826 27.5885 90.9826 26.5474V18.5273H96.1169V32.8209H90.9826V31.1059Z" fill="#FAFAFA"/>
<path d="M103.48 26.7998H106.62C109.049 26.7998 109.556 27.5319 109.556 28.4889C109.556 29.1073 109.217 29.9519 106.684 29.9519H103.48V26.7998ZM98.3477 18.5273V32.8209H108.544C112.257 32.8209 114.823 32.0896 114.823 29.1636C114.823 26.9126 113.572 25.9281 110.737 25.4221V25.3372C112.595 25.084 114.216 23.93 114.216 21.9893C114.216 18.5273 110.164 18.5273 108.577 18.5273H98.3477ZM103.48 21.3988H106.246C107.699 21.3988 108.947 21.6237 108.947 22.8043C108.947 24.0999 106.989 24.1278 106.145 24.1278H103.48V21.3988Z" fill="#FAFAFA"/>
<path d="M121.301 23.1428C121.301 21.0326 123.529 20.8643 124.441 20.8643C125.016 20.8643 127.141 20.8926 127.211 22.7492C127.211 22.89 127.211 23.0024 127.211 23.1428C127.109 24.5495 125.759 24.2684 121.979 24.7465C118.871 25.1684 115.596 25.9555 115.596 29.2205C115.596 30.4024 116.103 33.3567 121.572 33.3567C123.667 33.3567 125.963 32.8211 127.311 31.4152H127.415L127.852 32.8211H133.254V32.5688C132.275 32.3714 132.207 31.4152 132.24 29.8672L132.342 23.3389C132.376 21.6802 132.207 17.9941 124.476 17.9941C122.619 17.9941 116.643 18.1624 116.406 23.1428H121.301ZM127.244 26.9129C127.244 29.7831 124.745 30.4873 123.498 30.4873C122.55 30.4873 120.863 30.1767 120.863 28.8269C120.863 27.2223 122.786 26.9129 123.868 26.7722C125.86 26.4906 125.691 26.5756 127.244 26.0121V26.9129Z" fill="#FAFAFA"/>
<path d="M132.916 21.3988V18.5273H149.391V21.3988H143.719V32.8209H138.588V21.3988H132.916Z" fill="#FAFAFA"/>
<path d="M155.946 16.9529H168.74V13.127H150.373V32.8215H161.649C167.12 32.8215 170.63 30.9095 170.63 26.8849C170.63 20.5835 163.608 20.442 161.649 20.442H155.946V16.9529ZM155.946 24.2688H160.569C161.923 24.2688 164.622 24.4099 164.622 26.7725C164.622 28.6298 162.663 28.9951 160.47 28.9951H155.946V24.2688Z" fill="#FAFAFA"/>
<path d="M177.319 23.1428C177.319 21.0326 179.548 20.8643 180.457 20.8643C181.032 20.8643 183.16 20.8926 183.228 22.7492C183.228 22.89 183.228 23.0024 183.228 23.1428C183.126 24.5495 181.776 24.2684 177.992 24.7465C174.888 25.1684 171.613 25.9555 171.613 29.2205C171.613 30.4024 172.118 33.3567 177.588 33.3567C179.681 33.3567 181.977 32.8211 183.328 31.4152H183.428L183.868 32.8211H189.269V32.5688C188.294 32.3714 188.223 31.4152 188.258 29.8672L188.359 23.3389C188.392 21.6802 188.223 17.9941 180.491 17.9941C178.636 17.9941 172.659 18.1624 172.423 23.1428H177.319ZM183.26 26.9129C183.26 29.7831 180.761 30.4873 179.513 30.4873C178.568 30.4873 176.88 30.1767 176.88 28.8269C176.88 27.2223 178.803 26.9129 179.882 26.7722C181.876 26.4906 181.707 26.5756 183.26 26.0121V26.9129Z" fill="#FAFAFA"/>
<path d="M195.677 32.8209H190.545V18.5273H195.677V23.9021H201.856V18.5273H206.988V32.8209H201.856V26.7719H195.677V32.8209Z" fill="#FAFAFA"/>
<path d="M219.956 18.5273H225.66L218.605 25.2235L225.999 32.8209H219.987L214.451 26.5753H214.352V32.8209H209.221V18.5273H214.352V24.2681H214.451L219.956 18.5273Z" fill="#FAFAFA"/>
<path d="M0 32.8719H12.8543V20.0176H0V32.8719Z" fill="#FAFAFA"/>
<path d="M26.0992 6.79547C26.0992 11.1664 26.0992 21.7082 26.0992 26.0792C24.8784 26.0792 24.6633 26.0792 23.4769 26.0792C22.3447 16.5424 16.3523 10.5517 6.81387 9.41943C6.81387 8.23303 6.81387 8.01881 6.81387 6.79547C11.1852 6.79547 21.7279 6.79547 26.0992 6.79547ZM0.0175781 0V15.9995H3.41675C12.3618 15.9995 16.8973 20.5342 16.8973 29.4763V32.8755H32.8955V0H0.0175781Z" fill="#FAFAFA"/>
</svg>
