<svg width="144" height="144" viewBox="0 0 144 144" fill="none" xmlns="http://www.w3.org/2000/svg">
<g clip-path="url(#clip0_2748_15802)">
<path d="M144 0H0V144H144V0Z" fill="white"/>
<path d="M47.9984 8.72656H43.6348V13.0902H47.9984V8.72656Z" fill="black"/>
<path d="M52.3636 8.72656H48V13.0902H52.3636V8.72656Z" fill="black"/>
<path d="M56.7269 8.72656H52.3633V13.0902H56.7269V8.72656Z" fill="black"/>
<path d="M78.5453 8.72656H74.1816V13.0902H78.5453V8.72656Z" fill="black"/>
<path d="M82.9086 8.72656H78.5449V13.0902H82.9086V8.72656Z" fill="black"/>
<path d="M87.2718 8.72656H82.9082V13.0902H87.2718V8.72656Z" fill="black"/>
<path d="M56.7269 13.0898H52.3633V17.4535H56.7269V13.0898Z" fill="black"/>
<path d="M61.0902 13.0898H56.7266V17.4535H61.0902V13.0898Z" fill="black"/>
<path d="M65.4535 13.0898H61.0898V17.4535H65.4535V13.0898Z" fill="black"/>
<path d="M69.8168 13.0898H65.4531V17.4535H69.8168V13.0898Z" fill="black"/>
<path d="M74.182 13.0898H69.8184V17.4535H74.182V13.0898Z" fill="black"/>
<path d="M82.9086 13.0898H78.5449V17.4535H82.9086V13.0898Z" fill="black"/>
<path d="M87.2718 13.0898H82.9082V17.4535H87.2718V13.0898Z" fill="black"/>
<path d="M100.362 13.0898H95.998V17.4535H100.362V13.0898Z" fill="black"/>
<path d="M47.9984 17.4531H43.6348V21.8168H47.9984V17.4531Z" fill="black"/>
<path d="M56.7269 17.4531H52.3633V21.8168H56.7269V17.4531Z" fill="black"/>
<path d="M61.0902 17.4531H56.7266V21.8168H61.0902V17.4531Z" fill="black"/>
<path d="M74.182 17.4531H69.8184V21.8168H74.182V17.4531Z" fill="black"/>
<path d="M78.5453 17.4531H74.1816V21.8168H78.5453V17.4531Z" fill="black"/>
<path d="M82.9086 17.4531H78.5449V21.8168H82.9086V17.4531Z" fill="black"/>
<path d="M87.2718 17.4531H82.9082V21.8168H87.2718V17.4531Z" fill="black"/>
<path d="M100.362 17.4531H95.998V21.8168H100.362V17.4531Z" fill="black"/>
<path d="M52.3636 21.8184H48V26.182H52.3636V21.8184Z" fill="black"/>
<path d="M56.7269 21.8184H52.3633V26.182H56.7269V21.8184Z" fill="black"/>
<path d="M65.4535 21.8184H61.0898V26.182H65.4535V21.8184Z" fill="black"/>
<path d="M74.182 21.8184H69.8184V26.182H74.182V21.8184Z" fill="black"/>
<path d="M87.2718 21.8184H82.9082V26.182H87.2718V21.8184Z" fill="black"/>
<path d="M95.9984 21.8184H91.6348V26.182H95.9984V21.8184Z" fill="black"/>
<path d="M52.3636 26.1816H48V30.5453H52.3636V26.1816Z" fill="black"/>
<path d="M56.7269 26.1816H52.3633V30.5453H56.7269V26.1816Z" fill="black"/>
<path d="M61.0902 26.1816H56.7266V30.5453H61.0902V26.1816Z" fill="black"/>
<path d="M69.8168 26.1816H65.4531V30.5453H69.8168V26.1816Z" fill="black"/>
<path d="M74.182 26.1816H69.8184V30.5453H74.182V26.1816Z" fill="black"/>
<path d="M78.5453 26.1816H74.1816V30.5453H78.5453V26.1816Z" fill="black"/>
<path d="M91.6351 26.1816H87.2715V30.5453H91.6351V26.1816Z" fill="black"/>
<path d="M47.9984 30.5449H43.6348V34.9086H47.9984V30.5449Z" fill="black"/>
<path d="M56.7269 30.5449H52.3633V34.9086H56.7269V30.5449Z" fill="black"/>
<path d="M61.0902 30.5449H56.7266V34.9086H61.0902V30.5449Z" fill="black"/>
<path d="M65.4535 30.5449H61.0898V34.9086H65.4535V30.5449Z" fill="black"/>
<path d="M78.5453 30.5449H74.1816V34.9086H78.5453V30.5449Z" fill="black"/>
<path d="M87.2718 30.5449H82.9082V34.9086H87.2718V30.5449Z" fill="black"/>
<path d="M91.6351 30.5449H87.2715V34.9086H91.6351V30.5449Z" fill="black"/>
<path d="M47.9984 34.9082H43.6348V39.2718H47.9984V34.9082Z" fill="black"/>
<path d="M56.7269 34.9082H52.3633V39.2718H56.7269V34.9082Z" fill="black"/>
<path d="M65.4535 34.9082H61.0898V39.2718H65.4535V34.9082Z" fill="black"/>
<path d="M74.182 34.9082H69.8184V39.2718H74.182V34.9082Z" fill="black"/>
<path d="M82.9086 34.9082H78.5449V39.2718H82.9086V34.9082Z" fill="black"/>
<path d="M91.6351 34.9082H87.2715V39.2718H91.6351V34.9082Z" fill="black"/>
<path d="M100.362 34.9082H95.998V39.2718H100.362V34.9082Z" fill="black"/>
<path d="M52.3636 39.2715H48V43.6351H52.3636V39.2715Z" fill="black"/>
<path d="M61.0902 39.2715H56.7266V43.6351H61.0902V39.2715Z" fill="black"/>
<path d="M65.4535 39.2715H61.0898V43.6351H65.4535V39.2715Z" fill="black"/>
<path d="M74.182 39.2715H69.8184V43.6351H74.182V39.2715Z" fill="black"/>
<path d="M78.5453 39.2715H74.1816V43.6351H78.5453V39.2715Z" fill="black"/>
<path d="M82.9086 39.2715H78.5449V43.6351H82.9086V39.2715Z" fill="black"/>
<path d="M95.9984 39.2715H91.6348V43.6351H95.9984V39.2715Z" fill="black"/>
<path d="M100.362 39.2715H95.998V43.6351H100.362V39.2715Z" fill="black"/>
<path d="M13.0902 43.6348H8.72656V47.9984H13.0902V43.6348Z" fill="black"/>
<path d="M21.8168 43.6348H17.4531V47.9984H21.8168V43.6348Z" fill="black"/>
<path d="M39.2718 43.6348H34.9082V47.9984H39.2718V43.6348Z" fill="black"/>
<path d="M43.6351 43.6348H39.2715V47.9984H43.6351V43.6348Z" fill="black"/>
<path d="M69.8168 43.6348H65.4531V47.9984H69.8168V43.6348Z" fill="black"/>
<path d="M74.182 43.6348H69.8184V47.9984H74.182V43.6348Z" fill="black"/>
<path d="M100.362 43.6348H95.998V47.9984H100.362V43.6348Z" fill="black"/>
<path d="M113.453 43.6348H109.09V47.9984H113.453V43.6348Z" fill="black"/>
<path d="M126.545 43.6348H122.182V47.9984H126.545V43.6348Z" fill="black"/>
<path d="M135.272 43.6348H130.908V47.9984H135.272V43.6348Z" fill="black"/>
<path d="M13.0902 48H8.72656V52.3636H13.0902V48Z" fill="black"/>
<path d="M17.4535 48H13.0898V52.3636H17.4535V48Z" fill="black"/>
<path d="M21.8168 48H17.4531V52.3636H21.8168V48Z" fill="black"/>
<path d="M26.18 48H21.8164V52.3636H26.18V48Z" fill="black"/>
<path d="M34.9086 48H30.5449V52.3636H34.9086V48Z" fill="black"/>
<path d="M43.6351 48H39.2715V52.3636H43.6351V48Z" fill="black"/>
<path d="M52.3636 48H48V52.3636H52.3636V48Z" fill="black"/>
<path d="M69.8168 48H65.4531V52.3636H69.8168V48Z" fill="black"/>
<path d="M74.182 48H69.8184V52.3636H74.182V48Z" fill="black"/>
<path d="M95.9984 48H91.6348V52.3636H95.9984V48Z" fill="black"/>
<path d="M100.362 48H95.998V52.3636H100.362V48Z" fill="black"/>
<path d="M109.09 48H104.727V52.3636H109.09V48Z" fill="black"/>
<path d="M113.453 48H109.09V52.3636H113.453V48Z" fill="black"/>
<path d="M130.909 48H126.545V52.3636H130.909V48Z" fill="black"/>
<path d="M135.272 48H130.908V52.3636H135.272V48Z" fill="black"/>
<path d="M17.4535 52.3633H13.0898V56.7269H17.4535V52.3633Z" fill="black"/>
<path d="M21.8168 52.3633H17.4531V56.7269H21.8168V52.3633Z" fill="black"/>
<path d="M26.18 52.3633H21.8164V56.7269H26.18V52.3633Z" fill="black"/>
<path d="M30.5453 52.3633H26.1816V56.7269H30.5453V52.3633Z" fill="black"/>
<path d="M39.2718 52.3633H34.9082V56.7269H39.2718V52.3633Z" fill="black"/>
<path d="M43.6351 52.3633H39.2715V56.7269H43.6351V52.3633Z" fill="black"/>
<path d="M61.0902 52.3633H56.7266V56.7269H61.0902V52.3633Z" fill="black"/>
<path d="M65.4535 52.3633H61.0898V56.7269H65.4535V52.3633Z" fill="black"/>
<path d="M78.5453 52.3633H74.1816V56.7269H78.5453V52.3633Z" fill="black"/>
<path d="M91.6351 52.3633H87.2715V56.7269H91.6351V52.3633Z" fill="black"/>
<path d="M95.9984 52.3633H91.6348V56.7269H95.9984V52.3633Z" fill="black"/>
<path d="M113.453 52.3633H109.09V56.7269H113.453V52.3633Z" fill="black"/>
<path d="M122.182 52.3633H117.818V56.7269H122.182V52.3633Z" fill="black"/>
<path d="M126.545 52.3633H122.182V56.7269H126.545V52.3633Z" fill="black"/>
<path d="M135.272 52.3633H130.908V56.7269H135.272V52.3633Z" fill="black"/>
<path d="M13.0902 56.7266H8.72656V61.0902H13.0902V56.7266Z" fill="black"/>
<path d="M30.5453 56.7266H26.1816V61.0902H30.5453V56.7266Z" fill="black"/>
<path d="M43.6351 56.7266H39.2715V61.0902H43.6351V56.7266Z" fill="black"/>
<path d="M47.9984 56.7266H43.6348V61.0902H47.9984V56.7266Z" fill="black"/>
<path d="M52.3636 56.7266H48V61.0902H52.3636V56.7266Z" fill="black"/>
<path d="M56.7269 56.7266H52.3633V61.0902H56.7269V56.7266Z" fill="black"/>
<path d="M61.0902 56.7266H56.7266V61.0902H61.0902V56.7266Z" fill="black"/>
<path d="M65.4535 56.7266H61.0898V61.0902H65.4535V56.7266Z" fill="black"/>
<path d="M69.8168 56.7266H65.4531V61.0902H69.8168V56.7266Z" fill="black"/>
<path d="M91.6351 56.7266H87.2715V61.0902H91.6351V56.7266Z" fill="black"/>
<path d="M104.727 56.7266H100.363V61.0902H104.727V56.7266Z" fill="black"/>
<path d="M113.453 56.7266H109.09V61.0902H113.453V56.7266Z" fill="black"/>
<path d="M117.817 56.7266H113.453V61.0902H117.817V56.7266Z" fill="black"/>
<path d="M122.182 56.7266H117.818V61.0902H122.182V56.7266Z" fill="black"/>
<path d="M30.5453 61.0898H26.1816V65.4535H30.5453V61.0898Z" fill="black"/>
<path d="M34.9086 61.0898H30.5449V65.4535H34.9086V61.0898Z" fill="black"/>
<path d="M39.2718 61.0898H34.9082V65.4535H39.2718V61.0898Z" fill="black"/>
<path d="M43.6351 61.0898H39.2715V65.4535H43.6351V61.0898Z" fill="black"/>
<path d="M52.3636 61.0898H48V65.4535H52.3636V61.0898Z" fill="black"/>
<path d="M56.7269 61.0898H52.3633V65.4535H56.7269V61.0898Z" fill="black"/>
<path d="M69.8168 61.0898H65.4531V65.4535H69.8168V61.0898Z" fill="black"/>
<path d="M78.5453 61.0898H74.1816V65.4535H78.5453V61.0898Z" fill="black"/>
<path d="M82.9086 61.0898H78.5449V65.4535H82.9086V61.0898Z" fill="black"/>
<path d="M100.362 61.0898H95.998V65.4535H100.362V61.0898Z" fill="black"/>
<path d="M109.09 61.0898H104.727V65.4535H109.09V61.0898Z" fill="black"/>
<path d="M113.453 61.0898H109.09V65.4535H113.453V61.0898Z" fill="black"/>
<path d="M135.272 61.0898H130.908V65.4535H135.272V61.0898Z" fill="black"/>
<path d="M26.18 65.4531H21.8164V69.8168H26.18V65.4531Z" fill="black"/>
<path d="M30.5453 65.4531H26.1816V69.8168H30.5453V65.4531Z" fill="black"/>
<path d="M52.3636 65.4531H48V69.8168H52.3636V65.4531Z" fill="black"/>
<path d="M61.0902 65.4531H56.7266V69.8168H61.0902V65.4531Z" fill="black"/>
<path d="M82.9086 65.4531H78.5449V69.8168H82.9086V65.4531Z" fill="black"/>
<path d="M87.2718 65.4531H82.9082V69.8168H87.2718V65.4531Z" fill="black"/>
<path d="M95.9984 65.4531H91.6348V69.8168H95.9984V65.4531Z" fill="black"/>
<path d="M100.362 65.4531H95.998V69.8168H100.362V65.4531Z" fill="black"/>
<path d="M109.09 65.4531H104.727V69.8168H109.09V65.4531Z" fill="black"/>
<path d="M130.909 65.4531H126.545V69.8168H130.909V65.4531Z" fill="black"/>
<path d="M135.272 65.4531H130.908V69.8168H135.272V65.4531Z" fill="black"/>
<path d="M13.0902 69.8184H8.72656V74.182H13.0902V69.8184Z" fill="black"/>
<path d="M17.4535 69.8184H13.0898V74.182H17.4535V69.8184Z" fill="black"/>
<path d="M30.5453 69.8184H26.1816V74.182H30.5453V69.8184Z" fill="black"/>
<path d="M39.2718 69.8184H34.9082V74.182H39.2718V69.8184Z" fill="black"/>
<path d="M52.3636 69.8184H48V74.182H52.3636V69.8184Z" fill="black"/>
<path d="M65.4535 69.8184H61.0898V74.182H65.4535V69.8184Z" fill="black"/>
<path d="M69.8168 69.8184H65.4531V74.182H69.8168V69.8184Z" fill="black"/>
<path d="M74.182 69.8184H69.8184V74.182H74.182V69.8184Z" fill="black"/>
<path d="M82.9086 69.8184H78.5449V74.182H82.9086V69.8184Z" fill="black"/>
<path d="M95.9984 69.8184H91.6348V74.182H95.9984V69.8184Z" fill="black"/>
<path d="M100.362 69.8184H95.998V74.182H100.362V69.8184Z" fill="black"/>
<path d="M109.09 69.8184H104.727V74.182H109.09V69.8184Z" fill="black"/>
<path d="M135.272 69.8184H130.908V74.182H135.272V69.8184Z" fill="black"/>
<path d="M26.18 74.1816H21.8164V78.5453H26.18V74.1816Z" fill="black"/>
<path d="M34.9086 74.1816H30.5449V78.5453H34.9086V74.1816Z" fill="black"/>
<path d="M47.9984 74.1816H43.6348V78.5453H47.9984V74.1816Z" fill="black"/>
<path d="M74.182 74.1816H69.8184V78.5453H74.182V74.1816Z" fill="black"/>
<path d="M78.5453 74.1816H74.1816V78.5453H78.5453V74.1816Z" fill="black"/>
<path d="M82.9086 74.1816H78.5449V78.5453H82.9086V74.1816Z" fill="black"/>
<path d="M91.6351 74.1816H87.2715V78.5453H91.6351V74.1816Z" fill="black"/>
<path d="M100.362 74.1816H95.998V78.5453H100.362V74.1816Z" fill="black"/>
<path d="M104.727 74.1816H100.363V78.5453H104.727V74.1816Z" fill="black"/>
<path d="M113.453 74.1816H109.09V78.5453H113.453V74.1816Z" fill="black"/>
<path d="M13.0902 78.5449H8.72656V82.9086H13.0902V78.5449Z" fill="black"/>
<path d="M17.4535 78.5449H13.0898V82.9086H17.4535V78.5449Z" fill="black"/>
<path d="M21.8168 78.5449H17.4531V82.9086H21.8168V78.5449Z" fill="black"/>
<path d="M30.5453 78.5449H26.1816V82.9086H30.5453V78.5449Z" fill="black"/>
<path d="M34.9086 78.5449H30.5449V82.9086H34.9086V78.5449Z" fill="black"/>
<path d="M39.2718 78.5449H34.9082V82.9086H39.2718V78.5449Z" fill="black"/>
<path d="M43.6351 78.5449H39.2715V82.9086H43.6351V78.5449Z" fill="black"/>
<path d="M52.3636 78.5449H48V82.9086H52.3636V78.5449Z" fill="black"/>
<path d="M56.7269 78.5449H52.3633V82.9086H56.7269V78.5449Z" fill="black"/>
<path d="M61.0902 78.5449H56.7266V82.9086H61.0902V78.5449Z" fill="black"/>
<path d="M65.4535 78.5449H61.0898V82.9086H65.4535V78.5449Z" fill="black"/>
<path d="M69.8168 78.5449H65.4531V82.9086H69.8168V78.5449Z" fill="black"/>
<path d="M74.182 78.5449H69.8184V82.9086H74.182V78.5449Z" fill="black"/>
<path d="M82.9086 78.5449H78.5449V82.9086H82.9086V78.5449Z" fill="black"/>
<path d="M100.362 78.5449H95.998V82.9086H100.362V78.5449Z" fill="black"/>
<path d="M109.09 78.5449H104.727V82.9086H109.09V78.5449Z" fill="black"/>
<path d="M135.272 78.5449H130.908V82.9086H135.272V78.5449Z" fill="black"/>
<path d="M17.4535 82.9082H13.0898V87.2719H17.4535V82.9082Z" fill="black"/>
<path d="M30.5453 82.9082H26.1816V87.2719H30.5453V82.9082Z" fill="black"/>
<path d="M43.6351 82.9082H39.2715V87.2719H43.6351V82.9082Z" fill="black"/>
<path d="M47.9984 82.9082H43.6348V87.2719H47.9984V82.9082Z" fill="black"/>
<path d="M52.3636 82.9082H48V87.2719H52.3636V82.9082Z" fill="black"/>
<path d="M61.0902 82.9082H56.7266V87.2719H61.0902V82.9082Z" fill="black"/>
<path d="M69.8168 82.9082H65.4531V87.2719H69.8168V82.9082Z" fill="black"/>
<path d="M74.182 82.9082H69.8184V87.2719H74.182V82.9082Z" fill="black"/>
<path d="M87.2718 82.9082H82.9082V87.2719H87.2718V82.9082Z" fill="black"/>
<path d="M95.9984 82.9082H91.6348V87.2719H95.9984V82.9082Z" fill="black"/>
<path d="M100.362 82.9082H95.998V87.2719H100.362V82.9082Z" fill="black"/>
<path d="M109.09 82.9082H104.727V87.2719H109.09V82.9082Z" fill="black"/>
<path d="M113.453 82.9082H109.09V87.2719H113.453V82.9082Z" fill="black"/>
<path d="M126.545 82.9082H122.182V87.2719H126.545V82.9082Z" fill="black"/>
<path d="M130.909 82.9082H126.545V87.2719H130.909V82.9082Z" fill="black"/>
<path d="M135.272 82.9082H130.908V87.2719H135.272V82.9082Z" fill="black"/>
<path d="M13.0902 87.2715H8.72656V91.6351H13.0902V87.2715Z" fill="black"/>
<path d="M17.4535 87.2715H13.0898V91.6351H17.4535V87.2715Z" fill="black"/>
<path d="M30.5453 87.2715H26.1816V91.6351H30.5453V87.2715Z" fill="black"/>
<path d="M34.9086 87.2715H30.5449V91.6351H34.9086V87.2715Z" fill="black"/>
<path d="M39.2718 87.2715H34.9082V91.6351H39.2718V87.2715Z" fill="black"/>
<path d="M43.6351 87.2715H39.2715V91.6351H43.6351V87.2715Z" fill="black"/>
<path d="M52.3636 87.2715H48V91.6351H52.3636V87.2715Z" fill="black"/>
<path d="M56.7269 87.2715H52.3633V91.6351H56.7269V87.2715Z" fill="black"/>
<path d="M61.0902 87.2715H56.7266V91.6351H61.0902V87.2715Z" fill="black"/>
<path d="M78.5453 87.2715H74.1816V91.6351H78.5453V87.2715Z" fill="black"/>
<path d="M82.9086 87.2715H78.5449V91.6351H82.9086V87.2715Z" fill="black"/>
<path d="M87.2718 87.2715H82.9082V91.6351H87.2718V87.2715Z" fill="black"/>
<path d="M95.9984 87.2715H91.6348V91.6351H95.9984V87.2715Z" fill="black"/>
<path d="M122.182 87.2715H117.818V91.6351H122.182V87.2715Z" fill="black"/>
<path d="M135.272 87.2715H130.908V91.6351H135.272V87.2715Z" fill="black"/>
<path d="M30.5453 91.6348H26.1816V95.9985H30.5453V91.6348Z" fill="black"/>
<path d="M34.9086 91.6348H30.5449V95.9985H34.9086V91.6348Z" fill="black"/>
<path d="M52.3636 91.6348H48V95.9985H52.3636V91.6348Z" fill="black"/>
<path d="M56.7269 91.6348H52.3633V95.9985H56.7269V91.6348Z" fill="black"/>
<path d="M65.4535 91.6348H61.0898V95.9985H65.4535V91.6348Z" fill="black"/>
<path d="M69.8168 91.6348H65.4531V95.9985H69.8168V91.6348Z" fill="black"/>
<path d="M82.9086 91.6348H78.5449V95.9985H82.9086V91.6348Z" fill="black"/>
<path d="M91.6351 91.6348H87.2715V95.9985H91.6351V91.6348Z" fill="black"/>
<path d="M104.727 91.6348H100.363V95.9985H104.727V91.6348Z" fill="black"/>
<path d="M113.453 91.6348H109.09V95.9985H113.453V91.6348Z" fill="black"/>
<path d="M13.0902 96H8.72656V100.364H13.0902V96Z" fill="black"/>
<path d="M17.4535 96H13.0898V100.364H17.4535V96Z" fill="black"/>
<path d="M26.18 96H21.8164V100.364H26.18V96Z" fill="black"/>
<path d="M30.5453 96H26.1816V100.364H30.5453V96Z" fill="black"/>
<path d="M39.2718 96H34.9082V100.364H39.2718V96Z" fill="black"/>
<path d="M43.6351 96H39.2715V100.364H43.6351V96Z" fill="black"/>
<path d="M56.7269 96H52.3633V100.364H56.7269V96Z" fill="black"/>
<path d="M61.0902 96H56.7266V100.364H61.0902V96Z" fill="black"/>
<path d="M69.8168 96H65.4531V100.364H69.8168V96Z" fill="black"/>
<path d="M78.5453 96H74.1816V100.364H78.5453V96Z" fill="black"/>
<path d="M91.6351 96H87.2715V100.364H91.6351V96Z" fill="black"/>
<path d="M100.362 96H95.998V100.364H100.362V96Z" fill="black"/>
<path d="M104.727 96H100.363V100.364H104.727V96Z" fill="black"/>
<path d="M109.09 96H104.727V100.364H109.09V96Z" fill="black"/>
<path d="M113.453 96H109.09V100.364H113.453V96Z" fill="black"/>
<path d="M117.817 96H113.453V100.364H117.817V96Z" fill="black"/>
<path d="M122.182 96H117.818V100.364H122.182V96Z" fill="black"/>
<path d="M130.909 96H126.545V100.364H130.909V96Z" fill="black"/>
<path d="M47.9984 100.363H43.6348V104.727H47.9984V100.363Z" fill="black"/>
<path d="M52.3636 100.363H48V104.727H52.3636V100.363Z" fill="black"/>
<path d="M56.7269 100.363H52.3633V104.727H56.7269V100.363Z" fill="black"/>
<path d="M61.0902 100.363H56.7266V104.727H61.0902V100.363Z" fill="black"/>
<path d="M65.4535 100.363H61.0898V104.727H65.4535V100.363Z" fill="black"/>
<path d="M78.5453 100.363H74.1816V104.727H78.5453V100.363Z" fill="black"/>
<path d="M87.2718 100.363H82.9082V104.727H87.2718V100.363Z" fill="black"/>
<path d="M95.9984 100.363H91.6348V104.727H95.9984V100.363Z" fill="black"/>
<path d="M100.362 100.363H95.998V104.727H100.362V100.363Z" fill="black"/>
<path d="M117.817 100.363H113.453V104.727H117.817V100.363Z" fill="black"/>
<path d="M122.182 100.363H117.818V104.727H122.182V100.363Z" fill="black"/>
<path d="M126.545 100.363H122.182V104.727H126.545V100.363Z" fill="black"/>
<path d="M135.272 100.363H130.908V104.727H135.272V100.363Z" fill="black"/>
<path d="M47.9984 104.727H43.6348V109.09H47.9984V104.727Z" fill="black"/>
<path d="M52.3636 104.727H48V109.09H52.3636V104.727Z" fill="black"/>
<path d="M56.7269 104.727H52.3633V109.09H56.7269V104.727Z" fill="black"/>
<path d="M61.0902 104.727H56.7266V109.09H61.0902V104.727Z" fill="black"/>
<path d="M65.4535 104.727H61.0898V109.09H65.4535V104.727Z" fill="black"/>
<path d="M69.8168 104.727H65.4531V109.09H69.8168V104.727Z" fill="black"/>
<path d="M74.182 104.727H69.8184V109.09H74.182V104.727Z" fill="black"/>
<path d="M78.5453 104.727H74.1816V109.09H78.5453V104.727Z" fill="black"/>
<path d="M100.362 104.727H95.998V109.09H100.362V104.727Z" fill="black"/>
<path d="M109.09 104.727H104.727V109.09H109.09V104.727Z" fill="black"/>
<path d="M117.817 104.727H113.453V109.09H117.817V104.727Z" fill="black"/>
<path d="M135.272 104.727H130.908V109.09H135.272V104.727Z" fill="black"/>
<path d="M56.7269 109.09H52.3633V113.453H56.7269V109.09Z" fill="black"/>
<path d="M61.0902 109.09H56.7266V113.453H61.0902V109.09Z" fill="black"/>
<path d="M65.4535 109.09H61.0898V113.453H65.4535V109.09Z" fill="black"/>
<path d="M74.182 109.09H69.8184V113.453H74.182V109.09Z" fill="black"/>
<path d="M78.5453 109.09H74.1816V113.453H78.5453V109.09Z" fill="black"/>
<path d="M91.6351 109.09H87.2715V113.453H91.6351V109.09Z" fill="black"/>
<path d="M95.9984 109.09H91.6348V113.453H95.9984V109.09Z" fill="black"/>
<path d="M100.362 109.09H95.998V113.453H100.362V109.09Z" fill="black"/>
<path d="M117.817 109.09H113.453V113.453H117.817V109.09Z" fill="black"/>
<path d="M52.3636 113.453H48V117.817H52.3636V113.453Z" fill="black"/>
<path d="M56.7269 113.453H52.3633V117.817H56.7269V113.453Z" fill="black"/>
<path d="M61.0902 113.453H56.7266V117.817H61.0902V113.453Z" fill="black"/>
<path d="M65.4535 113.453H61.0898V117.817H65.4535V113.453Z" fill="black"/>
<path d="M69.8168 113.453H65.4531V117.817H69.8168V113.453Z" fill="black"/>
<path d="M74.182 113.453H69.8184V117.817H74.182V113.453Z" fill="black"/>
<path d="M78.5453 113.453H74.1816V117.817H78.5453V113.453Z" fill="black"/>
<path d="M91.6351 113.453H87.2715V117.817H91.6351V113.453Z" fill="black"/>
<path d="M95.9984 113.453H91.6348V117.817H95.9984V113.453Z" fill="black"/>
<path d="M100.362 113.453H95.998V117.817H100.362V113.453Z" fill="black"/>
<path d="M104.727 113.453H100.363V117.817H104.727V113.453Z" fill="black"/>
<path d="M109.09 113.453H104.727V117.817H109.09V113.453Z" fill="black"/>
<path d="M113.453 113.453H109.09V117.817H113.453V113.453Z" fill="black"/>
<path d="M117.817 113.453H113.453V117.817H117.817V113.453Z" fill="black"/>
<path d="M122.182 113.453H117.818V117.817H122.182V113.453Z" fill="black"/>
<path d="M130.909 113.453H126.545V117.817H130.909V113.453Z" fill="black"/>
<path d="M135.272 113.453H130.908V117.817H135.272V113.453Z" fill="black"/>
<path d="M52.3636 117.818H48V122.182H52.3636V117.818Z" fill="black"/>
<path d="M56.7269 117.818H52.3633V122.182H56.7269V117.818Z" fill="black"/>
<path d="M61.0902 117.818H56.7266V122.182H61.0902V117.818Z" fill="black"/>
<path d="M65.4535 117.818H61.0898V122.182H65.4535V117.818Z" fill="black"/>
<path d="M69.8168 117.818H65.4531V122.182H69.8168V117.818Z" fill="black"/>
<path d="M74.182 117.818H69.8184V122.182H74.182V117.818Z" fill="black"/>
<path d="M78.5453 117.818H74.1816V122.182H78.5453V117.818Z" fill="black"/>
<path d="M91.6351 117.818H87.2715V122.182H91.6351V117.818Z" fill="black"/>
<path d="M100.362 117.818H95.998V122.182H100.362V117.818Z" fill="black"/>
<path d="M104.727 117.818H100.363V122.182H104.727V117.818Z" fill="black"/>
<path d="M113.453 117.818H109.09V122.182H113.453V117.818Z" fill="black"/>
<path d="M117.817 117.818H113.453V122.182H117.817V117.818Z" fill="black"/>
<path d="M122.182 117.818H117.818V122.182H122.182V117.818Z" fill="black"/>
<path d="M126.545 117.818H122.182V122.182H126.545V117.818Z" fill="black"/>
<path d="M135.272 117.818H130.908V122.182H135.272V117.818Z" fill="black"/>
<path d="M47.9984 122.182H43.6348V126.545H47.9984V122.182Z" fill="black"/>
<path d="M52.3636 122.182H48V126.545H52.3636V122.182Z" fill="black"/>
<path d="M56.7269 122.182H52.3633V126.545H56.7269V122.182Z" fill="black"/>
<path d="M78.5453 122.182H74.1816V126.545H78.5453V122.182Z" fill="black"/>
<path d="M91.6351 122.182H87.2715V126.545H91.6351V122.182Z" fill="black"/>
<path d="M95.9984 122.182H91.6348V126.545H95.9984V122.182Z" fill="black"/>
<path d="M100.362 122.182H95.998V126.545H100.362V122.182Z" fill="black"/>
<path d="M104.727 122.182H100.363V126.545H104.727V122.182Z" fill="black"/>
<path d="M117.817 122.182H113.453V126.545H117.817V122.182Z" fill="black"/>
<path d="M130.909 122.182H126.545V126.545H130.909V122.182Z" fill="black"/>
<path d="M135.272 122.182H130.908V126.545H135.272V122.182Z" fill="black"/>
<path d="M52.3636 126.545H48V130.909H52.3636V126.545Z" fill="black"/>
<path d="M61.0902 126.545H56.7266V130.909H61.0902V126.545Z" fill="black"/>
<path d="M65.4535 126.545H61.0898V130.909H65.4535V126.545Z" fill="black"/>
<path d="M74.182 126.545H69.8184V130.909H74.182V126.545Z" fill="black"/>
<path d="M82.9086 126.545H78.5449V130.909H82.9086V126.545Z" fill="black"/>
<path d="M95.9984 126.545H91.6348V130.909H95.9984V126.545Z" fill="black"/>
<path d="M100.362 126.545H95.998V130.909H100.362V126.545Z" fill="black"/>
<path d="M104.727 126.545H100.363V130.909H104.727V126.545Z" fill="black"/>
<path d="M109.09 126.545H104.727V130.909H109.09V126.545Z" fill="black"/>
<path d="M113.453 126.545H109.09V130.909H113.453V126.545Z" fill="black"/>
<path d="M117.817 126.545H113.453V130.909H117.817V126.545Z" fill="black"/>
<path d="M122.182 126.545H117.818V130.909H122.182V126.545Z" fill="black"/>
<path d="M47.9984 130.908H43.6348V135.272H47.9984V130.908Z" fill="black"/>
<path d="M52.3636 130.908H48V135.272H52.3636V130.908Z" fill="black"/>
<path d="M56.7269 130.908H52.3633V135.272H56.7269V130.908Z" fill="black"/>
<path d="M65.4535 130.908H61.0898V135.272H65.4535V130.908Z" fill="black"/>
<path d="M74.182 130.908H69.8184V135.272H74.182V130.908Z" fill="black"/>
<path d="M78.5453 130.908H74.1816V135.272H78.5453V130.908Z" fill="black"/>
<path d="M91.6351 130.908H87.2715V135.272H91.6351V130.908Z" fill="black"/>
<path d="M100.362 130.908H95.998V135.272H100.362V130.908Z" fill="black"/>
<path d="M117.817 130.908H113.453V135.272H117.817V130.908Z" fill="black"/>
<path d="M135.272 130.908H130.908V135.272H135.272V130.908Z" fill="black"/>
<path d="M34.6902 8.72656H13.3084H8.72656V13.3084V34.6902V39.272H13.3084H34.6902H39.272V34.6902V13.3084V8.72656H34.6902ZM34.6902 34.6902H13.3084V13.3084H34.6902V34.6902Z" fill="black"/>
<path d="M130.69 8.72656H109.308H104.727V13.3084V34.6902V39.272H109.308H130.69H135.272V34.6902V13.3084V8.72656H130.69ZM130.69 34.6902H109.308V13.3084H130.69V34.6902Z" fill="black"/>
<path d="M34.6902 104.727H13.3084H8.72656V109.308V130.69V135.272H13.3084H34.6902H39.272V130.69V109.308V104.727H34.6902ZM34.6902 130.69H13.3084V109.308H34.6902V130.69Z" fill="black"/>
<path d="M30.544 17.4531H17.4531V30.544H30.544V17.4531Z" fill="black"/>
<path d="M126.544 17.4531H113.453V30.544H126.544V17.4531Z" fill="black"/>
<path d="M30.544 113.453H17.4531V126.544H30.544V113.453Z" fill="black"/>
</g>
<defs>
<clipPath id="clip0_2748_15802">
<rect width="144" height="144" rx="4" fill="white"/>
</clipPath>
</defs>
</svg>
