<svg width="56" height="56" viewBox="0 0 56 56" fill="none" xmlns="http://www.w3.org/2000/svg">
<path d="M31.1719 54.3594H32.8125V56H31.1719V54.3594Z" fill="#77C043"/>
<path d="M42.8749 26.4687C35.8064 26.4687 30.026 32.0856 29.7606 39.0906L24.6093 37.9018V35.4648C27.8335 34.5877 31.2041 32.1586 31.906 27.7225C32.9055 27.4094 33.6329 26.4748 33.6329 25.3734V22.0922C33.6329 21.0227 32.947 20.111 31.9922 19.7723V17.1704C31.9922 12.7429 29.2799 8.93745 25.4297 7.32713V5.74218C25.4296 2.57589 22.8538 0 19.6875 0C16.5212 0 13.9453 2.57589 13.9453 5.74218V7.33446C12.9459 7.75369 12.0076 8.32583 11.1678 9.03775L12.2286 10.2892C13.8581 8.90792 15.9244 8.14722 18.0467 8.14722H21.3281C26.3035 8.14722 30.3515 12.1951 30.3515 17.1706V19.6315H28.7109V18.259C28.7109 14.1881 25.399 10.8762 21.3281 10.8762H18.0468C13.9759 10.8762 10.664 14.1881 10.664 18.259V19.6312H9.02342V17.1704C9.02342 15.048 9.7839 12.982 11.1649 11.353L9.9134 10.2922C8.28153 12.2174 7.3828 14.6601 7.3828 17.1705V19.7724C6.42807 20.1111 5.74218 21.0228 5.74218 22.0923V25.3735C5.74218 26.4749 6.46941 27.4095 7.46899 27.7226C8.17084 32.1587 11.5416 34.5878 14.7657 35.4649V37.9019L4.73746 40.216C2.72584 40.6803 1.56876 41.3286 0.868655 42.3837C0.147765 43.4704 0 44.9182 0 46.7575V55.9999H29.5312V54.3593H1.64062V46.7575C1.64062 43.4474 2.04859 42.5203 5.10638 41.8146L11.8721 40.2533L15.2127 48.3026L18.3773 46.1692L17.0318 51.5886L18.6242 51.9839L19.6875 47.7011L20.2811 50.0923L21.8735 49.6971L20.9977 46.1691L24.1622 48.3025L27.5029 40.2533L29.8046 40.7844C30.2473 45.6833 33.3926 49.8142 37.7344 51.6695V54.3593H34.4532V55.9999H39.375V52.2441C40.4898 52.5528 41.6634 52.7187 42.875 52.7187C50.1121 52.7187 56 46.8308 56 39.5937C56 32.3566 50.112 26.4687 42.8749 26.4687ZM18.0468 6.50649C17.2134 6.50649 16.3881 6.60766 15.5859 6.79972V5.74218C15.5859 3.48052 17.4259 1.64062 19.6875 1.64062C21.949 1.64062 23.789 3.48052 23.789 5.74218V6.79371C22.9988 6.60635 22.1749 6.5066 21.3281 6.5066H18.0468V6.50649ZM16.538 31.0885C16.8689 32.0574 17.7875 32.7564 18.8672 32.7564H20.5078C21.8648 32.7564 22.9687 31.6525 22.9687 30.2955C22.9687 28.9385 21.8648 27.8346 20.5078 27.8346H18.8672C17.8105 27.8346 16.9074 28.5042 16.5593 29.4412C15.3454 29.3305 12.9347 28.8592 12.3047 26.8852V21.2488C14.3945 21.1357 16.2471 20.6154 17.9034 20.1492C21.1779 19.2277 23.7857 18.4937 27.0703 20.8628V27.7227C27.0703 31.7936 23.7584 35.1055 19.6875 35.1055C16.3566 35.1055 13.535 32.8876 12.6189 29.8514C12.9919 30.105 13.4092 30.325 13.8719 30.5063C14.8603 30.8932 15.8494 31.037 16.538 31.0885V31.0885ZM18.0468 30.2954C18.0468 29.843 18.4148 29.4751 18.8672 29.4751H20.5078C20.9601 29.4751 21.3281 29.843 21.3281 30.2954C21.3281 30.7478 20.9601 31.1157 20.5078 31.1157H18.8672C18.4148 31.1157 18.0468 30.7478 18.0468 30.2954ZM19.6875 36.746C20.8449 36.746 21.9509 36.5245 22.9687 36.1257V38.2916L19.6875 42.8852L16.4062 38.2916V36.1257C17.4241 36.5245 18.5301 36.746 19.6875 36.746ZM27.5026 32.2243C28.2519 30.9287 28.6885 29.4312 28.708 27.8345H30.2177C29.819 29.7576 28.7904 31.2018 27.5026 32.2243V32.2243ZM31.1718 21.272C31.6242 21.272 31.9921 21.6399 31.9921 22.0923V25.3735C31.9921 25.8259 31.6242 26.1938 31.1718 26.1938H28.7109V21.272H31.1718ZM18.0468 12.5169H21.3281C24.4944 12.5169 27.0703 15.0927 27.0703 18.259V18.9064C23.5698 16.8528 20.5914 17.6881 17.459 18.5698C15.8386 19.0259 14.1698 19.4954 12.3047 19.6065V18.259C12.3047 15.0928 14.8805 12.5169 18.0468 12.5169ZM7.3828 22.0923C7.3828 21.6399 7.75074 21.272 8.20311 21.272H10.664V26.1938H8.20311C7.75074 26.1938 7.3828 25.8259 7.3828 25.3735V22.0923ZM9.15719 27.8345H10.6669C10.6865 29.4312 11.123 30.9287 11.8723 32.2243C10.5845 31.2018 9.55597 29.7576 9.15719 27.8345ZM13.4931 39.8793L15.2367 39.4769L18.5299 44.0875L15.959 45.8208L13.4931 39.8793ZM23.4158 45.8208L20.8449 44.0875L24.1381 39.4769L25.8817 39.8793L23.4158 45.8208ZM42.8749 51.078C36.5424 51.078 31.3906 45.9261 31.3906 39.5937C31.3906 33.2612 36.5424 28.1093 42.8749 28.1093C49.2074 28.1093 54.3593 33.2612 54.3593 39.5937C54.3593 45.9261 49.2074 51.078 42.8749 51.078Z" fill="#77C043"/>
</svg>
