<svg width="46" height="40" viewBox="0 0 46 40" fill="none" xmlns="http://www.w3.org/2000/svg">
<path d="M25.3965 26.457H26.7441V27.8047H25.3965V26.457Z" fill="#77C043"/>
<path d="M25.3965 23.7617H26.7441V25.1094H25.3965V23.7617Z" fill="#77C043"/>
<path d="M46 25.7852H43.9769C44.4008 25.2218 44.6523 24.5216 44.6523 23.7637V11.5281C44.6523 10.3078 44.0472 9.227 43.122 8.56755C44.0472 7.90809 44.6523 6.82727 44.6523 5.60702V4.25936C44.6523 2.25539 43.022 0.625 41.018 0.625C39.0139 0.625 37.3836 2.2553 37.3836 4.25936V5.60702C37.3836 6.82718 37.9887 7.90809 38.9139 8.56755C37.9887 9.227 37.3836 10.3079 37.3836 11.5281V15.6778H34.1579C33.0433 15.6778 32.1364 16.5846 32.1364 17.6993C32.1364 17.9355 32.1775 18.1622 32.2523 18.3731H30.3079L29.055 10.9511C28.8929 9.99049 28.2217 9.30319 27.2122 9.06312L25.2051 8.49325C26.0731 7.82849 26.6343 6.78235 26.6343 5.60702V4.25936C26.6343 2.25539 25.004 0.625 22.9999 0.625C20.9959 0.625 19.3656 2.2553 19.3656 4.25936V5.60702C19.3656 6.78226 19.9267 7.8284 20.7947 8.49325L18.7728 9.06735C17.4619 9.43957 17.0552 10.2972 16.9448 10.951L16.615 12.9045L17.9439 13.1288L18.2737 11.1754C18.3204 10.8989 18.4611 10.5568 19.1409 10.3638L20.6594 9.93263L22.326 12.7925V18.3732H17.0586L17.7195 14.4579L16.3906 14.2335L15.6918 18.3732H13.7475C13.8224 18.1622 13.8634 17.9356 13.8634 17.6994C13.8634 16.5848 12.9565 15.6779 11.8419 15.6779H8.61637V11.5282C8.61637 10.3079 8.01128 9.22709 7.08607 8.56764C8.01128 7.90818 8.61637 6.82736 8.61637 5.60711V4.25945C8.61637 2.25548 6.98607 0.62509 4.98202 0.62509C2.97796 0.62509 1.34766 2.25539 1.34766 4.25945V5.60711C1.34766 6.82727 1.95275 7.90818 2.87796 8.56764C1.95275 9.227 1.34766 10.3079 1.34766 11.5281V23.7637C1.34766 24.5216 1.59922 25.2218 2.0231 25.7852H0V29.8282H3.97127V39.3731H8.01424V29.8282H10.6378V39.3731H20.9785V38.0254H17.9066V22.4161H28.0935V38.0254H25.0215V39.3731H35.3622V29.8282H37.9858V39.3731H42.0287V29.8282H46V25.7852ZM13.8636 24.4375V35.5403H11.9855V25.7852H4.7168C3.6022 25.7852 2.69531 24.8783 2.69531 23.7637V22.4161H11.8422C12.9568 22.4161 13.8636 23.3229 13.8636 24.4375ZM11.1684 19.7207V21.0684H8.61637V19.7207H11.1684ZM2.69531 19.6049C2.90618 19.6797 3.13294 19.7207 3.36914 19.7207H7.26872V21.0684H2.69531V19.6049ZM12.516 21.0684V19.7207H33.484V21.0684H12.516ZM34.8316 19.7207H37.3835V21.0684H34.8316V19.7207ZM38.7313 19.7207H42.6309C42.8671 19.7207 43.0938 19.6796 43.3047 19.6049V21.0684H38.7313V19.7207ZM43.3047 17.6993C43.3047 18.0709 43.0025 18.3731 42.6309 18.3731H36.8531V17.0254H41.957V11.5281C41.957 11.1566 42.2593 10.8542 42.6309 10.8542C43.0025 10.8542 43.3047 11.1566 43.3047 11.5281V17.6993ZM41.018 1.97275C42.2789 1.97275 43.3047 2.99849 43.3047 4.25945V4.26026C42.7366 3.83359 42.0338 3.58562 41.2832 3.58562H38.8327C39.121 2.65259 39.9915 1.97275 41.018 1.97275ZM38.7313 5.60711V4.93328H41.2832C42.1537 4.93328 42.9179 5.48896 43.196 6.3033C42.9007 7.22474 42.0362 7.89381 41.018 7.89381C39.7571 7.89372 38.7313 6.86797 38.7313 5.60711ZM38.7313 11.5281C38.7313 10.2672 39.7571 9.24137 41.018 9.24137C41.4411 9.24137 41.8374 9.35736 42.1777 9.55843C41.2806 9.7648 40.6094 10.5692 40.6094 11.5281V15.6778H38.7313V11.5281ZM33.484 17.6993C33.484 17.3278 33.7862 17.0254 34.1578 17.0254H35.5054V18.3731H34.1578C33.7863 18.3731 33.484 18.0709 33.484 17.6993ZM23 1.97275C24.0265 1.97275 24.897 2.65259 25.1853 3.58562H20.8147C21.103 2.65259 21.9735 1.97275 23 1.97275ZM20.7133 4.93328H25.2867V5.60711C25.2867 6.86797 24.2609 7.89381 23 7.89381C21.7391 7.89381 20.7133 6.86806 20.7133 5.60711V4.93328ZM23 9.26806L24.002 9.55259L23 11.2722L21.998 9.55259L23 9.26806ZM23.6738 12.7925L25.3404 9.93263L26.859 10.3638L26.8908 10.372C27.6191 10.5409 27.6997 11.0184 27.7262 11.1754L28.9412 18.3731H23.6738V12.7925ZM12.516 17.6993C12.516 18.0709 12.2138 18.3731 11.8422 18.3731H10.4946V17.0254H11.8422C12.2137 17.0254 12.516 17.3278 12.516 17.6993ZM4.98202 1.97275C6.00848 1.97275 6.87898 2.65259 7.16729 3.58562H4.7168C3.96624 3.58562 3.26339 3.83368 2.69531 4.26026V4.25945C2.69531 2.99849 3.72115 1.97275 4.98202 1.97275ZM2.80402 6.30321C3.08209 5.48887 3.84621 4.93319 4.7168 4.93319H7.26872V5.60702C7.26872 6.86788 6.24288 7.89372 4.98202 7.89372C3.96382 7.89372 3.09925 7.22465 2.80402 6.30321ZM7.26872 11.5281V15.6778H5.39062V11.5281C5.39062 10.5693 4.7194 9.7648 3.82231 9.55843C4.16264 9.35727 4.55894 9.24137 4.98202 9.24137C6.24288 9.24137 7.26872 10.2672 7.26872 11.5281ZM2.69531 11.5281C2.69531 11.1566 2.99755 10.8542 3.36914 10.8542C3.74073 10.8542 4.04297 11.1566 4.04297 11.5281V17.0254H9.1469V18.3731H3.36914C2.99755 18.3731 2.69531 18.0708 2.69531 17.6993V11.5281ZM6.66659 38.0254H5.31893V29.8282H6.66659V38.0254ZM10.6378 28.4805H1.34766V27.1329H10.6378V28.4805ZM11.9854 38.0254V36.888H14.5373C14.9382 36.888 16.1058 36.9813 16.4575 38.0254H11.9854ZM16.5589 36.0869C16.1755 35.8401 15.722 35.6694 15.2113 35.5906V24.4375C15.2113 23.6796 14.9596 22.9795 14.5356 22.416H16.5589V36.0869ZM31.4645 22.4161C31.0405 22.9796 30.7888 23.6796 30.7888 24.4375V35.5907C30.2781 35.6695 29.8246 35.8402 29.4412 36.087V22.4161H31.4645ZM34.0146 38.0254H29.5424C29.8941 36.9813 31.0617 36.888 31.4626 36.888H34.0145V38.0254H34.0146ZM34.0146 25.7852V35.5403H32.1365V24.4375C32.1365 23.3229 33.0433 22.416 34.1579 22.416H43.3047V23.7636C43.3047 24.8782 42.3978 25.7851 41.2832 25.7851H34.0146V25.7852ZM40.6811 38.0254H39.3334V29.8282H40.6811V38.0254ZM44.6523 28.4805H35.3622V27.1329H44.6523V28.4805Z" fill="#77C043"/>
<path d="M22.3262 38.0273H23.6738V39.375H22.3262V38.0273Z" fill="#77C043"/>
</svg>