<svg width="63" height="56" viewBox="0 0 63 56" fill="none" xmlns="http://www.w3.org/2000/svg">
<path d="M33.7611 42.6992L35.7025 52.8555H26.5684L28.9951 42.6992H33.7611Z" stroke="#77C043" stroke-width="1.3" stroke-linecap="round" stroke-linejoin="round"/>
<path d="M33.7601 37.1367V42.6998H28.9941V37.1367H31.1026H33.7601Z" stroke="#77C043" stroke-width="1.3" stroke-linecap="round" stroke-linejoin="round"/>
<path d="M31.1033 35.623V37.138H28.9948H23.457V28.7933L23.8946 28.625L31.1033 35.623Z" stroke="#77C043" stroke-width="1.3" stroke-linecap="round" stroke-linejoin="round"/>
<path d="M31.5969 0.519531C33.9574 0.519531 36.2649 1.22473 38.2276 2.54595C40.1903 3.86717 41.72 5.74507 42.6233 7.94218C43.5266 10.1393 43.763 12.5569 43.3025 14.8894C42.8419 17.2218 41.7053 19.3643 40.0361 21.0459C38.367 22.7275 36.2404 23.8726 33.9253 24.3366C31.6102 24.8005 29.2105 24.5624 27.0297 23.6524C24.8489 22.7423 22.9849 21.2011 21.6735 19.2238C20.3621 17.2464 19.6621 14.9217 19.6621 12.5436C19.6621 9.3546 20.9195 6.29624 23.1577 4.04129C25.396 1.78635 28.4316 0.519531 31.5969 0.519531V0.519531Z" stroke="#77C043" stroke-width="1.3" stroke-linecap="round" stroke-linejoin="round"/>
<path d="M39.3067 28.7933V37.138H33.761H31.1035V35.623L38.8612 28.625L39.3067 28.7933Z" stroke="#77C043" stroke-width="1.3" stroke-linecap="round" stroke-linejoin="round"/>
<path d="M28.994 37.1375V42.7006L26.6071 52.8569H7.42383V42.0994C8.34567 41.9436 9.21788 41.5705 9.96927 41.0104C10.7207 40.4502 11.3299 39.719 11.7473 38.8764C12.1647 38.0338 12.3784 37.1038 12.3709 36.1621C12.3635 35.2204 12.1351 34.2939 11.7045 33.4581L23.4563 28.8008V37.1375H28.994Z" stroke="#77C043" stroke-width="1.3" stroke-linecap="round" stroke-linejoin="round"/>
<path d="M12.373 36.1987C12.375 37.6123 11.8785 38.9808 10.972 40.0599C10.0656 41.139 8.80816 41.8587 7.42397 42.0905C7.10359 42.1484 6.77878 42.1779 6.45328 42.1786C5.399 42.1822 4.36282 41.9027 3.45128 41.369C2.53975 40.8353 1.78575 40.0667 1.26683 39.1421C0.747905 38.2175 0.482784 37.1703 0.498726 36.1083C0.514668 35.0462 0.811097 34.0076 1.35753 33.0993C1.90397 32.1909 2.68069 31.4456 3.60783 30.9399C4.53497 30.4342 5.57906 30.1865 6.63275 30.2221C7.68644 30.2577 8.71169 30.5755 9.60309 31.1427C10.4945 31.7098 11.2199 32.5059 11.7046 33.4492C12.1453 34.2976 12.3746 35.2412 12.373 36.1987Z" stroke="#77C043" stroke-width="1.3" stroke-linecap="round" stroke-linejoin="round"/>
<path d="M56.3328 40.375C57.3458 40.3792 58.316 40.7871 59.0315 41.5095C59.7471 42.2319 60.1499 43.2101 60.152 44.2307V46.2107H52.5137V44.2307C52.5158 43.2101 52.9186 42.2319 53.6341 41.5095C54.3497 40.7871 55.3198 40.3792 56.3328 40.375V40.375Z" stroke="#77C043" stroke-width="1.3" stroke-linecap="round" stroke-linejoin="round"/>
<path d="M62.4825 46.2109V54.1468C62.4835 54.3212 62.4503 54.494 62.3848 54.6554C62.3193 54.8168 62.2228 54.9636 62.1008 55.0872C61.9788 55.2109 61.8337 55.3091 61.6739 55.376C61.5141 55.443 61.3427 55.4775 61.1696 55.4775H51.4149C51.0885 55.4754 50.776 55.3438 50.5452 55.1112C50.3143 54.8787 50.1837 54.5639 50.1816 54.235V46.219H62.4825V46.2109Z" stroke="#77C043" stroke-width="1.3" stroke-linecap="round" stroke-linejoin="round"/>
<path d="M31.5969 0.519531C33.9574 0.519531 36.2649 1.22473 38.2276 2.54595C40.1903 3.86717 41.72 5.74507 42.6233 7.94218C43.5266 10.1393 43.763 12.5569 43.3025 14.8894C42.8419 17.2218 41.7053 19.3643 40.0361 21.0459C38.367 22.7275 36.2404 23.8726 33.9253 24.3366C31.6102 24.8005 29.2105 24.5624 27.0297 23.6524C24.8489 22.7423 22.9849 21.2011 21.6735 19.2238C20.3621 17.2464 19.6621 14.9217 19.6621 12.5436C19.6621 9.3546 20.9195 6.29624 23.1577 4.04129C25.396 1.78635 28.4316 0.519531 31.5969 0.519531V0.519531Z" stroke="#77C043" stroke-width="1.3" stroke-linecap="round" stroke-linejoin="round"/>
<path d="M11.7051 33.4507L23.4569 28.7933L23.8945 28.625L31.1032 35.623L38.8608 28.625L39.3064 28.7933L55.3388 35.15" stroke="#77C043" stroke-width="1.3" stroke-linecap="round" stroke-linejoin="round"/>
<path d="M26.5593 52.8872H7.42383V42.0977" stroke="#77C043" stroke-width="1.3" stroke-linecap="round" stroke-linejoin="round"/>
<path d="M50.182 52.8867H35.709" stroke="#77C043" stroke-width="1.3" stroke-linecap="round" stroke-linejoin="round"/>
<path d="M47.2626 41.7305V52.8567H35.7017H26.5676H15.5V41.7305" stroke="#77C043" stroke-width="1.3" stroke-linecap="round" stroke-linejoin="round"/>
<path d="M28.9948 37.138H23.457V28.7933V28.625" stroke="#77C043" stroke-width="1.3" stroke-linecap="round" stroke-linejoin="round"/>
<path d="M39.3055 28.625V28.7933V37.138H33.7598" stroke="#77C043" stroke-width="1.3" stroke-linecap="round" stroke-linejoin="round"/>
<path d="M28.9941 42.6998V37.1367H31.1026H33.7601V42.6998" stroke="#77C043" stroke-width="1.3" stroke-linecap="round" stroke-linejoin="round"/>
<path d="M26.5586 52.8876H35.7086L35.7007 52.8555L33.7593 42.6992H28.9933L26.5665 52.8555L26.5586 52.8876Z" stroke="#77C043" stroke-width="1.3" stroke-linecap="round" stroke-linejoin="round"/>
<path d="M60.1512 46.2109H62.4825V54.1468C62.4835 54.3212 62.4503 54.494 62.3848 54.6554C62.3193 54.8168 62.2228 54.9636 62.1008 55.0872C61.9788 55.2109 61.8337 55.3091 61.6739 55.376C61.5141 55.443 61.3427 55.4775 61.1696 55.4775H51.4149C51.0885 55.4754 50.776 55.3438 50.5452 55.1112C50.3143 54.8787 50.1837 54.5639 50.1816 54.235V46.219H52.5129" stroke="#77C043" stroke-width="1.3" stroke-linecap="round" stroke-linejoin="round"/>
<path d="M52.5137 46.2105V44.2305C52.5137 43.21 52.916 42.2314 53.6323 41.5098C54.3485 40.7882 55.3199 40.3828 56.3328 40.3828C57.3457 40.3828 58.3171 40.7882 59.0334 41.5098C59.7496 42.2314 60.152 43.21 60.152 44.2305V46.2105H52.5137Z" stroke="#77C043" stroke-width="1.3" stroke-linecap="round" stroke-linejoin="round"/>
<path d="M54.3203 52.8396L56.3413 50.8517L58.3463 48.8477" stroke="#77C043" stroke-width="1.3" stroke-linecap="round" stroke-linejoin="round"/>
<path d="M58.3463 52.8396L56.3413 50.8517L54.3203 48.8477" stroke="#77C043" stroke-width="1.3" stroke-linecap="round" stroke-linejoin="round"/>
<path d="M7.42398 42.0905C7.10359 42.1484 6.77878 42.1779 6.45328 42.1786C5.399 42.1822 4.36282 41.9027 3.45128 41.369C2.53975 40.8353 1.78575 40.0667 1.26683 39.1421C0.747905 38.2175 0.482784 37.1703 0.498726 36.1083C0.514668 35.0462 0.811097 34.0076 1.35753 33.0993C1.90397 32.1909 2.68069 31.4456 3.60783 30.9399C4.53497 30.4342 5.57906 30.1865 6.63275 30.2221C7.68644 30.2577 8.71169 30.5755 9.60309 31.1427C10.4945 31.7098 11.2199 32.5059 11.7046 33.4492C12.1353 34.285 12.3636 35.2115 12.3711 36.1532C12.3785 37.0948 12.1648 38.0249 11.7475 38.8675C11.3301 39.7101 10.7208 40.4413 9.96941 41.0014C9.21803 41.5616 8.34581 41.9347 7.42398 42.0905V42.0905Z" stroke="#77C043" stroke-width="1.3" stroke-linecap="round" stroke-linejoin="round"/>
<path d="M3.91602 35.3415L5.14133 37.6902L10.2653 34.6602" stroke="#77C043" stroke-width="1.3" stroke-linecap="round" stroke-linejoin="round"/>
</svg>