<svg width="117" height="72" viewBox="0 0 117 72" fill="none" xmlns="http://www.w3.org/2000/svg">
<path fill-rule="evenodd" clip-rule="evenodd" d="M47 72H65.7653C67.4137 72 68.8933 70.9888 69.4921 69.453L83.7547 32.8713C83.7792 32.8083 83.807 32.7464 83.8348 32.6845C83.888 32.566 83.9411 32.4476 83.9715 32.3218C84.1273 31.6776 83.625 31 82.916 31H47V72Z" fill="#77C043"/>
<path fill-rule="evenodd" clip-rule="evenodd" d="M47 44H93.5612C94.4273 44 95.248 43.5492 95.7226 42.8178C95.7783 42.7321 95.8206 42.6386 95.8568 42.543L110.972 2.70955C111.468 1.40087 110.502 0 109.102 0H47V44Z" fill="#56595C"/>
<path d="M73.582 22.8867C73.582 25.293 73.1406 27.1211 72.2578 28.3711C71.375 29.6133 70.0742 30.2344 68.3555 30.2344C66.668 30.2344 65.375 29.625 64.4766 28.4062C63.5781 27.1797 63.1172 25.3984 63.0938 23.0625V20.0039C63.0938 17.6055 63.5391 15.7891 64.4297 14.5547C65.3203 13.3203 66.6211 12.7031 68.332 12.7031C70.0195 12.7031 71.3086 13.3008 72.1992 14.4961C73.0898 15.6836 73.5508 17.4375 73.582 19.7578V22.8867ZM72.1758 19.8281C72.1758 17.875 71.8555 16.3984 71.2148 15.3984C70.582 14.3984 69.6211 13.8984 68.332 13.8984C67.0664 13.8984 66.1133 14.3867 65.4727 15.3633C64.832 16.3398 64.5039 17.7812 64.4883 19.6875V23.0391C64.4883 24.9844 64.8164 26.4727 65.4727 27.5039C66.1367 28.5352 67.0977 29.0508 68.3555 29.0508C69.6055 29.0508 70.5508 28.5469 71.1914 27.5391C71.8398 26.5312 72.168 25.0547 72.1758 23.1094V19.8281ZM83.1328 30H81.7266V14.625L77.0859 16.3477V15.0352L82.8984 12.8789H83.1328V30Z" fill="white"/>
</svg>
