<svg width="29" height="32" viewBox="0 0 29 32" fill="none" xmlns="http://www.w3.org/2000/svg">
<path d="M24.0156 15.7313C24.0156 15.4724 23.8113 15.2626 23.5592 15.2626H11.4238C11.1718 15.2626 10.9674 15.4724 10.9674 15.7313C10.9674 15.9902 11.1718 16.2001 11.4238 16.2001H23.5592C23.8113 16.2001 24.0156 15.9902 24.0156 15.7313ZM11.4238 18.013C11.1718 18.013 10.9674 18.2229 10.9674 18.4818C10.9674 18.7406 11.1718 18.9505 11.4238 18.9505H17.4915C17.7436 18.9505 17.9479 18.7406 17.9479 18.4818C17.9479 18.2229 17.7436 18.013 17.4915 18.013H11.4238ZM17.0923 10.0697C17.3497 10.1632 17.6334 10.1633 17.8908 10.0697C19.1806 9.6011 20.4867 8.52666 20.4867 7.1029V4.45914C20.4867 4.10895 20.3044 3.7837 20.011 3.61033C19.3817 3.23832 18.4163 3.00726 17.4916 3.00726C16.5669 3.00726 15.6015 3.23832 14.9721 3.61033C14.6787 3.78376 14.4964 4.10901 14.4964 4.45914V7.10296C14.4964 8.59647 15.8948 9.63453 17.0923 10.0697C17.0923 10.0697 17.0923 10.0697 17.0923 10.0697ZM15.4092 7.10296C15.4166 4.31833 15.3925 4.44352 15.4274 4.42289C15.9112 4.13689 16.7407 3.94476 17.4915 3.94476C18.2423 3.94476 19.0719 4.13689 19.5557 4.42289C19.5907 4.44358 19.5665 4.31489 19.5739 7.10296C19.5739 8.17709 18.3245 8.91766 17.5863 9.18591C17.5252 9.2081 17.4578 9.2081 17.3967 9.18591L17.3967 9.18597C16.6585 8.91766 15.4092 8.17709 15.4092 7.10296ZM12.0913 6.10496H10.8579C10.6059 6.10496 10.4015 6.31484 10.4015 6.57371C10.4015 6.83259 10.6059 7.04246 10.8579 7.04246H12.0913C12.3433 7.04246 12.5477 6.83259 12.5477 6.57371C12.5477 6.31484 12.3433 6.10496 12.0913 6.10496ZM24.1252 7.04246C24.3772 7.04246 24.5816 6.83259 24.5816 6.57371C24.5816 6.31484 24.3772 6.10496 24.1252 6.10496H22.8918C22.6398 6.10496 22.4355 6.31484 22.4355 6.57371C22.4355 6.83259 22.6398 7.04246 22.8918 7.04246H24.1252ZM10.9674 12.9808C10.9674 13.2397 11.1718 13.4495 11.4238 13.4495H23.5592C23.8113 13.4495 24.0156 13.2397 24.0156 12.9808C24.0156 12.7219 23.8113 12.512 23.5592 12.512H11.4238C11.1718 12.512 10.9674 12.7219 10.9674 12.9808ZM26.0756 0H10.3628C10.1108 0 9.90642 0.209876 9.90642 0.468752C9.90642 0.727628 10.1108 0.937503 10.3628 0.937503H26.0756C27.1849 0.937503 28.0874 1.86444 28.0874 3.00382V21.3536C28.0874 22.902 26.9535 23.3901 25.4579 23.3901C23.8452 23.3901 22.5332 24.7376 22.5332 26.3939C22.5332 27.9298 22.0582 29.0947 20.5505 29.0947C20.5349 29.0947 17.6976 29.0947 17.6819 29.0947C17.2841 27.4903 16.6373 26.2604 15.6787 25.2758L6.89564 16.2549V3.00382C6.89564 2.08538 7.49546 1.26813 8.35415 1.0165C8.59652 0.945503 8.73697 0.686065 8.66784 0.437127C8.59865 0.188188 8.34599 0.0439377 8.10374 0.115C6.85499 0.480939 5.98286 1.66888 5.98286 3.00382V15.5573C5.55513 15.3992 5.0789 15.4178 4.66273 15.6135L3.07115 13.9788C2.58749 13.482 1.80037 13.482 1.31672 13.9788L0.363652 14.9577C-0.121157 15.4556 -0.121278 16.2616 0.363652 16.7596L1.9553 18.3944C1.72285 18.9159 1.747 19.5291 2.02723 20.0316C2.00599 20.0636 1.37568 20.5893 1.37568 21.5719C1.37568 22.1336 1.58867 22.6618 1.97538 23.059L5.0898 26.2577C5.33941 26.5141 5.65645 26.6593 5.9828 26.6948V27.0283C5.9828 28.6847 7.29477 30.0322 8.90742 30.0322H11.7016C12.7947 31.0154 14.1794 31.6375 16.0187 31.9742C17.0931 32.1707 18.0873 31.2184 17.8796 30.0322H22.1546C23.1576 30.0322 24.1243 29.8144 25.0278 29.3847C25.2566 29.2759 25.3561 28.9973 25.2502 28.7624C25.1442 28.5274 24.8729 28.425 24.6443 28.534C24.0279 28.8271 23.3772 29.0059 22.7037 29.0688C23.2862 28.3292 23.4458 27.3365 23.4458 26.394C23.4458 25.2546 24.3483 24.3277 25.4577 24.3277C26.3757 24.3277 27.3421 24.1635 28.062 23.5653C27.9348 25.0024 27.3227 26.3313 26.3058 27.3544C26.1258 27.5356 26.1228 27.8323 26.2992 28.0173C26.4756 28.2022 26.7645 28.2053 26.9447 28.0241C28.2701 26.6905 29 24.9067 29 23.0013V3.00382C29.0002 1.3475 27.6882 0 26.0756 0V0ZM1.00911 16.0967C0.881017 15.9652 0.880956 15.7522 1.00911 15.6206L1.96218 14.6417C2.09003 14.5104 2.29796 14.5104 2.42575 14.6417L3.94042 16.1974L2.52384 17.6524L1.00911 16.0967ZM6.54635 25.5948C6.32278 25.8245 5.95889 25.8245 5.73525 25.5948L2.62084 22.3961C2.17741 21.9406 2.17729 21.2033 2.62084 20.7478L2.62948 20.7389L6.54635 24.7618C6.76998 24.9914 6.76998 25.3651 6.54635 25.5948ZM8.90748 29.0947C7.79814 29.0947 6.89564 28.1677 6.89564 27.0283V26.4913C7.18621 26.3152 7.39609 26.0588 7.51579 25.7575L10.765 29.0947H8.90748ZM11.6856 28.7143L2.95224 19.7444C2.62845 19.4119 2.62845 18.8708 2.95224 18.5383L4.80288 16.6375C5.12673 16.3049 5.65347 16.305 5.97726 16.6375L14.7106 25.6073L11.6856 28.7143ZM16.1789 31.0512C14.5353 30.7503 13.3037 30.2094 12.344 29.3637L15.3428 26.2837C16.1663 27.2693 16.6929 28.5342 16.9858 30.2224C17.0701 30.7075 16.6542 31.1382 16.1789 31.0512Z" fill="#3E4042"/>
</svg>
