<svg width="56" height="56" viewBox="0 0 56 56" fill="none" xmlns="http://www.w3.org/2000/svg">
<path d="M14.2799 18.0502H6.6433C6.14422 18.0502 5.68845 18.2581 5.35661 18.5866C5.02487 18.9183 4.82012 19.374 4.82012 19.8733V41.099C4.82012 41.5518 4.45427 41.9207 4.00167 41.9207C3.54591 41.9207 3.18005 41.5518 3.18005 41.099V19.8733C3.18005 18.9214 3.57062 18.0565 4.19702 17.4269C4.82341 16.8007 5.69152 16.4101 6.6433 16.4101H14.2797V12.0509C14.2797 11.5982 14.6487 11.2293 15.1014 11.2293C15.5541 11.2293 15.923 11.5982 15.923 12.0509V37.4748H40.6462C40.6462 26.3316 40.6462 15.1886 40.6462 4.04237L38.1689 1.89993L35.4095 4.29043C35.0933 4.56321 34.6314 4.5538 34.3305 4.28102L31.5774 1.89993L28.8179 4.29032C28.5047 4.5631 28.0397 4.55369 27.7389 4.28091L24.9888 1.89982L22.2263 4.29021C21.9131 4.56299 21.448 4.55359 21.1472 4.2808L18.3971 1.89971L15.9229 4.04215V8.33315C15.9229 8.78585 15.554 9.15477 15.1013 9.15477C14.6486 9.15477 14.2796 8.78585 14.2796 8.33315V3.67344C14.2796 3.44398 14.3788 3.21462 14.5649 3.05329L17.8514 0.207023C18.1522 -0.0628046 18.6172 -0.0719921 18.9303 0.197836L21.6929 2.59129L24.4429 0.207023C24.7435 -0.0628046 25.2086 -0.0719921 25.5217 0.197836L28.2843 2.59129L31.0346 0.207023C31.3352 -0.0628046 31.8003 -0.0719921 32.1135 0.197836L34.8729 2.59129L37.6232 0.207023C37.927 -0.0628046 38.389 -0.0719921 38.7054 0.197836L41.9515 3.01293C42.1531 3.16179 42.2863 3.40044 42.2863 3.67344V16.4101H49.3554C50.3072 16.4101 51.1755 16.8007 51.8017 17.4269C52.428 18.0535 52.8187 18.9214 52.8187 19.8733V47.7124H53.0543C53.5441 47.7124 53.9658 47.7991 54.3161 47.9574C54.6788 48.1246 54.9609 48.3665 55.1564 48.6735C55.3486 48.9805 55.4478 49.334 55.4478 49.7215C55.4478 50.112 55.3424 50.5461 55.1347 51.0051L53.7984 53.932C53.5132 54.5582 53.1752 55.0574 52.7102 55.4171C52.2142 55.7984 51.622 55.9999 50.8623 55.9999H5.13655C4.37694 55.9999 3.78478 55.7984 3.28855 55.4171C2.82348 55.0574 2.48552 54.5582 2.20037 53.932L0.864031 51.0051C0.653156 50.5461 0.550781 50.1152 0.550781 49.7245C0.550781 49.334 0.650094 48.9804 0.842375 48.6735C1.03772 48.3665 1.3198 48.1246 1.68259 47.9574C2.03292 47.7991 2.45467 47.7124 2.94445 47.7124H3.18005V44.8165C3.18005 44.3638 3.54591 43.9949 4.00167 43.9949C4.45437 43.9949 4.82012 44.3638 4.82012 44.8165V47.7124H20.7039C21.1566 47.7124 21.5255 48.0784 21.5255 48.531C21.5255 48.9308 21.69 49.2936 21.9535 49.5572C22.2171 49.8206 22.5799 49.9849 22.9767 49.9849H33.0222C33.4191 49.9849 33.7819 49.8206 34.0453 49.5572C34.3089 49.2936 34.4732 48.9308 34.4732 48.531C34.4732 48.0783 34.8421 47.7124 35.2948 47.7124H51.1786V19.8733C51.1786 19.3741 50.974 18.9185 50.6422 18.5866C50.3105 18.2581 49.8547 18.0502 49.3555 18.0502H42.2864V19.6223H49.3555C49.8082 19.6223 50.174 19.988 50.174 20.4406V24.1581C50.174 24.6108 49.8081 24.9797 49.3555 24.9797C48.9028 24.9797 48.5339 24.6108 48.5339 24.1581V21.2621H42.2864V34.2502H43.6848C44.3482 34.2502 44.9497 34.523 45.3868 34.9571C45.8209 35.3942 46.0907 35.9957 46.0907 36.656V39.9332C46.0907 40.5967 45.8209 41.198 45.3868 41.6354C44.9497 42.0695 44.3482 42.3391 43.6848 42.3391H12.8815C12.218 42.3391 11.6166 42.0695 11.1825 41.6354C10.7453 41.1981 10.4756 40.5968 10.4756 39.9332V36.656C10.4756 35.9957 10.7453 35.3942 11.1825 34.9571C11.6166 34.523 12.218 34.2502 12.8815 34.2502H14.2799V21.2623H8.03236V44.5004H48.5339V27.8756C48.5339 27.42 48.9028 27.054 49.3555 27.054C49.8082 27.054 50.174 27.42 50.174 27.8756V45.322C50.174 45.7747 49.8081 46.1406 49.3555 46.1406H7.21073C6.75803 46.1406 6.39228 45.7746 6.39228 45.322V20.4407C6.39228 19.988 6.75814 19.6224 7.21073 19.6224H14.2799V18.0502ZM19.7396 29.2832C19.2869 29.2832 18.9212 28.9174 18.9212 28.4648C18.9212 28.0089 19.287 27.6432 19.7396 27.6432H36.8264C37.2791 27.6432 37.648 28.0089 37.648 28.4648C37.648 28.9175 37.2791 29.2832 36.8264 29.2832H19.7396ZM19.7396 35.6269C19.2869 35.6269 18.9212 35.2609 18.9212 34.8083C18.9212 34.3527 19.287 33.9865 19.7396 33.9865H33.1275C33.5802 33.9865 33.9459 34.3527 33.9459 34.8083C33.9459 35.261 33.5801 35.6269 33.1275 35.6269H19.7396ZM19.7396 32.455C19.2869 32.455 18.9212 32.0891 18.9212 31.6365C18.9212 31.1808 19.287 30.8148 19.7396 30.8148H36.8264C37.2791 30.8148 37.648 31.1808 37.648 31.6365C37.648 32.0892 37.2791 32.455 36.8264 32.455H19.7396ZM31.5711 9.70077C31.909 10.0045 31.9339 10.5224 31.6331 10.8571C31.3292 11.1951 30.8115 11.2198 30.4767 10.919C30.4736 10.916 29.9402 10.4261 29.0162 10.2619V15.179C29.32 15.2969 29.6426 15.4146 29.9803 15.5325C31.3881 16.0316 32.2376 16.9802 32.6126 18.078C32.8482 18.7755 32.8886 19.529 32.7491 20.2544C32.6126 20.9707 32.3057 21.6651 31.8469 22.2605C31.1865 23.1131 30.2224 23.761 29.0161 23.9718V25.2399C29.0161 25.6926 28.6502 26.0585 28.1944 26.0585C27.7417 26.0585 27.376 25.6925 27.376 25.2399V24.034C26.914 24.0154 26.511 23.9691 26.1079 23.8698C25.4661 23.7117 24.8677 23.4327 24.1049 22.9334C23.7267 22.6853 23.6212 22.177 23.8693 21.7986C24.1174 21.4203 24.6259 21.315 25.0041 21.5598C25.6055 21.9537 26.0521 22.1707 26.5015 22.2792C26.7682 22.3474 27.0504 22.3816 27.3759 22.3969V16.2796C26.6535 15.9604 25.9249 15.5883 25.3016 15.1015C24.8024 14.711 24.4676 14.1808 24.2908 13.5948C24.1173 13.0213 24.0956 12.3888 24.2165 11.7747C24.3373 11.1672 24.5977 10.5718 24.9947 10.0664C25.4411 9.49602 26.0551 9.04332 26.827 8.81068C27.0131 8.75468 27.196 8.70841 27.3759 8.67418V7.53044C27.3759 7.07774 27.7417 6.70882 28.1943 6.70882C28.6501 6.70882 29.016 7.07774 29.016 7.53044V8.61249C30.6039 8.80762 31.568 9.6976 31.5711 9.70077V9.70077ZM27.3762 10.3581C27.3483 10.3644 27.3204 10.3735 27.2924 10.3797C26.8677 10.5099 26.5297 10.758 26.2849 11.0742C26.0523 11.3687 25.8972 11.7221 25.8259 12.0881C25.7546 12.4478 25.7639 12.8073 25.8602 13.1267C25.9439 13.4028 26.0927 13.6445 26.3066 13.8121C26.598 14.0415 26.9546 14.2585 27.3762 14.4694V10.3581ZM29.0163 16.9279V22.298C29.6612 22.1181 30.1821 21.74 30.5511 21.2624C30.8518 20.8717 31.0534 20.419 31.1401 19.9539C31.2271 19.4983 31.2053 19.03 31.0596 18.6024C30.7124 17.5822 29.9371 17.2626 29.0163 16.9279V16.9279ZM42.2863 35.8904V38.2964C42.2863 38.7491 41.9174 39.115 41.4647 39.115H15.1014C14.6487 39.115 14.2797 38.749 14.2797 38.2964V35.8904H12.8814C12.6705 35.8904 12.4815 35.9773 12.3418 36.1168C12.2024 36.2563 12.1155 36.4485 12.1155 36.6562V39.9334C12.1155 40.1443 12.2024 40.3366 12.3418 40.476C12.4814 40.6123 12.6705 40.6993 12.8814 40.6993H43.6847C43.8955 40.6993 44.0877 40.6123 44.2242 40.476C44.3637 40.3366 44.4504 40.1443 44.4504 39.9334V36.6562C44.4504 36.4486 44.3637 36.2564 44.2242 36.1168C44.0877 35.9773 43.8955 35.8904 43.6847 35.8904H42.2863ZM5.13655 54.3568H50.8622C51.2375 54.3568 51.5102 54.2763 51.7086 54.1212C51.9412 53.9413 52.1335 53.6468 52.3132 53.253L53.6463 50.3261C53.7239 50.1619 53.8819 49.7216 53.7704 49.5449C53.6619 49.3743 53.2277 49.3526 53.0542 49.3526H36.0048C35.8591 49.8764 35.58 50.3446 35.2048 50.7168C34.6467 51.278 33.8715 51.6254 33.022 51.6254H22.9765C22.127 51.6254 21.3517 51.278 20.7906 50.7168C20.4186 50.3447 20.1396 49.8734 19.9939 49.3526H2.94445C2.77087 49.3526 2.33677 49.3741 2.22827 49.5449C2.11659 49.7215 2.27486 50.1619 2.3523 50.3261L3.68536 53.253C3.86528 53.6468 4.05745 53.9413 4.28692 54.1212C4.48839 54.2762 4.76128 54.3568 5.13655 54.3568Z" fill="#77C043"/>
</svg>
