<svg width="56" height="56" viewBox="0 0 56 56" fill="none" xmlns="http://www.w3.org/2000/svg">
<path d="M46.0469 37.953C46.0469 33.8378 42.4604 31.9379 38.9522 30.6225L32.9219 28.361V24.8236C34.7071 23.4804 35.9285 21.4266 36.162 19.0859H37.0393C37.7011 19.0859 38.3235 18.8257 38.7916 18.353C39.2547 17.8854 39.5064 17.2689 39.5002 16.6171L39.4845 14.9765C39.4715 13.6239 38.3675 12.5234 37.0235 12.5234H36.2031V8.42187C36.2031 6.16022 34.3632 4.32031 32.1016 4.32031H22.2578C20.9009 4.32031 19.7969 5.42423 19.7969 6.78125V12.5483H18.9766C17.6341 12.5483 16.5302 13.6482 16.5156 15.0003L16.4982 16.6161C16.4912 17.2676 16.7423 17.8839 17.2051 18.3518C17.6735 18.8252 18.2964 19.0859 18.9591 19.0859H19.8379C20.0714 21.4266 21.2928 23.4804 23.0781 24.8236V28.3612L17.0478 30.6225C13.5396 31.9379 9.95312 33.8378 9.95312 37.953V51.078H3.28125V55.9999H42.875V54.3593H4.92188V52.7186H51.0781V54.3593H47.797V55.9999H52.7188V51.078H46.0469V37.953ZM37.0234 14.164C37.4714 14.164 37.8394 14.5354 37.8438 14.992L37.8595 16.6327C37.8616 16.8433 37.7786 17.0441 37.6259 17.1983C37.4683 17.3575 37.2599 17.4451 37.0393 17.4451H36.2031V14.1638H37.0234V14.164ZM22.2578 5.96094H32.1016C33.4585 5.96094 34.5625 7.06486 34.5625 8.42187V12.5265L28.8139 12.5483C27.5043 12.5483 26.4305 11.52 26.357 10.2286C26.3586 10.1817 26.3594 10.1348 26.3594 10.0873H24.7123C24.7123 10.1347 24.7131 10.1816 24.7147 10.2286C24.6412 11.52 23.5672 12.5483 22.2578 12.5483H21.4375V6.78125C21.4375 6.32898 21.8055 5.96094 22.2578 5.96094ZM18.3716 17.1979C18.2192 17.044 18.1367 16.8436 18.139 16.6337L18.1562 15.018C18.1612 14.5608 18.5292 14.1888 18.9766 14.1888H19.7969V17.4452H18.9592C18.7381 17.4452 18.5294 17.3574 18.3716 17.1979ZM21.4375 18.2655V14.1888H22.2578C23.5962 14.1888 24.7869 13.5446 25.536 12.5497C26.2854 13.5446 27.4767 14.1888 28.817 14.1888L34.5625 14.167V18.2655C34.5625 21.8841 31.6186 24.828 28 24.828C24.3815 24.828 21.4375 21.8841 21.4375 18.2655ZM28 26.4686C29.1663 26.4686 30.2757 26.2223 31.2812 25.7817V28.4651L28 30.4338L24.7188 28.4651V25.7818C25.7243 26.2224 26.8337 26.4686 28 26.4686ZM11.5938 37.953C11.5938 35.0207 14.0044 33.5159 17.6239 32.1585L23.8159 29.8366L28 32.3472L32.1841 29.8367L38.3759 32.1587C41.9956 33.5159 44.4062 35.0207 44.4062 37.953V51.078H41.1251V37.1327C41.1251 35.7757 40.0211 34.6718 38.6642 34.6718H17.3359C15.9789 34.6718 14.875 35.7757 14.875 37.1327V51.078H11.5938V37.953ZM39.4845 51.078H16.5156V37.1327C16.5156 36.6803 16.8836 36.3124 17.3359 36.3124H38.6642C39.1165 36.3124 39.4845 36.6803 39.4845 37.1327V51.078Z" fill="#77C043"/>
<path d="M44.5137 54.3594H46.1543V56H44.5137V54.3594Z" fill="#77C043"/>
<path d="M28 40.4141C26.1907 40.4141 24.7188 41.886 24.7188 43.6953C24.7188 45.5046 26.1907 46.9766 28 46.9766C29.8093 46.9766 31.2812 45.5046 31.2812 43.6953C31.2812 41.886 29.8093 40.4141 28 40.4141ZM28 45.3359C27.0954 45.3359 26.3594 44.6 26.3594 43.6953C26.3594 42.7907 27.0954 42.0547 28 42.0547C28.9046 42.0547 29.6406 42.7907 29.6406 43.6953C29.6406 44.6 28.9046 45.3359 28 45.3359Z" fill="#77C043"/>
<path d="M36.2012 37.9531H37.8418V39.5938H36.2012V37.9531Z" fill="#77C043"/>
<path d="M36.2012 41.2344H37.8418V42.875H36.2012V41.2344Z" fill="#77C043"/>
<path d="M10.8831 15.1637C13.1448 15.1637 14.9847 13.3238 14.9847 11.0622V10.2419L17.6446 7.58198L14.9847 4.92188V4.10156C14.9847 1.83991 13.1448 0 10.8831 0H4.92188C2.66022 0 0.820312 1.83991 0.820312 4.10156V6.76145H2.46094V4.10156C2.46094 2.74466 3.56486 1.64062 4.92188 1.64062H10.8831C12.24 1.64062 13.3441 2.74466 13.3441 4.10156V5.60142L15.3245 7.58187L13.3442 9.56222V11.0621C13.3442 12.419 12.2402 13.523 10.8832 13.523H4.92188C3.56486 13.523 2.46094 12.4191 2.46094 11.0621V8.4023H0.820312V11.0622C0.820312 13.3237 2.66022 15.1637 4.92188 15.1637H10.8831Z" fill="#77C043"/>
<path d="M51.0783 15.6289H45.117C42.8554 15.6289 41.0155 17.4688 41.0155 19.7305V20.5508L38.3555 23.2108L41.0155 25.8708V26.6911C41.0155 28.9526 42.8554 30.7926 45.117 30.7926H51.0783C53.3399 30.7926 55.1799 28.9527 55.1799 26.6911V19.7305C55.1799 17.4689 53.3399 15.6289 51.0783 15.6289ZM53.5392 26.6911C53.5392 28.048 52.4352 29.152 51.0783 29.152H45.117C43.7601 29.152 42.6561 28.0481 42.6561 26.6911V25.1911L40.6756 23.2108L42.6561 21.2303V19.7305C42.6561 18.3736 43.7601 17.2695 45.117 17.2695H51.0783C52.4352 17.2695 53.5392 18.3735 53.5392 19.7305V26.6911Z" fill="#77C043"/>
<path d="M47.419 19.4972L44.7207 26.5816L46.254 27.1656L46.894 25.4854H49.3047L49.9382 27.1642L51.4732 26.5849L48.798 19.4961L47.419 19.4972ZM47.5187 23.8447L48.1048 22.3062L48.6854 23.8447H47.5187Z" fill="#77C043"/>
<path d="M7.89133 4.0625C5.95025 4.0625 4.37109 5.64166 4.37109 7.58263C4.37109 9.52359 5.95025 11.1029 7.89133 11.1029C8.56311 11.1029 9.20514 10.9165 9.75934 10.5681L10.612 11.4208L11.7721 10.2607L10.909 9.39759C11.2366 8.85499 11.4115 8.23177 11.4115 7.58263C11.4116 5.64155 9.83241 4.0625 7.89133 4.0625ZM9.67863 8.16713L8.88467 7.37317L7.72453 8.53331L8.53938 9.34816C8.33473 9.42308 8.11609 9.46213 7.89133 9.46213C6.85489 9.46213 6.01172 8.61895 6.01172 7.58252C6.01172 6.54619 6.85489 5.70302 7.89133 5.70302C8.92777 5.70302 9.77094 6.54619 9.77094 7.58252C9.77094 7.78398 9.73933 7.98075 9.67863 8.16713Z" fill="#77C043"/>
</svg>