<svg width="56" height="52" viewBox="0 0 56 52" fill="none" xmlns="http://www.w3.org/2000/svg">
<path fill-rule="evenodd" clip-rule="evenodd" d="M54.3594 43.6444V14.918C54.3594 13.5611 53.2555 12.457 51.8984 12.457H46.9503C46.5253 5.60075 40.8133 0.152453 33.8517 0.152344C30.6706 0.152344 27.6015 1.30548 25.2101 3.39936L26.2908 4.63366C28.3831 2.80184 31.0683 1.79297 33.8517 1.79297C40.184 1.79308 45.336 6.94497 45.336 13.2773C45.336 19.6098 40.184 24.7617 33.8517 24.7617C31.7923 24.7617 29.7717 24.2097 28.0085 23.1653L27.8152 23.0508H24.0781V19.3139L23.9636 19.1204C22.9193 17.3577 22.3673 15.3371 22.3673 13.2772C22.3673 10.4936 23.3762 7.80837 25.208 5.71625L23.9737 4.63552C22.0604 6.8205 20.9332 9.5715 20.7529 12.4569H4.10156C2.74455 12.4569 1.64062 13.561 1.64062 14.9179V43.6444H0V47.746C0 50.0077 1.83991 51.8476 4.10156 51.8476H44.5156V50.2069H4.10156C2.74455 50.2069 1.64062 49.1029 1.64062 47.746V45.2851H23.379L24.1993 47.0193H31.8007L32.621 45.2851H54.3594V47.746C54.3594 49.1029 53.2555 50.2069 51.8984 50.2069H49.4375V51.8476H51.8984C54.1601 51.8476 56 50.0077 56 47.746V43.6444H54.3594ZM52.7188 14.918V43.6445H51.0781V15.7383H46.7443C46.8464 15.2021 46.9157 14.6546 46.9502 14.0977H51.8983C52.3508 14.0977 52.7188 14.4656 52.7188 14.918ZM3.28125 14.918C3.28125 14.4656 3.64919 14.0977 4.10156 14.0977H20.7527C20.7872 14.6498 20.8568 15.1976 20.9598 15.7383H4.92188V43.6445H3.28125V14.918ZM12.3046 30.1912V28.4027L15.6671 27.7302H18.8671V30.1912C18.8671 32.0005 17.3951 33.4725 15.5858 33.4725C13.7765 33.4725 12.3046 32.0005 12.3046 30.1912ZM18.8671 26.0895H15.5046L12.3046 26.7295V25.2693C12.3046 24.817 12.6725 24.449 13.1249 24.449H18.0468C18.4991 24.449 18.8671 24.817 18.8671 25.2693V26.0895ZM20.5078 43.6444H10.6641V40.035C10.6641 37.321 12.872 35.1131 15.5859 35.1131C18.2999 35.1131 20.5078 37.321 20.5078 40.035V43.6444ZM31.5821 43.6444L30.7618 45.3787H25.2382L24.4179 43.6444H22.1484V40.035C22.1484 37.4618 20.6591 35.231 18.4978 34.156C19.7157 33.2593 20.5078 31.8162 20.5078 30.1912V25.2693C20.5078 23.9124 19.4039 22.8084 18.0469 22.8084H13.125C11.768 22.8084 10.6641 23.9124 10.6641 25.2693V30.1912C10.6641 31.8163 11.4562 33.2593 12.674 34.1562C10.5127 35.2311 9.02344 37.4618 9.02344 40.035V43.6444H6.5625V17.3789H21.3835C21.6543 18.2034 22.0063 19.0014 22.4376 19.7595V24.6915H27.3697C29.3385 25.8115 31.5747 26.4025 33.8517 26.4025C39.6569 26.4025 44.5932 22.6135 46.3195 17.379H49.4375V43.6446H31.5821V43.6444Z" fill="#77C043"/>
<path fill-rule="evenodd" clip-rule="evenodd" d="M46.1562 50.207H47.7969V51.8477H46.1562V50.207Z" fill="#77C043"/>
<path fill-rule="evenodd" clip-rule="evenodd" d="M37.9531 5.07422H39.5938V6.71484H37.9531V5.07422Z" fill="#77C043"/>
<path fill-rule="evenodd" clip-rule="evenodd" d="M46.1562 21.4805H47.7969V23.1211H46.1562V21.4805Z" fill="#77C043"/>
<path fill-rule="evenodd" clip-rule="evenodd" d="M46.1562 24.7617H47.7969V26.4023H46.1562V24.7617Z" fill="#77C043"/>
<path fill-rule="evenodd" clip-rule="evenodd" d="M34.6719 15.2458C36.5416 14.8646 37.9531 13.2072 37.9531 11.2266C37.9531 8.96491 36.1132 7.125 33.8516 7.125C31.5899 7.125 29.75 8.96491 29.75 11.2266H31.3906C31.3906 9.86966 32.4945 8.76563 33.8516 8.76563C35.2085 8.76563 36.3125 9.86966 36.3125 11.2266C36.3125 12.5835 35.2086 13.6875 33.8516 13.6875H33.0312V16.9688H34.6719V15.2458Z" fill="#77C043"/>
<path fill-rule="evenodd" clip-rule="evenodd" d="M26.4688 29.7305H33.0312V31.3711H26.4688V29.7305Z" fill="#77C043"/>
<path fill-rule="evenodd" clip-rule="evenodd" d="M34.6719 29.7305H41.2344V31.3711H34.6719V29.7305Z" fill="#77C043"/>
</svg>