<svg width="184" height="24" viewBox="0 0 184 24" fill="none" xmlns="http://www.w3.org/2000/svg">
<rect x="24" width="160" height="4" rx="2" fill="#CDD4DB"/>
<rect width="24" height="4" rx="2" fill="#77C043"/>
<path d="M100.344 20.1875V20.6563C100.344 21.2812 100.756 21.806 101.321 21.9886C101.51 23.0925 102.468 24 103.625 24C104.782 24 105.74 23.0925 105.929 21.9886C106.494 21.806 106.906 21.2812 106.906 20.6563V20.1875H100.344V20.1875Z" fill="#CDD4DB"/>
<path d="M102.417 8.12639C100.301 8.56814 98.578 10.2857 98.1294 12.4005C97.7481 14.2 98.2187 16.0064 99.4198 17.3568C99.9055 17.9032 100.202 18.5628 100.299 19.2501H106.952C107.053 18.566 107.358 17.896 107.857 17.3261C108.755 16.302 109.281 14.9874 109.281 13.625C109.281 10.0569 105.977 7.37686 102.417 8.12639ZM106.906 14.0938C106.647 14.0938 106.437 13.8842 106.437 13.6251C106.437 12.0742 105.175 10.8126 103.624 10.8126C103.365 10.8126 103.156 10.6029 103.156 10.3438C103.156 10.0847 103.365 9.87508 103.624 9.87508C105.693 9.87508 107.375 11.5574 107.375 13.6251C107.375 13.8842 107.165 14.0938 106.906 14.0938Z" fill="#CDD4DB"/>
<path d="M16.8327 11.666H7.16602C6.89002 11.666 6.66602 11.89 6.66602 12.166V23.4993C6.66602 23.7013 6.78802 23.884 6.97468 23.9613C7.16068 24.0387 7.37668 23.996 7.51935 23.8527L8.81335 22.5587L9.96068 23.834C10.0527 23.936 10.182 23.9953 10.3193 23.9993C10.4633 24.008 10.5893 23.9507 10.686 23.8533L11.9993 22.54L13.3127 23.8533C13.4093 23.9507 13.544 24.0073 13.6793 23.9993C13.8167 23.996 13.946 23.936 14.038 23.834L15.1853 22.5587L16.4793 23.8527C16.5753 23.9487 16.7027 23.9993 16.8327 23.9993C16.8973 23.9993 16.962 23.9867 17.024 23.9613C17.2107 23.884 17.3327 23.7013 17.3327 23.4993V12.166C17.3327 11.89 17.1087 11.666 16.8327 11.666V11.666ZM11.746 16.166H12.2527C13.032 16.166 13.666 16.8 13.666 17.5793C13.666 18.28 13.1607 18.8567 12.4993 18.974V19.4987C12.4993 19.7747 12.2753 19.9987 11.9993 19.9987C11.7233 19.9987 11.4993 19.7747 11.4993 19.4987V18.9993H10.8327C10.5567 18.9993 10.3327 18.7753 10.3327 18.4993C10.3327 18.2233 10.5567 17.9993 10.8327 17.9993H12.2527C12.4807 17.9993 12.666 17.814 12.666 17.586C12.666 17.3513 12.4807 17.166 12.2527 17.166H11.746C10.9667 17.166 10.3327 16.532 10.3327 15.7527C10.3327 15.052 10.838 14.4753 11.4993 14.358V13.8327C11.4993 13.5567 11.7233 13.3327 11.9993 13.3327C12.2753 13.3327 12.4993 13.5567 12.4993 13.8327V14.3327H13.166C13.442 14.3327 13.666 14.5567 13.666 14.8327C13.666 15.1087 13.442 15.3327 13.166 15.3327H11.746C11.518 15.3327 11.3327 15.518 11.3327 15.746C11.3327 15.9807 11.518 16.166 11.746 16.166V16.166Z" fill="#77C043"/>
<path d="M18.1667 8H5.83333C4.822 8 4 8.822 4 9.83333V12.8333C4 13.7873 4.73467 14.564 5.66667 14.65V12.1667C5.66667 11.3393 6.33933 10.6667 7.16667 10.6667H16.8333C17.6607 10.6667 18.3333 11.3393 18.3333 12.1667V14.65C19.2653 14.564 20 13.7873 20 12.8333V9.83333C20 8.822 19.178 8 18.1667 8Z" fill="#77C043"/>
</svg>
