<svg width="72" height="72" viewBox="0 0 72 72" fill="none" xmlns="http://www.w3.org/2000/svg">
<g clip-path="url(#clip0_2748_22244)">
<path d="M14.625 64.125H14.4821C13.9815 62.1866 12.2175 60.75 10.125 60.75C7.99088 60.75 6.19988 62.2429 5.73975 64.2398C3.74288 64.6999 2.25 66.4909 2.25 68.625V69.75C2.25 70.371 2.754 70.875 3.375 70.875H4.5V72H6.75V70.875H14.625V72H16.875V70.875H18C18.621 70.875 19.125 70.371 19.125 69.75V68.625C19.125 66.1432 17.1068 64.125 14.625 64.125ZM4.5 68.625C4.5 67.3841 5.50912 66.375 6.75 66.375C7.371 66.375 7.875 65.871 7.875 65.25C7.875 64.0091 8.88412 63 10.125 63C11.3659 63 12.375 64.0091 12.375 65.25C12.375 65.871 12.879 66.375 13.5 66.375H14.625C15.8659 66.375 16.875 67.3841 16.875 68.625H4.5Z" fill="#FAFAFA"/>
<path d="M40.5 64.125H40.3571C39.8565 62.1866 38.0925 60.75 36 60.75C33.8659 60.75 32.0749 62.2429 31.6147 64.2398C29.6179 64.6999 28.125 66.4909 28.125 68.625V69.75C28.125 70.371 28.629 70.875 29.25 70.875H30.375V72H32.625V70.875H40.5V72H42.75V70.875H43.875C44.496 70.875 45 70.371 45 69.75V68.625C45 66.1432 42.9818 64.125 40.5 64.125ZM30.375 68.625C30.375 67.3841 31.3841 66.375 32.625 66.375C33.246 66.375 33.75 65.871 33.75 65.25C33.75 64.0091 34.7591 63 36 63C37.2409 63 38.25 64.0091 38.25 65.25C38.25 65.871 38.754 66.375 39.375 66.375H40.5C41.7409 66.375 42.75 67.3841 42.75 68.625H30.375Z" fill="#FAFAFA"/>
<path d="M66.375 64.125H66.2321C65.7315 62.1866 63.9675 60.75 61.875 60.75C59.7409 60.75 57.9499 62.2429 57.4898 64.2398C55.4929 64.6999 54 66.4909 54 68.625V69.75C54 70.371 54.504 70.875 55.125 70.875H56.25V72H58.5V70.875H66.375V72H68.625V70.875H69.75C70.371 70.875 70.875 70.371 70.875 69.75V68.625C70.875 66.1432 68.8568 64.125 66.375 64.125ZM56.25 68.625C56.25 67.3841 57.2591 66.375 58.5 66.375C59.121 66.375 59.625 65.871 59.625 65.25C59.625 64.0091 60.6341 63 61.875 63C63.1159 63 64.125 64.0091 64.125 65.25C64.125 65.871 64.629 66.375 65.25 66.375H66.375C67.6159 66.375 68.625 67.3841 68.625 68.625H56.25Z" fill="#FAFAFA"/>
<path d="M13.5 18H11.25V20.25H13.5V18Z" fill="#FAFAFA"/>
<path d="M18 18H15.75V20.25H18V18Z" fill="#FAFAFA"/>
<path d="M22.5 18H20.25V20.25H22.5V18Z" fill="#FAFAFA"/>
<path d="M13.5 22.5H11.25V24.75H13.5V22.5Z" fill="#FAFAFA"/>
<path d="M18 22.5H15.75V24.75H18V22.5Z" fill="#FAFAFA"/>
<path d="M22.5 22.5H20.25V24.75H22.5V22.5Z" fill="#FAFAFA"/>
<path d="M13.5 27H11.25V29.25H13.5V27Z" fill="#FAFAFA"/>
<path d="M18 27H15.75V29.25H18V27Z" fill="#FAFAFA"/>
<path d="M22.5 27H20.25V29.25H22.5V27Z" fill="#FAFAFA"/>
<path d="M13.5 31.5H11.25V33.75H13.5V31.5Z" fill="#FAFAFA"/>
<path d="M18 31.5H15.75V33.75H18V31.5Z" fill="#FAFAFA"/>
<path d="M22.5 31.5H20.25V33.75H22.5V31.5Z" fill="#FAFAFA"/>
<path d="M13.5 36H11.25V38.25H13.5V36Z" fill="#FAFAFA"/>
<path d="M18 36H15.75V38.25H18V36Z" fill="#FAFAFA"/>
<path d="M22.5 36H20.25V38.25H22.5V36Z" fill="#FAFAFA"/>
<path d="M13.5 40.5H11.25V42.75H13.5V40.5Z" fill="#FAFAFA"/>
<path d="M18 40.5H15.75V42.75H18V40.5Z" fill="#FAFAFA"/>
<path d="M22.5 40.5H20.25V42.75H22.5V40.5Z" fill="#FAFAFA"/>
<path d="M13.5 45H11.25V47.25H13.5V45Z" fill="#FAFAFA"/>
<path d="M18 45H15.75V47.25H18V45Z" fill="#FAFAFA"/>
<path d="M31.5 22.5H29.25V24.75H31.5V22.5Z" fill="#FAFAFA"/>
<path d="M36 22.5H33.75V24.75H36V22.5Z" fill="#FAFAFA"/>
<path d="M31.5 27H29.25V29.25H31.5V27Z" fill="#FAFAFA"/>
<path d="M36 27H33.75V29.25H36V27Z" fill="#FAFAFA"/>
<path d="M31.5 31.5H29.25V33.75H31.5V31.5Z" fill="#FAFAFA"/>
<path d="M36 31.5H33.75V33.75H36V31.5Z" fill="#FAFAFA"/>
<path d="M31.5 36H29.25V38.25H31.5V36Z" fill="#FAFAFA"/>
<path d="M36 36H33.75V38.25H36V36Z" fill="#FAFAFA"/>
<path d="M31.5 40.5H29.25V42.75H31.5V40.5Z" fill="#FAFAFA"/>
<path d="M36 40.5H33.75V42.75H36V40.5Z" fill="#FAFAFA"/>
<path d="M31.5 45H29.25V47.25H31.5V45Z" fill="#FAFAFA"/>
<path d="M36 45H33.75V47.25H36V45Z" fill="#FAFAFA"/>
<path d="M31.5 49.5H29.25V51.75H31.5V49.5Z" fill="#FAFAFA"/>
<path d="M36 49.5H33.75V51.75H36V49.5Z" fill="#FAFAFA"/>
<path d="M45 32.625H42.75V34.875H45V32.625Z" fill="#FAFAFA"/>
<path d="M49.5 32.625H47.25V34.875H49.5V32.625Z" fill="#FAFAFA"/>
<path d="M45 37.125H42.75V39.375H45V37.125Z" fill="#FAFAFA"/>
<path d="M49.5 37.125H47.25V39.375H49.5V37.125Z" fill="#FAFAFA"/>
<path d="M45 41.625H42.75V43.875H45V41.625Z" fill="#FAFAFA"/>
<path d="M49.5 41.625H47.25V43.875H49.5V41.625Z" fill="#FAFAFA"/>
<path d="M45 46.125H42.75V48.375H45V46.125Z" fill="#FAFAFA"/>
<path d="M49.5 46.125H47.25V48.375H49.5V46.125Z" fill="#FAFAFA"/>
<path d="M45 50.625H42.75V52.875H45V50.625Z" fill="#FAFAFA"/>
<path d="M58.5 39.375H56.25V41.625H58.5V39.375Z" fill="#FAFAFA"/>
<path d="M58.5 43.875H56.25V46.125H58.5V43.875Z" fill="#FAFAFA"/>
<path d="M58.5 48.375H56.25V50.625H58.5V48.375Z" fill="#FAFAFA"/>
<path d="M49.5 50.625H47.25V52.875H49.5V50.625Z" fill="#FAFAFA"/>
<path d="M67.5 32.625H65.25V34.875H67.5V32.625Z" fill="#FAFAFA"/>
<path d="M67.5 37.125H65.25V39.375H67.5V37.125Z" fill="#FAFAFA"/>
<path d="M67.5 41.625H65.25V43.875H67.5V41.625Z" fill="#FAFAFA"/>
<path d="M67.5 46.125H65.25V48.375H67.5V46.125Z" fill="#FAFAFA"/>
<path d="M67.5 50.625H65.25V52.875H67.5V50.625Z" fill="#FAFAFA"/>
<path d="M22.5 45H20.25V47.25H22.5V45Z" fill="#FAFAFA"/>
<path d="M13.5 49.5H11.25V51.75H13.5V49.5Z" fill="#FAFAFA"/>
<path d="M5.625 29.25H3.375V31.5H5.625V29.25Z" fill="#FAFAFA"/>
<path d="M5.625 33.75H3.375V36H5.625V33.75Z" fill="#FAFAFA"/>
<path d="M5.625 38.25H3.375V40.5H5.625V38.25Z" fill="#FAFAFA"/>
<path d="M5.625 42.75H3.375V45H5.625V42.75Z" fill="#FAFAFA"/>
<path d="M5.625 47.25H3.375V49.5H5.625V47.25Z" fill="#FAFAFA"/>
<path d="M5.625 51.75H3.375V54H5.625V51.75Z" fill="#FAFAFA"/>
<path d="M18 49.5H15.75V51.75H18V49.5Z" fill="#FAFAFA"/>
<path d="M22.5 49.5H20.25V51.75H22.5V49.5Z" fill="#FAFAFA"/>
<path d="M71.991 29.2039C71.9854 29.0711 71.964 28.9406 71.9123 28.8169C71.9089 28.8067 71.901 28.8 71.8965 28.791C71.8583 28.7055 71.8132 28.6222 71.7525 28.548L67.2525 22.923C66.8261 22.3886 65.9216 22.3886 65.4952 22.923L60.9952 28.548C60.9356 28.6234 60.8895 28.7055 60.8512 28.791C60.8467 28.8 60.84 28.8079 60.8355 28.8169C60.7837 28.9406 60.7624 29.0711 60.7568 29.2039C60.759 29.2207 60.75 29.2342 60.75 29.25V34.875H58.5V24.75H60.75C61.371 24.75 61.875 24.246 61.875 23.625V18C61.875 17.379 61.371 16.875 60.75 16.875H58.5V14.625H56.25V16.875H54C53.379 16.875 52.875 17.379 52.875 18V23.625C52.875 24.246 53.379 24.75 54 24.75H56.25V34.875H54V29.25C54 28.629 53.496 28.125 52.875 28.125H49.5V24.75C49.5 24.129 48.996 23.625 48.375 23.625H43.875C43.254 23.625 42.75 24.129 42.75 24.75V28.125H40.5V19.125C40.5 18.504 39.996 18 39.375 18H33.75V14.8005C34.4666 15.1132 35.2316 15.2809 36 15.2809C37.44 15.2809 38.8811 14.733 39.978 13.6361C40.1895 13.4246 40.3076 13.1389 40.3076 12.8407C40.3076 12.5426 40.1895 12.2557 39.978 12.0454L37.8248 9.89213L40.1715 7.54537L38.5807 5.95463L36.234 8.30138L33.6128 5.68125C33.1729 5.24138 32.4619 5.24138 32.022 5.68125C30.0274 7.67588 29.8676 10.7966 31.5 12.996V18H27V14.625C27 14.004 26.496 13.5 25.875 13.5H23.4934L22.491 5.4855C22.4213 4.923 21.942 4.5 21.375 4.5H18V0H15.75V4.5H12.375C11.808 4.5 11.3288 4.923 11.259 5.4855L10.2566 13.5H7.875C7.254 13.5 6.75 14.004 6.75 14.625V24.75H1.125C0.504 24.75 0 25.254 0 25.875V56.25V57.375V58.5H1.125H7.875H25.875H39.375H52.875H61.875H70.875H72V57.375V56.25V29.25C72 29.2342 71.991 29.2207 71.991 29.2039ZM55.125 19.125H59.625V22.5H55.125V19.125ZM32.9535 8.20463L37.4546 12.7057C36.2002 13.302 34.65 13.0826 33.6128 12.0465C32.5755 11.0081 32.3561 9.459 32.9535 8.20463ZM66.375 25.4261L68.5339 28.125H64.215L66.375 25.4261ZM45 25.875H47.25V28.125H45V25.875ZM13.3684 6.75H20.3816L21.2254 13.5H12.5246L13.3684 6.75ZM2.25 27H6.75V56.25H2.25V27ZM9 25.875V15.75H11.25H22.5H24.75V19.125V56.25H18V54H15.75V56.25H9V25.875ZM27 20.25H38.25V29.25V56.25H27V20.25ZM40.5 30.375H51.75V36V56.25H40.5V30.375ZM54 37.125H60.75V56.25H54V37.125ZM63 56.25V36V30.375H69.75V56.25H63Z" fill="#FAFAFA"/>
<path d="M28.125 60.75H19.125V63H28.125V60.75Z" fill="#FAFAFA"/>
<path d="M54 60.75H45V63H54V60.75Z" fill="#FAFAFA"/>
<path d="M72 60.75H69.75V63H72V60.75Z" fill="#FAFAFA"/>
<path d="M2.25 60.75H0V63H2.25V60.75Z" fill="#FAFAFA"/>
<path d="M19.125 9H14.625V11.25H19.125V9Z" fill="#FAFAFA"/>
</g>
<defs>
<clipPath id="clip0_2748_22244">
<rect width="72" height="72" fill="white"/>
</clipPath>
</defs>
</svg>
