<svg width="192" height="24" viewBox="0 0 192 24" fill="none" xmlns="http://www.w3.org/2000/svg">
<rect width="72" height="4" rx="2" fill="#CDD4DB"/>
<rect x="96" width="72" height="4" rx="2" fill="#CDD4DB"/>
<rect x="72" width="24" height="4" rx="2" fill="#77C043"/>
<rect x="168" width="24" height="4" rx="2" fill="#77C043"/>
<path d="M32.3438 20.1875V20.6563C32.3438 21.2812 32.7563 21.806 33.3212 21.9886C33.5103 23.0925 34.4679 24 35.625 24C36.7821 24 37.7397 23.0925 37.9288 21.9886C38.4937 21.806 38.9062 21.2812 38.9062 20.6563V20.1875H32.3438V20.1875Z" fill="#CDD4DB"/>
<path d="M34.4168 8.12639C32.3011 8.56814 30.578 10.2857 30.1294 12.4005C29.7481 14.2 30.2187 16.0064 31.4198 17.3568C31.9055 17.9032 32.2017 18.5628 32.2989 19.2501H38.9525C39.0529 18.566 39.3579 17.896 39.8573 17.3261C40.7555 16.302 41.2811 14.9874 41.2811 13.625C41.2811 10.0569 37.9772 7.37686 34.4168 8.12639ZM38.9061 14.0938C38.647 14.0938 38.4374 13.8842 38.4374 13.6251C38.4374 12.0742 37.1753 10.8126 35.6244 10.8126C35.3653 10.8126 35.1557 10.6029 35.1557 10.3438C35.1557 10.0847 35.3653 9.87508 35.6244 9.87508C37.6926 9.87508 39.3749 11.5574 39.3749 13.6251C39.3749 13.8842 39.1652 14.0938 38.9061 14.0938Z" fill="#CDD4DB"/>
<path d="M128.344 20.1875V20.6563C128.344 21.2812 128.756 21.806 129.321 21.9886C129.51 23.0925 130.468 24 131.625 24C132.782 24 133.74 23.0925 133.929 21.9886C134.494 21.806 134.906 21.2812 134.906 20.6563V20.1875H128.344V20.1875Z" fill="#CDD4DB"/>
<path d="M130.417 8.12639C128.301 8.56814 126.578 10.2857 126.129 12.4005C125.748 14.2 126.219 16.0064 127.42 17.3568C127.905 17.9032 128.202 18.5628 128.299 19.2501H134.952C135.053 18.566 135.358 17.896 135.857 17.3261C136.755 16.302 137.281 14.9874 137.281 13.625C137.281 10.0569 133.977 7.37686 130.417 8.12639ZM134.906 14.0938C134.647 14.0938 134.437 13.8842 134.437 13.6251C134.437 12.0742 133.175 10.8126 131.624 10.8126C131.365 10.8126 131.156 10.6029 131.156 10.3438C131.156 10.0847 131.365 9.87508 131.624 9.87508C133.693 9.87508 135.375 11.5574 135.375 13.6251C135.375 13.8842 135.165 14.0938 134.906 14.0938Z" fill="#CDD4DB"/>
<path d="M88.8327 11.666H79.166C78.89 11.666 78.666 11.89 78.666 12.166V23.4993C78.666 23.7013 78.788 23.884 78.9747 23.9613C79.1607 24.0387 79.3767 23.996 79.5193 23.8527L80.8133 22.5587L81.9607 23.834C82.0527 23.936 82.182 23.9953 82.3193 23.9993C82.4633 24.008 82.5893 23.9507 82.686 23.8533L83.9993 22.54L85.3127 23.8533C85.4093 23.9507 85.544 24.0073 85.6793 23.9993C85.8167 23.996 85.946 23.936 86.038 23.834L87.1853 22.5587L88.4793 23.8527C88.5753 23.9487 88.7027 23.9993 88.8327 23.9993C88.8973 23.9993 88.962 23.9867 89.024 23.9613C89.2107 23.884 89.3327 23.7013 89.3327 23.4993V12.166C89.3327 11.89 89.1087 11.666 88.8327 11.666V11.666ZM83.746 16.166H84.2527C85.032 16.166 85.666 16.8 85.666 17.5793C85.666 18.28 85.1607 18.8567 84.4993 18.974V19.4987C84.4993 19.7747 84.2753 19.9987 83.9993 19.9987C83.7233 19.9987 83.4993 19.7747 83.4993 19.4987V18.9993H82.8327C82.5567 18.9993 82.3327 18.7753 82.3327 18.4993C82.3327 18.2233 82.5567 17.9993 82.8327 17.9993H84.2527C84.4807 17.9993 84.666 17.814 84.666 17.586C84.666 17.3513 84.4807 17.166 84.2527 17.166H83.746C82.9667 17.166 82.3327 16.532 82.3327 15.7527C82.3327 15.052 82.838 14.4753 83.4993 14.358V13.8327C83.4993 13.5567 83.7233 13.3327 83.9993 13.3327C84.2753 13.3327 84.4993 13.5567 84.4993 13.8327V14.3327H85.166C85.442 14.3327 85.666 14.5567 85.666 14.8327C85.666 15.1087 85.442 15.3327 85.166 15.3327H83.746C83.518 15.3327 83.3327 15.518 83.3327 15.746C83.3327 15.9807 83.518 16.166 83.746 16.166V16.166Z" fill="#77C043"/>
<path d="M90.1667 8H77.8333C76.822 8 76 8.822 76 9.83333V12.8333C76 13.7873 76.7347 14.564 77.6667 14.65V12.1667C77.6667 11.3393 78.3393 10.6667 79.1667 10.6667H88.8333C89.6607 10.6667 90.3333 11.3393 90.3333 12.1667V14.65C91.2653 14.564 92 13.7873 92 12.8333V9.83333C92 8.822 91.178 8 90.1667 8Z" fill="#77C043"/>
<path d="M184.833 11.666H175.166C174.89 11.666 174.666 11.89 174.666 12.166V23.4993C174.666 23.7013 174.788 23.884 174.975 23.9613C175.161 24.0387 175.377 23.996 175.519 23.8527L176.813 22.5587L177.961 23.834C178.053 23.936 178.182 23.9953 178.319 23.9993C178.463 24.008 178.589 23.9507 178.686 23.8533L179.999 22.54L181.313 23.8533C181.409 23.9507 181.544 24.0073 181.679 23.9993C181.817 23.996 181.946 23.936 182.038 23.834L183.185 22.5587L184.479 23.8527C184.575 23.9487 184.703 23.9993 184.833 23.9993C184.897 23.9993 184.962 23.9867 185.024 23.9613C185.211 23.884 185.333 23.7013 185.333 23.4993V12.166C185.333 11.89 185.109 11.666 184.833 11.666V11.666ZM179.746 16.166H180.253C181.032 16.166 181.666 16.8 181.666 17.5793C181.666 18.28 181.161 18.8567 180.499 18.974V19.4987C180.499 19.7747 180.275 19.9987 179.999 19.9987C179.723 19.9987 179.499 19.7747 179.499 19.4987V18.9993H178.833C178.557 18.9993 178.333 18.7753 178.333 18.4993C178.333 18.2233 178.557 17.9993 178.833 17.9993H180.253C180.481 17.9993 180.666 17.814 180.666 17.586C180.666 17.3513 180.481 17.166 180.253 17.166H179.746C178.967 17.166 178.333 16.532 178.333 15.7527C178.333 15.052 178.838 14.4753 179.499 14.358V13.8327C179.499 13.5567 179.723 13.3327 179.999 13.3327C180.275 13.3327 180.499 13.5567 180.499 13.8327V14.3327H181.166C181.442 14.3327 181.666 14.5567 181.666 14.8327C181.666 15.1087 181.442 15.3327 181.166 15.3327H179.746C179.518 15.3327 179.333 15.518 179.333 15.746C179.333 15.9807 179.518 16.166 179.746 16.166V16.166Z" fill="#77C043"/>
<path d="M186.167 8H173.833C172.822 8 172 8.822 172 9.83333V12.8333C172 13.7873 172.735 14.564 173.667 14.65V12.1667C173.667 11.3393 174.339 10.6667 175.167 10.6667H184.833C185.661 10.6667 186.333 11.3393 186.333 12.1667V14.65C187.265 14.564 188 13.7873 188 12.8333V9.83333C188 8.822 187.178 8 186.167 8Z" fill="#77C043"/>
</svg>