<svg width="72" height="72" viewBox="0 0 72 72" fill="none" xmlns="http://www.w3.org/2000/svg">
<g clip-path="url(#clip0_2748_22225)">
<path d="M26.4004 44.4C26.4004 45.0623 26.938 45.5999 27.6003 45.5999H32.4004C33.0628 45.5999 33.6004 45.0623 33.6004 44.4V37.2C33.6004 36.5376 33.0628 36 32.4004 36H27.6005C26.9381 36 26.4005 36.5376 26.4005 37.2V44.4H26.4004ZM28.8004 38.4H31.2005V43.2H28.8004V38.4Z" fill="#FAFAFA"/>
<path d="M27.6003 31.1995H32.4003C33.0626 31.1995 33.6002 30.6619 33.6002 29.9996V22.7996C33.6002 22.1372 33.0626 21.5996 32.4003 21.5996H27.6003C26.938 21.5996 26.4004 22.1372 26.4004 22.7996V29.9996C26.4003 30.6619 26.9379 31.1995 27.6003 31.1995ZM28.8003 23.9995H31.2003V28.7995H28.8003V23.9995Z" fill="#FAFAFA"/>
<path d="M18.6179 22.6284L35.9999 12.1992L53.3818 22.6284C53.575 22.7448 53.7887 22.8 53.9986 22.8C54.4066 22.8 54.8038 22.5924 55.0283 22.2179C55.3703 21.6491 55.1855 20.9123 54.6179 20.5715L37.1998 10.1208V2.40005H43.1999V4.80009H39.5999C38.9375 4.80009 38.3999 5.3377 38.3999 6.00005C38.3999 6.66239 38.9375 7.2 39.5999 7.2H44.3998C45.0622 7.2 45.5998 6.66239 45.5998 6.00005V1.19995C45.5998 0.537609 45.0622 0 44.3998 0H35.9999C35.3375 0 34.7999 0.537609 34.7999 1.19995V10.1208L17.382 20.5716C16.8144 20.9123 16.6296 21.6492 16.9716 22.218C17.3111 22.7856 18.0502 22.9704 18.6179 22.6284Z" fill="#FAFAFA"/>
<path d="M13.2002 45.5999C13.8626 45.5999 14.4002 45.0623 14.4002 44.4V37.2C14.4002 36.5376 13.8626 36 13.2002 36H8.40015C7.73781 36 7.2002 36.5376 7.2002 37.2V39.5999C7.2002 40.2622 7.73781 40.7998 8.40015 40.7998C9.06249 40.7998 9.6001 40.2622 9.6001 39.5999V38.3999H12.0002V44.4C12.0002 45.0623 12.5378 45.5999 13.2002 45.5999Z" fill="#FAFAFA"/>
<path d="M21.6001 61.1992V26.3992C21.6001 25.7368 21.0625 25.1992 20.4001 25.1992C19.7378 25.1992 19.2002 25.7368 19.2002 26.3992V61.1992C19.2002 61.8616 19.7378 62.3992 20.4001 62.3992C21.0625 62.3992 21.6001 61.8616 21.6001 61.1992Z" fill="#FAFAFA"/>
<path d="M15.5994 67.2002H56.3993C57.0617 67.2002 57.5993 66.6625 57.5993 66.0002C57.5993 65.3379 57.0617 64.8002 56.3993 64.8002H45.5993V52.8003H46.7993C47.4616 52.8003 47.9992 52.2627 47.9992 51.6003C47.9992 50.938 47.4616 50.4004 46.7993 50.4004H25.1994C24.5371 50.4004 23.9995 50.938 23.9995 51.6003C23.9995 52.2627 24.5371 52.8003 25.1994 52.8003H26.3994V64.8001H15.5994C14.937 64.8001 14.3994 65.3377 14.3994 66.0001C14.3994 66.6624 14.937 67.2002 15.5994 67.2002ZM37.1994 60.0002C37.8617 60.0002 38.3993 59.4625 38.3993 58.8002C38.3993 58.1379 37.8617 57.6002 37.1994 57.6002V52.8003H43.1994V64.8001H37.1994V60.0002ZM28.7994 52.8002H34.7995V57.6001C34.1371 57.6001 33.5995 58.1377 33.5995 58.8001C33.5995 59.4624 34.1371 60 34.7995 60V64.8001H28.7994V52.8002Z" fill="#FAFAFA"/>
<path d="M63.5995 51.5996H58.7996C58.1372 51.5996 57.5996 52.1372 57.5996 52.7996V59.9996C57.5996 60.6619 58.1372 61.1995 58.7996 61.1995H63.5995C64.2619 61.1995 64.7995 60.6619 64.7995 59.9996V52.7996C64.7995 52.1372 64.2619 51.5996 63.5995 51.5996ZM62.3994 58.7996H59.9994V53.9997H62.3994V58.7996Z" fill="#FAFAFA"/>
<path d="M63.5995 37.1992H58.7996C58.1372 37.1992 57.5996 37.7368 57.5996 38.3992V45.5992C57.5996 46.2615 58.1372 46.7991 58.7996 46.7991H63.5995C64.2619 46.7991 64.7995 46.2615 64.7995 45.5992V38.3992C64.7995 37.7368 64.2619 37.1992 63.5995 37.1992ZM62.3994 44.3992H59.9994V39.5993H62.3994V44.3992Z" fill="#FAFAFA"/>
<path d="M61.1996 69.5996H10.7996C10.1372 69.5996 9.59961 70.1372 9.59961 70.7996C9.59961 71.4619 10.1372 71.9997 10.7996 71.9997H61.1996C61.8619 71.9997 62.3995 71.462 62.3995 70.7997C62.3995 70.1374 61.8619 69.5996 61.1996 69.5996Z" fill="#FAFAFA"/>
<path d="M70.8002 26.4004C70.1378 26.4004 69.6002 26.938 69.6002 27.6003V28.8003H56.4001C55.7378 28.8003 55.2002 29.3379 55.2002 30.0002C55.2002 30.6626 55.7378 31.2002 56.4001 31.2002H69.6002V70.8002C69.6002 71.4625 70.1378 72.0002 70.8002 72.0002C71.4625 72.0002 72.0001 71.4625 72.0001 70.8002V27.6002C72.0001 26.938 71.4625 26.4004 70.8002 26.4004Z" fill="#FAFAFA"/>
<path d="M38.4004 44.4C38.4004 45.0623 38.938 45.5999 39.6003 45.5999H44.4003C45.0626 45.5999 45.6002 45.0623 45.6002 44.4V37.2C45.6002 36.5376 45.0626 36 44.4003 36H39.6003C38.938 36 38.4004 36.5376 38.4004 37.2V44.4ZM40.8003 38.4H43.2003V43.2H40.8003V38.4Z" fill="#FAFAFA"/>
<path d="M12 58.7992C12 58.6432 11.9316 43.1992 5.99991 43.1992C0.0683438 43.1992 0 58.6432 0 58.7992C0 61.6972 2.06522 64.12 4.79995 64.678V70.7993C4.79995 71.4616 5.33756 71.9992 5.99991 71.9992C6.66225 71.9992 7.19986 71.4616 7.19986 70.7993V64.678C9.93473 64.12 12 61.6972 12 58.7992ZM6.00005 62.3992C4.01527 62.3992 2.40005 60.784 2.40005 58.7992C2.40005 52.8208 4.0057 45.5991 6.00005 45.5991C7.99439 45.5991 9.60005 52.8208 9.60005 58.7992C9.60005 60.784 7.98483 62.3992 6.00005 62.3992Z" fill="#FAFAFA"/>
<path d="M52.8003 61.2V25.2C52.8003 24.5376 52.2627 24 51.6003 24C50.938 24 50.4004 24.5376 50.4004 25.2V61.2C50.4004 61.8623 50.938 62.3999 51.6003 62.3999C52.2627 62.3999 52.8003 61.8623 52.8003 61.2Z" fill="#FAFAFA"/>
<path d="M39.6003 31.1995H44.4003C45.0626 31.1995 45.6002 30.6619 45.6002 29.9996V22.7996C45.6002 22.1372 45.0626 21.5996 44.4003 21.5996H39.6003C38.938 21.5996 38.4004 22.1372 38.4004 22.7996V29.9996C38.4004 30.6619 38.938 31.1995 39.6003 31.1995ZM40.8003 23.9995H43.2003V28.7995H40.8003V23.9995Z" fill="#FAFAFA"/>
<path d="M1.19995 42.0002C1.8623 42.0002 2.39991 41.4626 2.39991 40.8002V31.2002H15.6C16.2623 31.2002 16.7999 30.6626 16.7999 30.0002C16.7999 29.3379 16.2623 28.8003 15.6 28.8003H2.40005V27.6003C2.40005 26.938 1.86244 26.4004 1.20009 26.4004C0.53775 26.4004 0 26.9377 0 27.6002V40.8002C0 41.4626 0.537609 42.0002 1.19995 42.0002Z" fill="#FAFAFA"/>
</g>
<defs>
<clipPath id="clip0_2748_22225">
<rect width="72" height="72" fill="white"/>
</clipPath>
</defs>
</svg>
