<svg width="192" height="24" viewBox="0 0 192 24" fill="none" xmlns="http://www.w3.org/2000/svg">
<rect width="168" height="4" rx="2" fill="#CDD4DB"/>
<rect x="168" width="24" height="4" rx="2" fill="#77C043"/>
<path d="M80.3438 20.1875V20.6563C80.3438 21.2812 80.7563 21.806 81.3212 21.9886C81.5103 23.0925 82.4679 24 83.625 24C84.7821 24 85.7397 23.0925 85.9288 21.9886C86.4937 21.806 86.9062 21.2812 86.9062 20.6563V20.1875H80.3438V20.1875Z" fill="#CDD4DB"/>
<path d="M82.4168 8.12639C80.3011 8.56814 78.578 10.2857 78.1294 12.4005C77.7481 14.2 78.2187 16.0064 79.4198 17.3568C79.9055 17.9032 80.2017 18.5628 80.2989 19.2501H86.9525C87.0529 18.566 87.3579 17.896 87.8573 17.3261C88.7555 16.302 89.2811 14.9874 89.2811 13.625C89.2811 10.0569 85.9772 7.37686 82.4168 8.12639ZM86.9061 14.0938C86.647 14.0938 86.4374 13.8842 86.4374 13.6251C86.4374 12.0742 85.1753 10.8126 83.6244 10.8126C83.3653 10.8126 83.1557 10.6029 83.1557 10.3438C83.1557 10.0847 83.3653 9.87508 83.6244 9.87508C85.6926 9.87508 87.3749 11.5574 87.3749 13.6251C87.3749 13.8842 87.1652 14.0938 86.9061 14.0938Z" fill="#CDD4DB"/>
<path d="M184.833 11.666H175.166C174.89 11.666 174.666 11.89 174.666 12.166V23.4993C174.666 23.7013 174.788 23.884 174.975 23.9613C175.161 24.0387 175.377 23.996 175.519 23.8527L176.813 22.5587L177.961 23.834C178.053 23.936 178.182 23.9953 178.319 23.9993C178.463 24.008 178.589 23.9507 178.686 23.8533L179.999 22.54L181.313 23.8533C181.409 23.9507 181.544 24.0073 181.679 23.9993C181.817 23.996 181.946 23.936 182.038 23.834L183.185 22.5587L184.479 23.8527C184.575 23.9487 184.703 23.9993 184.833 23.9993C184.897 23.9993 184.962 23.9867 185.024 23.9613C185.211 23.884 185.333 23.7013 185.333 23.4993V12.166C185.333 11.89 185.109 11.666 184.833 11.666V11.666ZM179.746 16.166H180.253C181.032 16.166 181.666 16.8 181.666 17.5793C181.666 18.28 181.161 18.8567 180.499 18.974V19.4987C180.499 19.7747 180.275 19.9987 179.999 19.9987C179.723 19.9987 179.499 19.7747 179.499 19.4987V18.9993H178.833C178.557 18.9993 178.333 18.7753 178.333 18.4993C178.333 18.2233 178.557 17.9993 178.833 17.9993H180.253C180.481 17.9993 180.666 17.814 180.666 17.586C180.666 17.3513 180.481 17.166 180.253 17.166H179.746C178.967 17.166 178.333 16.532 178.333 15.7527C178.333 15.052 178.838 14.4753 179.499 14.358V13.8327C179.499 13.5567 179.723 13.3327 179.999 13.3327C180.275 13.3327 180.499 13.5567 180.499 13.8327V14.3327H181.166C181.442 14.3327 181.666 14.5567 181.666 14.8327C181.666 15.1087 181.442 15.3327 181.166 15.3327H179.746C179.518 15.3327 179.333 15.518 179.333 15.746C179.333 15.9807 179.518 16.166 179.746 16.166V16.166Z" fill="#77C043"/>
<path d="M186.167 8H173.833C172.822 8 172 8.822 172 9.83333V12.8333C172 13.7873 172.735 14.564 173.667 14.65V12.1667C173.667 11.3393 174.339 10.6667 175.167 10.6667H184.833C185.661 10.6667 186.333 11.3393 186.333 12.1667V14.65C187.265 14.564 188 13.7873 188 12.8333V9.83333C188 8.822 187.178 8 186.167 8Z" fill="#77C043"/>
</svg>