<svg width="81" height="72" viewBox="0 0 81 72" fill="none" xmlns="http://www.w3.org/2000/svg">
<g clip-path="url(#clip0_2748_22510)">
<path fill-rule="evenodd" clip-rule="evenodd" d="M59.0153 44.3005H62.6161V40.7595H64.8814V44.326H68.4652V38.0847H59.0153V44.3005ZM18.3928 47.3914H16.1191V46.5423H12.5268V52.6477H21.9766V46.5762H18.3928V47.3914ZM16.1191 44.3005V40.7595H18.3928V44.326H21.9766V38.0847H12.5268V44.3005H16.1191ZM70.7558 40.0547H78.7265V14.58H2.27393V40.0547H10.2531V36.9383C10.2531 36.6365 10.3724 36.3471 10.5848 36.1337C10.7972 35.9203 11.0853 35.8004 11.3857 35.8004H23.1262C23.4273 35.8004 23.7163 35.9201 23.9301 36.1332C24.1438 36.3464 24.265 36.6358 24.2673 36.9383V40.0462H56.7416V36.9383C56.7416 36.6365 56.861 36.3471 57.0734 36.1337C57.2858 35.9203 57.5739 35.8004 57.8743 35.8004H69.6232C69.9236 35.8004 70.2117 35.9203 70.4241 36.1337C70.6365 36.3471 70.7558 36.6365 70.7558 36.9383V40.0547ZM0.000216845 41.3115C-0.00397853 41.272 -0.00397853 41.2321 0.000216845 41.1926V13.4422C0.00244777 13.1396 0.123653 12.8502 0.337406 12.637C0.551159 12.4239 0.840125 12.3043 1.1413 12.3043H26.2451V4.52601C26.2451 3.3271 26.7186 2.17718 27.5617 1.32863C28.4047 0.480088 29.5485 0.00224935 30.7418 0L50.2586 0C51.452 0.00224935 52.5957 0.480088 53.4388 1.32863C54.2818 2.17718 54.7553 3.3271 54.7553 4.52601V12.2958H79.8591C80.1618 12.2958 80.452 12.4166 80.666 12.6316C80.88 12.8465 81.0002 13.1381 81.0002 13.4422V72.034H0.000216845V41.3115ZM28.5188 12.3043H52.4816V7.30275H28.5188V12.3043ZM43.5473 32.5057H37.4446V30.2215H43.5473V32.5057ZM48.9062 36.5902H32.1196V34.3144H48.9062V36.5902ZM64.8814 47.3914H62.6161V46.5423H59.0322V52.6477H68.4652V46.5762H64.8814V47.3914Z" fill="white"/>
</g>
<defs>
<clipPath id="clip0_2748_22510">
<rect width="81" height="72" fill="white"/>
</clipPath>
</defs>
</svg>
