   <svg width="28" height="48" viewBox="0 0 28 48" fill="none" xmlns="http://www.w3.org/2000/svg">
   <path d="M20.1954 47.9998H0.402299C0.349468 47.9998 0.297155 47.9896 0.248346 47.9698C0.199537 47.95 0.155188 47.9209 0.117831 47.8843C0.0804737 47.8477 0.0508406 47.8042 0.0306232 47.7563C0.0104058 47.7085 0 47.6572 0 47.6054L0 9.73814C0 9.63354 0.0423849 9.53323 0.117831 9.45926C0.193276 9.3853 0.295603 9.34375 0.402299 9.34375H5.35367C5.46037 9.34375 5.56269 9.3853 5.63814 9.45926C5.71358 9.53323 5.75597 9.63354 5.75597 9.73814V13.8276H14.9779V9.73814C14.9779 9.63354 15.0203 9.53323 15.0957 9.45926C15.1712 9.3853 15.2735 9.34375 15.3802 9.34375H20.1954C20.3027 9.34374 20.4056 9.38509 20.4821 9.45889C20.5585 9.53268 20.6023 9.63299 20.6039 9.73814V47.6054C20.6023 47.7106 20.5585 47.8109 20.4821 47.8847C20.4056 47.9585 20.3027 47.9998 20.1954 47.9998ZM0.804598 47.211H19.8055V10.1325H15.7825V14.222C15.7825 14.3266 15.7401 14.4269 15.6647 14.5009C15.5892 14.5749 15.4869 14.6164 15.3802 14.6164H5.35986C5.30651 14.6172 5.25353 14.6076 5.204 14.5881C5.15448 14.5687 5.1094 14.5398 5.07138 14.5031C5.03337 14.4664 5.00318 14.4226 4.98257 14.3744C4.96197 14.3261 4.95136 14.2743 4.95137 14.222V10.1325H0.804598V47.211Z" fill="#77C043"/>
   <path d="M17.5094 27.2353H3.09468C2.98799 27.2353 2.88566 27.1938 2.81021 27.1198C2.73477 27.0459 2.69238 26.9455 2.69238 26.8409V19.6874C2.69238 19.5828 2.73477 19.4824 2.81021 19.4085C2.88566 19.3345 2.98799 19.293 3.09468 19.293H17.5094C17.6161 19.293 17.7184 19.3345 17.7938 19.4085C17.8693 19.4824 17.9117 19.5828 17.9117 19.6874V26.8409C17.9117 26.9455 17.8693 27.0459 17.7938 27.1198C17.7184 27.1938 17.6161 27.2353 17.5094 27.2353ZM3.49698 26.4466H17.1132V20.0817H3.49698V26.4466Z" fill="#77C043"/>
   <path d="M15.38 14.6167H5.35966C5.30631 14.6175 5.25333 14.6079 5.20381 14.5884C5.15428 14.5689 5.1092 14.54 5.07118 14.5033C5.03317 14.4666 5.00298 14.4229 4.98238 14.3746C4.96177 14.3264 4.95117 14.2746 4.95117 14.2223V0.394434C4.95117 0.342128 4.96177 0.290343 4.98238 0.242094C5.00298 0.193845 5.03317 0.150096 5.07118 0.113393C5.1092 0.0766901 5.15428 0.0477673 5.20381 0.0283081C5.25333 0.00884886 5.30631 -0.000758032 5.35966 4.66794e-05H15.38C15.4867 4.66794e-05 15.589 0.0415981 15.6645 0.11556C15.7399 0.189522 15.7823 0.289836 15.7823 0.394434V14.2223C15.7823 14.3269 15.7399 14.4272 15.6645 14.5011C15.589 14.5751 15.4867 14.6167 15.38 14.6167ZM5.76196 13.8279H14.9777V0.788822H5.76196V13.8279Z" fill="#77C043"/>
   <path d="M17.6517 17.1706H3.09468C2.98848 17.1691 2.88708 17.127 2.81198 17.0534C2.73688 16.9798 2.69398 16.8804 2.69238 16.7762V11.6795C2.69238 11.5749 2.73477 11.4746 2.81021 11.4007C2.88566 11.3267 2.98799 11.2852 3.09468 11.2852H5.35993C5.46663 11.2852 5.56896 11.3267 5.6444 11.4007C5.71985 11.4746 5.76223 11.5749 5.76223 11.6795V13.8274H14.978V11.6795C14.978 11.5749 15.0204 11.4746 15.0958 11.4007C15.1712 11.3267 15.2736 11.2852 15.3803 11.2852H17.6517C17.7584 11.2852 17.8607 11.3267 17.9362 11.4007C18.0116 11.4746 18.054 11.5749 18.054 11.6795V16.7762C18.0524 16.8804 18.0095 16.9798 17.9344 17.0534C17.8593 17.127 17.7579 17.1691 17.6517 17.1706ZM3.49698 16.3819H17.2494V12.0739H15.7826V14.2218C15.7826 14.3264 15.7402 14.4267 15.6647 14.5007C15.5893 14.5747 15.487 14.6162 15.3803 14.6162H5.35993C5.30658 14.617 5.25361 14.6074 5.20408 14.588C5.15455 14.5685 5.10947 14.5396 5.07146 14.5029C5.03344 14.4662 5.00325 14.4224 4.98265 14.3742C4.96205 14.3259 4.95144 14.2741 4.95145 14.2218V12.0739H3.49698V16.3819Z" fill="#77C043"/>
   <path d="M27.5979 47.9998H20.1709C20.0647 47.9982 19.9633 47.9562 19.8882 47.8825C19.813 47.8089 19.7702 47.7095 19.7686 47.6054V9.73814C19.7702 9.63403 19.813 9.53462 19.8882 9.461C19.9633 9.38737 20.0647 9.34532 20.1709 9.34375H27.5979C27.7046 9.34375 27.8069 9.3853 27.8824 9.45926C27.9578 9.53323 28.0002 9.63354 28.0002 9.73814V47.6054C28.0002 47.6572 27.9898 47.7085 27.9696 47.7563C27.9494 47.8042 27.9197 47.8477 27.8824 47.8843C27.845 47.9209 27.8007 47.95 27.7519 47.9698C27.7031 47.9896 27.6507 47.9998 27.5979 47.9998ZM20.6041 47.211H27.1956V10.1325H20.6041V47.211Z" fill="#77C043"/>
   <path d="M23.8964 44.2919C23.7897 44.2919 23.6874 44.2504 23.612 44.1764C23.5365 44.1024 23.4941 44.0021 23.4941 43.8975V13.4569C23.4941 13.3523 23.5365 13.252 23.612 13.178C23.6874 13.1041 23.7897 13.0625 23.8964 13.0625C24.0031 13.0625 24.1055 13.1041 24.1809 13.178C24.2564 13.252 24.2987 13.3523 24.2987 13.4569V43.8854C24.3004 43.9382 24.2912 43.9908 24.2717 44.0401C24.2523 44.0893 24.2229 44.1342 24.1854 44.1722C24.1479 44.2101 24.1029 44.2402 24.0533 44.2608C24.0037 44.2814 23.9503 44.292 23.8964 44.2919Z" fill="#77C043"/>
   <path d="M5.81821 37.6599H4.09761C3.99092 37.6599 3.88859 37.6183 3.81314 37.5444C3.7377 37.4704 3.69531 37.3701 3.69531 37.2655C3.69531 37.1609 3.7377 37.0606 3.81314 36.9866C3.88859 36.9126 3.99092 36.8711 4.09761 36.8711H5.81821C5.92491 36.8711 6.02724 36.9126 6.10268 36.9866C6.17813 37.0606 6.22051 37.1609 6.22051 37.2655C6.22051 37.3701 6.17813 37.4704 6.10268 37.5444C6.02724 37.6183 5.92491 37.6599 5.81821 37.6599Z" fill="#77C043"/>
   <path d="M11.1405 37.6599H9.43843C9.33174 37.6599 9.22941 37.6183 9.15396 37.5444C9.07852 37.4704 9.03613 37.3701 9.03613 37.2655C9.03613 37.1609 9.07852 37.0606 9.15396 36.9866C9.22941 36.9126 9.33174 36.8711 9.43843 36.8711H11.1405C11.2472 36.8711 11.3495 36.9126 11.4249 36.9866C11.5004 37.0606 11.5428 37.1609 11.5428 37.2655C11.5428 37.3701 11.5004 37.4704 11.4249 37.5444C11.3495 37.6183 11.2472 37.6599 11.1405 37.6599Z" fill="#77C043"/>
   <path d="M16.5067 37.6599H14.7861C14.6794 37.6599 14.5771 37.6183 14.5016 37.5444C14.4262 37.4704 14.3838 37.3701 14.3838 37.2655C14.3838 37.1609 14.4262 37.0606 14.5016 36.9866C14.5771 36.9126 14.6794 36.8711 14.7861 36.8711H16.5067C16.6134 36.8711 16.7157 36.9126 16.7912 36.9866C16.8666 37.0606 16.909 37.1609 16.909 37.2655C16.909 37.3701 16.8666 37.4704 16.7912 37.5444C16.7157 37.6183 16.6134 37.6599 16.5067 37.6599Z" fill="#77C043"/>
   <path d="M5.81821 32.1989H4.09761C3.99091 32.1989 3.88859 32.1574 3.81314 32.0834C3.7377 32.0095 3.69531 31.9091 3.69531 31.8045C3.69531 31.6999 3.7377 31.5996 3.81314 31.5257C3.88859 31.4517 3.99091 31.4102 4.09761 31.4102H5.81821C5.87104 31.4102 5.92336 31.4204 5.97217 31.4402C6.02097 31.46 6.06532 31.489 6.10268 31.5257C6.14004 31.5623 6.16967 31.6058 6.18989 31.6536C6.21011 31.7015 6.22051 31.7528 6.22051 31.8045C6.22051 31.8563 6.21011 31.9076 6.18989 31.9555C6.16967 32.0033 6.14004 32.0468 6.10268 32.0834C6.06532 32.12 6.02097 32.1491 5.97217 32.1689C5.92336 32.1887 5.87104 32.1989 5.81821 32.1989Z" fill="#77C043"/>
   <path d="M11.1405 32.1989H9.43843C9.33174 32.1989 9.22941 32.1574 9.15396 32.0834C9.07852 32.0095 9.03613 31.9091 9.03613 31.8045C9.03613 31.6999 9.07852 31.5996 9.15396 31.5257C9.22941 31.4517 9.33174 31.4102 9.43843 31.4102H11.1405C11.1933 31.4102 11.2456 31.4204 11.2944 31.4402C11.3432 31.46 11.3876 31.489 11.4249 31.5257C11.4623 31.5623 11.4919 31.6058 11.5121 31.6536C11.5324 31.7015 11.5428 31.7528 11.5428 31.8045C11.5428 31.8563 11.5324 31.9076 11.5121 31.9555C11.4919 32.0033 11.4623 32.0468 11.4249 32.0834C11.3876 32.12 11.3432 32.1491 11.2944 32.1689C11.2456 32.1887 11.1933 32.1989 11.1405 32.1989Z" fill="#77C043"/>
   <path d="M16.5067 32.1989H14.7861C14.6794 32.1989 14.5771 32.1574 14.5016 32.0834C14.4262 32.0095 14.3838 31.9091 14.3838 31.8045C14.3838 31.6999 14.4262 31.5996 14.5016 31.5257C14.5771 31.4517 14.6794 31.4102 14.7861 31.4102H16.5067C16.6134 31.4102 16.7157 31.4517 16.7912 31.5257C16.8666 31.5996 16.909 31.6999 16.909 31.8045C16.909 31.9091 16.8666 32.0095 16.7912 32.0834C16.7157 32.1574 16.6134 32.1989 16.5067 32.1989Z" fill="#77C043"/>
   <path d="M5.81821 43.1325H4.09761C3.99092 43.1325 3.88859 43.091 3.81314 43.017C3.7377 42.943 3.69531 42.8427 3.69531 42.7381C3.69531 42.6335 3.7377 42.5332 3.81314 42.4593C3.88859 42.3853 3.99092 42.3438 4.09761 42.3438H5.81821C5.92491 42.3438 6.02724 42.3853 6.10268 42.4593C6.17813 42.5332 6.22051 42.6335 6.22051 42.7381C6.22051 42.8427 6.17813 42.943 6.10268 43.017C6.02724 43.091 5.92491 43.1325 5.81821 43.1325Z" fill="#77C043"/>
   <path d="M11.1405 43.1325H9.43843C9.33174 43.1325 9.22941 43.091 9.15396 43.017C9.07852 42.943 9.03613 42.8427 9.03613 42.7381C9.03613 42.6335 9.07852 42.5332 9.15396 42.4593C9.22941 42.3853 9.33174 42.3438 9.43843 42.3438H11.1405C11.2472 42.3438 11.3495 42.3853 11.4249 42.4593C11.5004 42.5332 11.5428 42.6335 11.5428 42.7381C11.5428 42.8427 11.5004 42.943 11.4249 43.017C11.3495 43.091 11.2472 43.1325 11.1405 43.1325Z" fill="#77C043"/>
   <path d="M16.5067 43.1325H14.7861C14.6794 43.1325 14.5771 43.091 14.5016 43.017C14.4262 42.943 14.3838 42.8427 14.3838 42.7381C14.3838 42.6335 14.4262 42.5332 14.5016 42.4593C14.5771 42.3853 14.6794 42.3438 14.7861 42.3438H16.5067C16.6134 42.3438 16.7157 42.3853 16.7912 42.4593C16.8666 42.5332 16.909 42.6335 16.909 42.7381C16.909 42.8427 16.8666 42.943 16.7912 43.017C16.7157 43.091 16.6134 43.1325 16.5067 43.1325Z" fill="#77C043"/>
   <path d="M12.8054 3.81612H7.93453C7.82783 3.81612 7.7255 3.77457 7.65006 3.70061C7.57461 3.62664 7.53223 3.52633 7.53223 3.42173C7.53223 3.31713 7.57461 3.21682 7.65006 3.14286C7.7255 3.0689 7.82783 3.02734 7.93453 3.02734H12.8054C12.9121 3.02734 13.0145 3.0689 13.0899 3.14286C13.1653 3.21682 13.2077 3.31713 13.2077 3.42173C13.2077 3.52633 13.1653 3.62664 13.0899 3.70061C13.0145 3.77457 12.9121 3.81612 12.8054 3.81612Z" fill="#77C043"/>
   <path d="M12.8054 7.70674H7.93453C7.82783 7.70674 7.7255 7.66519 7.65006 7.59123C7.57461 7.51727 7.53223 7.41695 7.53223 7.31236C7.53223 7.20776 7.57461 7.10744 7.65006 7.03348C7.7255 6.95952 7.82783 6.91797 7.93453 6.91797H12.8054C12.9121 6.91797 13.0145 6.95952 13.0899 7.03348C13.1653 7.10744 13.2077 7.20776 13.2077 7.31236C13.2077 7.41695 13.1653 7.51727 13.0899 7.59123C13.0145 7.66519 12.9121 7.70674 12.8054 7.70674Z" fill="#77C043"/>
   <path d="M12.8054 11.5896H7.93453C7.82783 11.5896 7.7255 11.548 7.65006 11.474C7.57461 11.4001 7.53223 11.2998 7.53223 11.1952C7.53223 11.0906 7.57461 10.9903 7.65006 10.9163C7.7255 10.8423 7.82783 10.8008 7.93453 10.8008H12.8054C12.9121 10.8008 13.0145 10.8423 13.0899 10.9163C13.1653 10.9903 13.2077 11.0906 13.2077 11.1952C13.2077 11.2998 13.1653 11.4001 13.0899 11.474C13.0145 11.548 12.9121 11.5896 12.8054 11.5896Z" fill="#77C043"/>
   </svg>