<svg width="23" height="16" viewBox="0 0 23 16" fill="none" xmlns="http://www.w3.org/2000/svg">
<path fill-rule="evenodd" clip-rule="evenodd" d="M3.15557 0.250757C1.57116 0.329253 0.298429 1.56986 0.195605 3.15289C0.0970912 4.66954 0 6.53573 0 8C0 9.46427 0.0970911 11.3305 0.195605 12.8471C0.298429 14.4301 1.57116 15.6707 3.15557 15.7492C5.44991 15.8629 8.72918 16 11.2 16C13.6708 16 16.9501 15.8629 19.2444 15.7492C20.8288 15.6707 22.1016 14.4301 22.2044 12.8471C22.3029 11.3305 22.4 9.46427 22.4 8C22.4 6.53573 22.3029 4.66954 22.2044 3.15289C22.1016 1.56987 20.8288 0.329253 19.2444 0.250757C16.9501 0.137089 13.6708 0 11.2 0C8.72918 0 5.44991 0.137089 3.15557 0.250757ZM15.2008 7.99993L8.80078 11.1999V4.79993L15.2008 7.99993Z" fill="#858A8F"/>
</svg>
